<?xml version="1.0" encoding="utf-8"?>
<!-- Generator: Adobe Illustrator 25.4.1, SVG Export Plug-In . SVG Version: 6.00 Build 0)  -->
<svg version="1.1" id="Capa_1" xmlns="http://www.w3.org/2000/svg" xmlns:xlink="http://www.w3.org/1999/xlink" x="0px" y="0px"
	 viewBox="0 0 319.9 319.9" style="enable-background:new 0 0 319.9 319.9;" xml:space="preserve">
<style type="text/css">
	.st0{fill:#D5B183;}
	.st1{fill:#E1D7CB;}
</style>
<g>
	<path class="st0" d="M56.8,4.2c-9.4,0.9-18.8,4.2-27.1,10.1C4.8,32.1-1,66.8,16.8,91.8c10.6,14.8,27.1,22.9,44,23.3L56.8,4.2z"/>
	<path class="st0" d="M58.8,208.9c-9.4,0.9-18.8,4.2-27.1,10.1c-25,17.8-30.8,52.5-13,77.5c10.6,14.8,27.1,22.9,44,23.3L58.8,208.9z
		"/>
	<path class="st0" d="M267.2,10.5H296c6.7,0,12.1,5.4,12.1,12.1v281.3c0,7.5-6.1,13.6-13.6,13.6h-27.3V10.5z"/>
	<g>
		<path class="st1" d="M307.3,159.8c17.2,14.9,16.3,37.5,0,51.4c8,6.6,12.6,15,12.6,25.5c0,10.3-4.5,18.7-13.3,26
			c1,0.5,1.8,0.7,2.4,1.2c10.4,9.5,13.7,23,8.7,35.7c-4.9,12.4-16.4,20.2-30.2,20.2c-67.2,0-134.3,0-201.5,0
			c-12.1,0-24.3,0.5-36.3-0.8c-24.1-2.6-43.3-21.2-48.4-45.6c-4.8-23.2,5.9-47.7,26.4-60.1c1-0.6,2-1.2,3.4-2.2
			c-19.7-11.7-30.8-28.5-30.8-51.3c0-22.7,11-39.5,30.7-51c-3.3-2.3-6.4-4.2-9.2-6.5C3.8,88.2-4.2,64.2,2.2,42.5
			c7-23.7,23.1-37.6,47.5-41.8C52.4,0.2,55.2,0,58,0C134.5,0,211,0,287.5,0c18.9,0,33.2,15,32.4,33.6c-0.4,8.7-3.8,15.3-12.6,24.1
			c7.9,6.6,12.6,15,12.6,25.5c0,10.4-4.5,18.7-12.7,25.6c8.1,6.7,12.7,15,12.7,25.5C319.9,144.7,315.3,153.2,307.3,159.8z
			 M171.4,102.4c20,0,40,0,60,0c18.8,0,37.6,0.1,56.4,0c11.7-0.1,20.5-9.9,19.3-21.2c-1.1-10.2-9.4-17.1-20.6-17.1
			c-68.5,0-137,0-205.5,0c-1.2,0-2.4,0-3.6,0c-4.1-0.2-6.8-2.6-6.9-6.3c-0.1-3.8,2.7-6.4,7-6.5c1.2,0,2.4,0,3.6,0
			c67.8,0,135.6,0,203.5,0c1.6,0,3.2,0.1,4.8-0.1c9.8-0.7,17.6-9,17.7-18.8c0.2-11.1-8.5-19.5-20.3-19.5c-76.1,0-152.2,0-228.2,0
			c-1.1,0-2.1,0-3.2,0.1C27.8,14,7.5,40.9,14.1,67.7c5,20.7,22.6,34.6,44.2,34.6C96,102.4,133.7,102.4,171.4,102.4z M172,204.7
			c8.3,0,16.5,0,24.8,0c30.1,0,60.2,0,90.3,0c12,0,20.7-9.2,19.9-20.6c-0.7-10.3-9.2-17.7-20.4-17.7c-68.9,0-137.8,0-206.7,0
			c-6.5,0-9.6-2.1-9.5-6.4c0-4.4,3-6.4,9.6-6.4c68.1,0,136.2,0,204.3,0c1.6,0,3.2,0,4.8-0.1c10.2-0.6,18.1-9.2,18-19.4
			c-0.1-10.9-8.8-18.9-20.5-18.9c-75.9,0-151.9,0-227.8,0c-1.2,0-2.4,0-3.6,0.1c-22.5,1-41.3,19.9-42.2,42.4
			c-1.1,26,18.8,47,45.1,47.1C96,204.8,134,204.7,172,204.7z M172,307.1c8,0,16,0,24,0c30.4,0,60.8,0,91.1,0c12,0,20.7-9.2,20-20.6
			c-0.7-10.3-9.2-17.8-20.4-17.8c-68.9,0-137.8,0-206.7,0c-6.5,0-9.6-2.1-9.5-6.4c0-4.4,3-6.4,9.6-6.4c68.1,0,136.2,0,204.3,0
			c1.6,0,3.2,0,4.8-0.1c10.2-0.6,18.1-9.2,18-19.4c-0.1-10.9-8.8-18.9-20.5-18.9c-75.9,0-151.9,0-227.8,0c-1.2,0-2.4,0-3.6,0.1
			c-22.5,1-41.3,19.9-42.2,42.3c-1.1,26,18.8,47,45.1,47.1C96,307.2,134,307.1,172,307.1z"/>
	</g>
</g>
</svg>
