<?xml version="1.0" encoding="utf-8"?>
<!-- Generator: Adobe Illustrator 25.4.1, SVG Export Plug-In . SVG Version: 6.00 Build 0)  -->
<svg version="1.1" id="Capa_1" xmlns="http://www.w3.org/2000/svg" xmlns:xlink="http://www.w3.org/1999/xlink" x="0px" y="0px"
	 viewBox="0 0 272.3 318.4" style="enable-background:new 0 0 272.3 318.4;" xml:space="preserve">
<style type="text/css">
	.st0{fill:#D5B183;}
	.st1{fill:#E1D7CB;}
</style>
<g>
	<path class="st1" d="M136.1,318.4c-1,0-1.7-0.8-1.7-1.7V135.1c0-1,0.8-1.7,1.7-1.7s1.7,0.8,1.7,1.7v181.6
		C137.9,317.6,137.1,318.4,136.1,318.4z"/>
	<path class="st0" d="M136.1,0l-33.4,71.3c-16,34.2-8.9,74.8,17.8,101.5l15.6,15.6l15.6-15.6c26.7-26.7,33.8-67.3,17.8-101.5
		L136.1,0z"/>
	<path class="st1" d="M158.2,189h-23.8v-23.8c0-38.4,24.2-72.9,60.3-86l77.5-28.1l-28.1,77.5C231.2,164.8,196.6,189,158.2,189z
		 M137.9,185.6h20.4c36.9,0,70.2-23.3,82.7-58l25.6-70.6l-70.6,25.6c-34.7,12.6-58,45.8-58,82.7V185.6z"/>
	<path class="st1" d="M137.9,189h-23.8c-38.4,0-72.9-24.2-86-60.3L0,51.2l77.5,28.1c36.1,13.1,60.3,47.6,60.3,86V189z M5.7,56.9
		l25.6,70.6c12.6,34.7,45.8,58,82.7,58h20.4v-20.4c0-36.9-23.3-70.2-58-82.7L5.7,56.9z"/>
	<path class="st1" d="M135.7,257.4l-0.5-2.4c-3.2-15.7,3.3-30.6,16.9-39.1c13.6-8.4,29.9-7.5,42.5,2.3l2,1.5L135.7,257.4z
		 M172.1,213.7c-6.8,0-13.2,2.2-18.1,5.2c-9.2,5.7-17.9,17.2-15.8,33l52.3-32.4C184.4,215.3,178,213.7,172.1,213.7z"/>
	<path class="st1" d="M136.6,257.4l-60.9-37.7l2-1.5c12.6-9.8,28.9-10.7,42.5-2.3c13.6,8.4,20.1,23.4,16.9,39.1L136.6,257.4z
		 M81.8,219.5l52.3,32.4c2.1-15.7-6.6-27.3-15.8-33C109.1,213.2,94.9,210.6,81.8,219.5z"/>
</g>
</svg>
