<?xml version="1.0" encoding="utf-8"?>
<!-- Generator: Adobe Illustrator 25.4.1, SVG Export Plug-In . SVG Version: 6.00 Build 0)  -->
<svg version="1.1" id="Capa_1" xmlns="http://www.w3.org/2000/svg" xmlns:xlink="http://www.w3.org/1999/xlink" x="0px" y="0px"
	 viewBox="0 0 581.7 300.8" style="enable-background:new 0 0 581.7 300.8;" xml:space="preserve">
<style type="text/css">
	.st0{fill:#D5B183;}
	.st1{fill:#E1D7CB;}
</style>
<g>
	<path class="st0" d="M16.4,118.4C6,136.4,0,157.1,0,179.4c0,67.1,54.4,121.4,121.4,121.4c39.8,0,75.2-19.2,97.3-48.8L16.4,118.4z"
		/>
	<path class="st0" d="M565.3,262.4c10.4-17.9,16.4-38.7,16.4-60.9c0-67.1-54.4-121.4-121.4-121.4c-39.8,0-75.2,19.2-97.3,48.8
		L565.3,262.4z"/>
	<path class="st1" d="M119.5,288.2c-56.1,0-101.8-45.7-101.8-101.8S63.4,84.6,119.5,84.6s101.8,45.7,101.8,101.8
		S175.6,288.2,119.5,288.2z M119.5,88.1c-54.2,0-98.4,44.1-98.4,98.4c0,54.2,44.1,98.4,98.4,98.4c54.2,0,98.4-44.1,98.4-98.4
		C217.9,132.2,173.7,88.1,119.5,88.1z"/>
	<path class="st1" d="M460.8,288.2c-56.1,0-101.8-45.7-101.8-101.8S404.6,84.6,460.8,84.6s101.8,45.7,101.8,101.8
		S516.9,288.2,460.8,288.2z M460.8,88.1c-54.2,0-98.4,44.1-98.4,98.4c0,54.2,44.1,98.4,98.4,98.4s98.4-44.1,98.4-98.4
		C559.1,132.2,515,88.1,460.8,88.1z"/>
	<path class="st1" d="M210.1,79c-0.7,0-1.4-0.5-1.6-1.2c-0.3-0.9,0.2-1.9,1.1-2.2l187.9-62.4c0.9-0.3,1.9,0.2,2.2,1.1
		c0.3,0.9-0.2,1.9-1.1,2.2L210.6,78.9C210.4,78.9,210.3,79,210.1,79z"/>
	<path class="st1" d="M444.9,190.1c-0.6,0-1.3-0.4-1.6-1L356.5,4.2c-0.4-0.9,0-1.9,0.8-2.3c0.9-0.4,1.9,0,2.3,0.8l86.8,184.9
		c0.4,0.9,0,1.9-0.8,2.3C445.4,190.1,445.2,190.1,444.9,190.1z"/>
	<path class="st1" d="M289.7,276.3c-0.7,0-1.3-0.4-1.6-1.1L179.3,2.4c-0.4-0.9,0.1-1.9,1-2.2c0.9-0.4,1.9,0.1,2.2,1L291.3,274
		c0.4,0.9-0.1,1.9-1,2.2C290.2,276.3,290,276.3,289.7,276.3z"/>
	<path class="st1" d="M255.3,190.1c-0.4,0-0.8-0.2-1.2-0.5c-0.7-0.6-0.8-1.7-0.1-2.4L379.4,50.5c0.6-0.7,1.7-0.7,2.4-0.1
		c0.7,0.6,0.8,1.7,0.1,2.4L256.5,189.6C256.2,189.9,255.7,190.1,255.3,190.1z"/>
	<path class="st1" d="M253.3,234.7c-17.2,0-31.2-14-31.2-31.2s14-31.2,31.2-31.2s31.2,14,31.2,31.2S270.5,234.7,253.3,234.7z
		 M253.3,175.9c-15.3,0-27.7,12.4-27.7,27.7s12.4,27.7,27.7,27.7c15.3,0,27.7-12.4,27.7-27.7S268.6,175.9,253.3,175.9z"/>
</g>
</svg>
