<?xml version="1.0" encoding="utf-8"?>
<!-- Generator: Adobe Illustrator 25.4.1, SVG Export Plug-In . SVG Version: 6.00 Build 0)  -->
<svg version="1.1" id="Capa_1" xmlns="http://www.w3.org/2000/svg" xmlns:xlink="http://www.w3.org/1999/xlink" x="0px" y="0px"
	 viewBox="0 0 329.2 307.7" style="enable-background:new 0 0 329.2 307.7;" xml:space="preserve">
<style type="text/css">
	.st0{fill:#D5B183;}
	.st1{fill:#E1D7CB;}
</style>
<g>
	<ellipse class="st0" cx="116.3" cy="145.6" rx="37.9" ry="38.6"/>
	<path class="st0" d="M10.7,4.8h308.2c4.4,0,8,3.6,8,8v29.3H2.7V12.8C2.7,8.3,6.3,4.8,10.7,4.8z"/>
	<path class="st0" d="M318.9,291.4H10.7c-4.4,0-8-3.6-8-8v-29.3h324.2v29.3C326.9,287.8,323.3,291.4,318.9,291.4z"/>
	<g>
		<path class="st1" d="M329.2,279.9c-3,8.8-9.3,12.3-18.3,11.6c-3.2-0.2-6.4,0-9.9,0c0,4.3-0.1,8.4,0,12.4c0.1,2.8-1.1,3.8-3.8,3.8
			c-13.5-0.1-27-0.1-40.5,0c-2.8,0-3.9-1.2-3.8-3.9c0.1-4,0-7.9,0-12.1c-58.8,0-117.5,0-176.5,0c0,4-0.1,7.9,0,11.8
			c0.1,3-1.2,4.2-4.2,4.1c-13.3-0.1-26.6-0.1-39.9,0c-3.1,0-4.2-1.2-4.1-4.2c0.2-3.8,0-7.7,0-12c-4.1,0-8,0-11.9,0
			C5.8,291.5,0,285.7,0,275.2C0,189,0,102.7,0,16.4C0,5.8,5.7,0.1,16.2,0.1C114.6,0.1,213,0.2,311.3,0c9,0,15,3.1,17.9,11.8
			C329.2,101.2,329.2,190.6,329.2,279.9z M164.5,286.4c49.3,0,98.6,0,147.9,0c8.3,0,11.7-3.3,11.7-11.6c0-86.1,0-172.1,0-258.2
			c0-8.1-3.4-11.4-11.6-11.4c-98.6,0-197.2,0-295.8,0C8.4,5.2,5.1,8.4,5.1,16.8c0,86,0,171.9,0,257.9c0,8.5,3.3,11.8,11.9,11.8
			C66.2,286.4,115.3,286.4,164.5,286.4z M295.7,291.8c-12.6,0-25.1,0-37.5,0c0,3.7,0,7.2,0,10.7c12.6,0,25,0,37.5,0
			C295.7,298.8,295.7,295.4,295.7,291.8z M33.5,291.6c0,3.7,0,7.2,0,10.7c12.6,0,25.1,0,37.5,0c0-3.7,0-7.2,0-10.7
			C58.5,291.6,46.2,291.6,33.5,291.6z"/>
		<path class="st1" d="M28.3,218.8c-3.5,0-6.6-0.1-9.7,0c-2.9,0.1-4.1-1.2-3.9-4.1c0.1-2.5,0.1-4.9,0-7.4c-0.1-2.8-0.2-5.4,3.8-5.2
			c0-37.7,0-75,0-112.7c-4.1,0.1-3.9-2.9-3.8-5.8c0.1-2.5,0.1-4.9,0-7.4c-0.1-2.4,1-3.5,3.5-3.5c3.2,0.1,6.4,0,10.2,0
			c0-1.2,0-2.4,0-3.5c0-12.2,0-24.4,0-36.7c0-3.8,0.5-4.3,4.3-4.3c88,0,176,0,263.9,0c3.9,0,4.3,0.5,4.3,4.6c0,75.2,0,150.5,0,225.7
			c0,3.9-0.6,4.5-4.5,4.5c-87.9,0-175.7,0-263.6,0c-3.9,0-4.5-0.6-4.5-4.5c0-12,0-24,0-36C28.3,221.5,28.3,220.4,28.3,218.8z
			 M295.6,258c0-74.9,0-149.6,0-224.2c-87.4,0-174.7,0-262,0c0,13.1,0,26,0,39.1c3.2,0,6.2,0,9.2,0c3.8,0,4.2,0.5,4.2,4.3
			c0,2.4-0.2,4.7,0,7.1c0.3,3-0.5,5.1-3.7,5.4c0,37.6,0,74.9,0,112.6c3.2-0.1,3.8,1.8,3.7,4.4c-0.1,2.8-0.1,5.6,0,8.4
			c0.1,2.8-1.1,3.9-3.8,3.8c-3.2-0.1-6.4,0-9.6,0c0,13.3,0,26.2,0,39.2C121,258,208.2,258,295.6,258z M19.5,78.1
			c0.3,2.2,0.2,5.6,0.9,5.7c4,1,3.1,3.9,3.1,6.4c0,37.2,0,74.4,0,111.6c0,2.9,0.2,5.7-3.7,5.9c0,2.1,0,3.9,0,5.7
			c7.4,0,14.6,0,21.9,0c0-2,0-3.8,0-6c-3.8,0.3-3.7-2.3-3.7-4.9c0-37.8,0-75.7,0-113.5c0-2.8,0.4-5,3.6-5.1c0-2.1,0-3.9,0-5.8
			C34.4,78.1,27.2,78.1,19.5,78.1z"/>
		<path class="st1" d="M116.1,207.9c-34.2-0.1-62.1-28.1-62-62.3c0.1-34.2,28-62,62.3-62c34.3,0,62.2,27.9,62.2,62.1
			C178.6,180.1,150.6,208,116.1,207.9z M116.3,88.7c-31.6,0.1-57.2,25.7-57.1,57.3c0.1,31.4,25.8,56.9,57.2,56.8
			c31.5,0,57.2-25.8,57.1-57.3C173.4,114.2,147.7,88.6,116.3,88.7z"/>
		<path class="st1" d="M238.1,83.6c14.6,0,29.1,0,43.7,0c4.2,0,4.7,0.4,4.7,4.5c0,6.7-0.1,13.5,0,20.2c0,3.1-1.2,4.2-4.2,4.2
			c-29.6-0.1-59.1,0-88.7,0c-2.8,0-4.1-1-4-4c0.1-7,0.1-13.9,0-20.9c-0.1-3.1,1.2-4.1,4.2-4.1C208.5,83.7,223.3,83.6,238.1,83.6z
			 M281.4,107.3c0-5.2-0.2-10.1,0.1-15c0.1-3-0.8-3.8-3.7-3.8c-26.5,0.1-52.9,0.1-79.4,0.1c-1.1,0-2.3,0.1-3.5,0.2
			c0,6.3,0,12.3,0,18.5C223.7,107.3,252.3,107.3,281.4,107.3z"/>
		<path class="st1" d="M237.8,207.9c-6.3-0.1-11.4-5.2-11.4-11.5c0-6.3,5.4-11.7,11.7-11.6c6.3,0.1,11.4,5.3,11.4,11.6
			C249.5,202.9,244.3,208,237.8,207.9z M244.4,196.4c0-3.6-2.9-6.5-6.5-6.5c-3.4,0-6.3,2.9-6.4,6.3c-0.1,3.6,2.8,6.5,6.4,6.6
			C241.6,202.9,244.4,200.1,244.4,196.4z"/>
		<path class="st1" d="M192.8,167.6c0-6.5,5.2-11.7,11.6-11.6c6.3,0.1,11.4,5.3,11.4,11.5c0,6.4-5.2,11.5-11.7,11.5
			C197.8,179,192.8,174,192.8,167.6z M204.4,174c3.5,0,6.4-2.9,6.4-6.3c0-3.5-3.1-6.6-6.6-6.6c-3.6,0.1-6.4,3.1-6.3,6.7
			C198,171.4,200.8,174.1,204.4,174z"/>
		<path class="st1" d="M237.9,179.1c-6.3-0.1-11.4-5.2-11.4-11.4c0-6.3,5.4-11.7,11.7-11.6c6.3,0.1,11.4,5.2,11.4,11.5
			C249.5,174.1,244.4,179.1,237.9,179.1z M237.9,174c3.7,0,6.5-2.8,6.5-6.5c0-3.5-2.9-6.3-6.3-6.4c-3.5,0-6.6,3.1-6.5,6.6
			C231.6,171.2,234.4,174,237.9,174z"/>
		<path class="st1" d="M271.7,179.1c-6.4,0-11.4-5-11.4-11.4c0-6.5,5.1-11.7,11.5-11.7c6.3,0,11.4,5.1,11.5,11.4
			C283.3,174,278.2,179.1,271.7,179.1z M271.7,174c3.5,0,6.4-2.8,6.5-6.2c0.1-3.5-2.9-6.6-6.5-6.7c-3.6,0-6.5,3-6.4,6.6
			C265.4,171.3,268.2,174,271.7,174z"/>
		<path class="st1" d="M192.8,196.4c0-6.4,5.2-11.7,11.6-11.6c6.2,0.1,11.4,5.4,11.4,11.6c0,6.3-5.1,11.4-11.4,11.5
			C197.9,208,192.8,202.9,192.8,196.4z M197.9,196.4c0,3.6,2.6,6.4,6.2,6.5c3.6,0.1,6.7-2.8,6.7-6.4c0-3.5-3.1-6.6-6.6-6.5
			C200.7,190,197.9,192.8,197.9,196.4z"/>
		<path class="st1" d="M204.2,127.3c6.5,0,11.7,5.2,11.6,11.6c-0.1,6.3-5.2,11.4-11.5,11.4c-6.5,0-11.6-5.1-11.5-11.6
			C192.9,132.3,197.9,127.3,204.2,127.3z M197.9,138.9c0,3.5,2.9,6.3,6.3,6.4c3.5,0,6.6-3.1,6.6-6.6c-0.1-3.6-3.1-6.5-6.7-6.3
			C200.5,132.5,197.8,135.4,197.9,138.9z"/>
		<path class="st1" d="M271.8,207.9c-6.5,0-11.6-5.1-11.5-11.6c0-6.3,5.1-11.4,11.4-11.5c6.3,0,11.6,5.3,11.6,11.7
			C283.2,202.8,278.1,207.9,271.8,207.9z M271.6,202.8c3.6,0,6.6-2.9,6.6-6.5c0-3.4-2.9-6.3-6.4-6.4c-3.6-0.1-6.5,2.9-6.5,6.5
			C265.4,200,268.1,202.8,271.6,202.8z"/>
		<path class="st1" d="M249.5,139c-0.1,6.3-5.2,11.3-11.5,11.3c-6.4,0-11.7-5.3-11.6-11.7c0.1-6.3,5.3-11.3,11.6-11.3
			C244.5,127.3,249.6,132.5,249.5,139z M244.4,138.9c0-3.5-2.7-6.4-6.2-6.5c-3.6-0.1-6.7,2.7-6.7,6.3c0,3.6,3,6.6,6.6,6.5
			C241.6,145.2,244.4,142.4,244.4,138.9z"/>
		<path class="st1" d="M271.6,150.3c-6.5-0.1-11.5-5.2-11.3-11.8c0.1-6.4,5.2-11.3,11.6-11.2c6.4,0.1,11.4,5.1,11.4,11.4
			C283.3,145.2,278.1,150.4,271.6,150.3z M271.8,132.4c-3.5,0-6.4,2.7-6.5,6.2c-0.1,3.6,2.7,6.7,6.3,6.7c3.5,0,6.6-3,6.5-6.6
			C278.2,135.3,275.3,132.4,271.8,132.4z"/>
		<path class="st1" d="M139.8,145.8c0,13-10.6,23.5-23.5,23.4c-12.8-0.1-23.2-10.6-23.3-23.4c-0.1-12.9,10.4-23.5,23.4-23.5
			C129.3,122.3,139.8,132.8,139.8,145.8z M116.3,127.4c-10.2,0-18.4,8.3-18.4,18.4c0,10.1,8.4,18.4,18.5,18.4
			c10.1,0,18.4-8.3,18.4-18.4C134.7,135.6,126.5,127.4,116.3,127.4z"/>
		<path class="st1" d="M150.8,177.9c-0.3,0.5-0.6,1.4-1.2,1.7c-0.7,0.3-2.1,0.5-2.6,0c-2.7-2.4-5.2-5-7.6-7.7
			c-0.4-0.5-0.3-2.1,0.2-2.5c0.6-0.6,2.3-1.1,2.7-0.8c2.9,2.5,5.5,5.2,8.2,7.9C150.6,176.8,150.6,177.2,150.8,177.9z"/>
		<path class="st1" d="M91.5,123.4c-0.9-0.5-1.7-0.7-2.2-1.2c-2.2-2.1-4.4-4-6.3-6.4c-0.7-0.8-0.2-2.6-0.3-3.9
			c1.2,0.1,2.8-0.2,3.7,0.5c2.3,1.9,4.4,4.1,6.3,6.3c0.6,0.7,0.8,2,0.6,2.8C93.3,122.3,92.2,122.8,91.5,123.4z"/>
		<path class="st1" d="M118.9,105.5c0,1.5,0.3,3.1-0.1,4.4c-0.3,1.1-1.6,1.9-2.4,2.8c-0.9-0.9-2.4-1.7-2.5-2.7
			c-0.3-3.1-0.3-6.2,0-9.3c0.1-1,1.6-1.8,2.5-2.7c0.8,0.9,2.1,1.6,2.3,2.6C119.2,102.2,118.9,103.9,118.9,105.5
			C118.9,105.5,118.9,105.5,118.9,105.5z"/>
		<path class="st1" d="M75.9,148.2c-1.6,0-3.3,0.3-4.8-0.1c-0.9-0.3-2.1-1.5-2.2-2.4c-0.1-0.7,1.3-2.2,2-2.2c3.4-0.2,6.8-0.2,10.2,0
			c0.8,0.1,2.2,1.6,2.1,2.2c-0.2,0.9-1.3,2.2-2.3,2.4C79.4,148.5,77.6,148.2,75.9,148.2z"/>
		<path class="st1" d="M156.7,148.2c-1.6,0-3.3,0.3-4.8-0.1c-1-0.3-1.8-1.5-2.6-2.2c0.8-0.9,1.5-2.4,2.4-2.5c3.3-0.3,6.6-0.3,9.9,0
			c0.9,0.1,2.2,1.6,2.2,2.4c0,0.8-1.4,2.1-2.3,2.3C160,148.5,158.3,148.2,156.7,148.2z"/>
		<path class="st1" d="M94,170.8c-0.5,0.8-0.8,1.6-1.3,2.1c-2.1,2.1-4.1,4.4-6.4,6.3c-0.8,0.6-2.4,0.2-3.6,0.3
			c0-1.2-0.4-2.9,0.2-3.7c1.9-2.4,4.2-4.6,6.5-6.6c0.7-0.6,2.2-0.6,3.2-0.4C93.2,169,93.6,170.1,94,170.8z"/>
		<path class="st1" d="M113.8,185.8c0-1.4-0.3-2.9,0.1-4.1c0.4-1.1,1.5-1.9,2.3-2.8c0.9,0.9,2.4,1.7,2.5,2.6c0.3,3,0.3,6.2,0,9.2
			c-0.1,1-1.6,1.8-2.5,2.7c-0.8-0.9-2.1-1.7-2.4-2.8C113.5,189,113.8,187.4,113.8,185.8z"/>
		<path class="st1" d="M141.6,123.1c-2.1,0-3.5-2.1-2.3-3.5c2.4-2.8,5.1-5.4,7.9-7.9c0.4-0.4,2.1-0.2,2.5,0.3c0.6,0.6,1,2.3,0.6,2.8
			c-2.5,2.8-5.3,5.5-8,8.1C142.2,123.1,141.8,123.1,141.6,123.1z"/>
	</g>
</g>
</svg>
