<?xml version="1.0" encoding="utf-8"?>
<!-- Generator: Adobe Illustrator 25.4.1, SVG Export Plug-In . SVG Version: 6.00 Build 0)  -->
<svg version="1.1" id="Capa_1" xmlns="http://www.w3.org/2000/svg" xmlns:xlink="http://www.w3.org/1999/xlink" x="0px" y="0px"
	 viewBox="0 0 205.6 321.8" style="enable-background:new 0 0 205.6 321.8;" xml:space="preserve">
<style type="text/css">
	.st0{fill:#D5B183;}
	.st1{fill:#E1D7CB;}
</style>
<g>
	<path class="st0" d="M6,183.6c-5.9,16.6-7.7,34.9-4.3,53.5C12.1,293.3,66,330.4,122.2,320c33.3-6.2,60-27.7,73.9-55.9L6,183.6z"/>
	<g>
		<path class="st1" d="M96.7,0c3.7,0.7,7.5,1.2,11.2,2.1c30.7,7.6,51,26.6,61.8,56c2,5.5,4.1,11,6,16.6c2.5,7,0,12.1-7,14.7
			c-2.8,1.1-5.6,2.1-8.4,3c-6,2-11.3-0.4-13.5-6.3c-2.8-7.3-5.2-14.8-8.2-22c-9.2-22.4-32.2-35.5-56.4-32.4
			c-23.2,3-42.2,21.9-45.5,45.4c-1.3,9.3-0.1,18.3,3.2,27.1c3.8,10.1,7.5,20.3,11.1,30.5c0.8,2.3,1.9,3.1,4.4,3.1
			c44-0.1,88-0.1,131.9,0c3.7,0,7.7,0.8,10.9,2.5c5,2.6,7.4,7.4,7.4,13.1c-0.1,24.3,0.2,48.5-0.7,72.8c-0.7,17.4-7.2,33.4-17.2,47.7
			c-15.1,21.4-35.4,35.2-61,40.9c-21.1,4.7-41.7,2.7-61.4-6c-23.5-10.4-40.6-27.5-51.4-50.8C7.7,244.4,5.1,230,5,215.2
			c-0.1-19.8,0-39.6,0-59.5c0-10.1,3.8-15.2,13.9-18.1c-0.4-1.1-0.7-2.3-1.1-3.4c-3.5-10.4-8-20.7-10.4-31.3
			C-1.7,63,18.5,23.7,55.9,7.1c8-3.5,16.3-5.7,25-6.6c0.9-0.1,1.8-0.3,2.7-0.5C88,0,92.3,0,96.7,0z M105.7,144.1
			c-28.9,0-57.7,0-86.6,0c-6.9,0-8.8,1.8-8.8,8.6c0,19.7-0.1,39.5,0.1,59.2c0.1,6.5,0.3,13,1.3,19.4c3.7,24.3,15.4,44.3,34.6,59.5
			c21.7,17.2,46.4,23.7,73.8,19.5c24.3-3.7,44.1-15.6,59.5-34.7c14.5-18,20.9-38.9,20.8-61.9c-0.1-20.2,0-40.4,0-60.5
			c0-7.7-1.6-9.3-9.4-9.3C162.5,144.1,134.1,144.1,105.7,144.1z M170,83.1c1.6-0.5,2.4-2.2,1.8-3.8c-3-8.1-6.9-18.3-10-25.2
			c-9.6-21.6-27.3-39.6-50.3-45.5C80.7,0.7,49.2,9.7,28.8,34.1C14.7,51,7.2,75.3,11.7,97c2.8,13.5,8.4,26.5,12.8,39.6
			c0.2,0.6,1.1,1.4,1.7,1.4c3.5,0.1,15.7-0.7,19.4-0.7c-0.4-1.3-0.7-2.2-1-3c-3.3-9-6.5-18-9.8-27c-6-16.3-6.4-30.2,0.4-46.3
			c12.9-30.6,47.6-43.3,78.3-30.8c18.1,7.3,25.6,16.9,32.2,35.2c2,5.5,5.5,13.9,7.9,20.3c0.6,1.5,2.2,2.2,3.7,1.7
			C160.9,86.1,166.3,84.3,170,83.1z"/>
		<path class="st1" d="M100.4,232c-12.9-4.2-17.3-15.1-15.4-24.7c1.8-9.4,10.5-16.4,20.2-16.5c9.8-0.1,18.7,7,20.5,16.5
			c1.9,9.5-2.4,20.4-15.4,24.7c0,5.1,0,10.2,0,15.3c0,4-1.8,6.1-4.9,6.1c-3.2,0-4.9-2.1-5-6.1C100.4,242.3,100.4,237.2,100.4,232z
			 M105.2,227.1c8.6,0.1,15.5-6.6,15.8-15.2c0.2-8.6-6.9-15.9-15.6-15.8c-8.5,0-15.5,6.9-15.6,15.4C89.7,220,96.6,227,105.2,227.1z"
			/>
	</g>
</g>
</svg>
