<?xml version="1.0" encoding="utf-8"?>
<!-- Generator: Adobe Illustrator 25.4.1, SVG Export Plug-In . SVG Version: 6.00 Build 0)  -->
<svg version="1.1" id="Capa_1" xmlns="http://www.w3.org/2000/svg" xmlns:xlink="http://www.w3.org/1999/xlink" x="0px" y="0px"
	 viewBox="0 0 529.3 270.2" style="enable-background:new 0 0 529.3 270.2;" xml:space="preserve">
<style type="text/css">
	.st0{fill:#D5B183;}
	.st1{fill:#E1D7CB;}
</style>
<g>
	<path class="st0" d="M309.9,267.9h-54.1c-45,0-81.6-36-81.6-80.4v0c0-44.4,36.5-80.4,81.6-80.4h149.6c29.4,0,53.2-23.5,53.2-52.4v0
		c0-29-23.8-52.4-53.2-52.4h-40l-72.8,0l24.3,0c29.4,0,53.2,23.5,53.2,52.4v0c0,29-23.8,52.4-53.2,52.4H167.2
		c-45,0-81.6,36-81.6,80.4v0c0,44.4,36.5,80.4,81.6,80.4h105.2"/>
	<path class="st1" d="M354.7,270.2H245.3c-29.6,0-53.7-24.1-53.7-53.7s24.1-53.7,53.7-53.7h200.4c43.6,0,79-35.5,79-79
		s-35.5-79-79-79H246.1c-1.3,0-2.3-1.1-2.3-2.3s1.1-2.3,2.3-2.3h199.5c46.2,0,83.7,37.6,83.7,83.7s-37.6,83.7-83.7,83.7H245.3
		c-27,0-49,22-49,49s22,49,49,49h109.4c1.3,0,2.3,1.1,2.3,2.3C357,269.2,356,270.2,354.7,270.2z"/>
	<path class="st1" d="M344.5,270.2h-103c-45.3,0-82.2-37.1-82.2-82.7s36.9-82.7,82.2-82.7h186.6c27.4,0,49.7-22.5,49.7-50.1
		c0-27.6-22.3-50.1-49.7-50.1H246.1c-1.3,0-2.3-1.1-2.3-2.3s1.1-2.3,2.3-2.3h181.9c30,0,54.4,24.6,54.4,54.8s-24.4,54.8-54.4,54.8
		H241.5c-42.7,0-77.5,35-77.5,78c0,43,34.8,78,77.5,78h103c1.3,0,2.3,1.1,2.3,2.3C346.8,269.2,345.8,270.2,344.5,270.2z"/>
	<path class="st1" d="M257.8,270.2h-103c-45.3,0-82.2-37.1-82.2-82.7s36.9-82.7,82.2-82.7h186.6c27.4,0,49.7-22.5,49.7-50.1
		c0-27.6-22.3-50.1-49.7-50.1h-95.2c-1.3,0-2.3-1.1-2.3-2.3s1.1-2.3,2.3-2.3h95.2c30,0,54.4,24.6,54.4,54.8s-24.4,54.8-54.4,54.8
		H154.8c-42.7,0-77.5,35-77.5,78c0,43,34.8,78,77.5,78h103c1.3,0,2.3,1.1,2.3,2.3C260.2,269.2,259.1,270.2,257.8,270.2z"/>
	<path class="st1" d="M185.2,270.2h-103C36.9,270.2,0,233.1,0,187.5s36.9-82.7,82.2-82.7h186.6c27.4,0,49.7-22.5,49.7-50.1
		c0-27.6-22.3-50.1-49.7-50.1h-95.2c-1.3,0-2.3-1.1-2.3-2.3s1.1-2.3,2.3-2.3h95.2c30,0,54.4,24.6,54.4,54.8s-24.4,54.8-54.4,54.8
		H82.2c-42.7,0-77.5,35-77.5,78c0,43,34.8,78,77.5,78h103c1.3,0,2.3,1.1,2.3,2.3C187.6,269.2,186.5,270.2,185.2,270.2z"/>
	<path class="st1" d="M148.6,4.8h-43.2c-1.3,0-2.3-1.1-2.3-2.3s1.1-2.3,2.3-2.3h43.2c1.3,0,2.3,1.1,2.3,2.3S149.9,4.8,148.6,4.8z"/>
	<path class="st1" d="M77.1,4.8h-9.6c-1.3,0-2.3-1.1-2.3-2.3s1.1-2.3,2.3-2.3h9.6c1.3,0,2.3,1.1,2.3,2.3S78.4,4.8,77.1,4.8z"/>
	<path class="st1" d="M476.5,270.2h-9.6c-1.3,0-2.3-1.1-2.3-2.3c0-1.3,1.1-2.3,2.3-2.3h9.6c1.3,0,2.3,1.1,2.3,2.3
		C478.8,269.2,477.8,270.2,476.5,270.2z"/>
	<path class="st1" d="M444.6,270.2h-54.7c-1.3,0-2.3-1.1-2.3-2.3c0-1.3,1.1-2.3,2.3-2.3h54.7c1.3,0,2.3,1.1,2.3,2.3
		C446.9,269.2,445.9,270.2,444.6,270.2z"/>
</g>
</svg>
