<?xml version="1.0" encoding="utf-8"?>
<!-- Generator: Adobe Illustrator 25.4.1, SVG Export Plug-In . SVG Version: 6.00 Build 0)  -->
<svg version="1.1" id="Capa_1" xmlns="http://www.w3.org/2000/svg" xmlns:xlink="http://www.w3.org/1999/xlink" x="0px" y="0px"
	 viewBox="0 0 555.3 305.4" style="enable-background:new 0 0 555.3 305.4;" xml:space="preserve">
<style type="text/css">
	.st0{fill:#D5B183;}
	.st1{fill:#E1D7CB;}
</style>
<g>
	<path class="st0" d="M346.3,301.9H209c-53.3,0-96.5-17.6-96.5-39.4l0,0h330.3l0,0C442.8,284.2,399.6,301.9,346.3,301.9z"/>
	<path class="st1" d="M341.6,274.8c-11.5,0-23-1.6-34.4-4.8c-32.6-9.2-59.7-30.5-76.2-60c-16.6-29.5-20.6-63.8-11.5-96.4
		c16.1-57.4,70.9-96.1,130.3-92.2l4.3,0.3l-3,3.1c-13.7,14.4-23.8,32.1-29.2,51.3c-18.3,65.2,19.8,133.1,84.9,151.4
		c8.2,2.3,16.7,3.8,25.2,4.3l4.3,0.3l-3,3.1C409,261,375.8,274.8,341.6,274.8z M341.5,25.3c-54.3,0-103.2,36.6-118.1,89.5
		c-8.9,31.6-4.9,64.7,11.1,93.3c16,28.6,42.3,49.2,73.8,58.1c42.5,12,87.8,0.3,119.2-30.6c-7.4-0.7-14.7-2.1-21.8-4.1
		c-67.3-18.9-106.6-89.1-87.7-156.4h0c5.2-18.4,14.5-35.5,27.2-49.8C344,25.3,342.7,25.3,341.5,25.3z"/>
	<g>
		<g>
			<path class="st1" d="M375.5,246.5c1.3,2.7,5.4,0.6,4.1-2.1C378.3,241.8,374.2,243.9,375.5,246.5L375.5,246.5z"/>
		</g>
		<g>
			<path class="st1" d="M371.2,233.6c1.3,2.7,5.4,0.6,4.1-2.1C374,228.9,369.9,230.9,371.2,233.6L371.2,233.6z"/>
		</g>
		<g>
			<path class="st1" d="M358.9,224.6c1.3,2.7,5.4,0.6,4.1-2.1C361.7,219.9,357.5,221.9,358.9,224.6L358.9,224.6z"/>
		</g>
		<g>
			<path class="st1" d="M356.5,240.2c1.3,2.7,5.4,0.6,4.1-2.1C359.3,235.5,355.2,237.5,356.5,240.2L356.5,240.2z"/>
		</g>
		<g>
			<path class="st1" d="M362,252.6c1.3,2.7,5.4,0.6,4.1-2.1C364.8,247.9,360.7,249.9,362,252.6L362,252.6z"/>
		</g>
		<g>
			<path class="st1" d="M347.6,255.4c1.3,2.7,5.4,0.6,4.1-2.1C350.4,250.7,346.2,252.8,347.6,255.4L347.6,255.4z"/>
		</g>
		<g>
			<path class="st1" d="M341.8,238.1c1.3,2.7,5.4,0.6,4.1-2.1C344.6,233.4,340.5,235.5,341.8,238.1L341.8,238.1z"/>
		</g>
	</g>
	<path class="st1" d="M338.4,39.2c-0.5,0-1-0.2-1.4-0.5l-13.6-12.7c-0.8-0.8-0.9-2-0.1-2.8c0.8-0.8,2-0.9,2.8-0.1l13.6,12.7
		c0.8,0.8,0.9,2,0.1,2.8C339.5,38.9,338.9,39.2,338.4,39.2z"/>
	<path class="st1" d="M407.6,250.5c-0.9,0-1.8-0.7-2-1.6l-3.6-18.3c-0.2-1.1,0.5-2.1,1.6-2.4c1.1-0.2,2.1,0.5,2.4,1.6l3.6,18.3
		c0.2,1.1-0.5,2.1-1.6,2.4C407.8,250.5,407.7,250.5,407.6,250.5z"/>
	<circle class="st0" cx="172.9" cy="136.7" r="76.9"/>
	<path class="st0" d="M65.1,10.1l36.6,29.8c17.5,14.3,42.2,16,61.5,4.4l11.3-6.8l-6.8-11.3C156.1,6.7,133.6-3.3,111.4,1L65.1,10.1z"
		/>
	<path class="st1" d="M200.9,50c-6.7,0-13.4-1.7-19.4-5.2l-9.6-5.5l5.5-9.6c8.2-14.1,24.4-21.6,40.4-18.8l36,6.4l-28,23.6
		C218.8,47,209.9,50,200.9,50z M177.5,37.8l6.1,3.5c12.6,7.3,28.6,5.9,39.8-3.5l21.4-18l-27.6-4.9c-14.4-2.6-28.9,4.2-36.2,16.8
		L177.5,37.8z"/>
	<path class="st1" d="M179.6,207.3c-14.9,0-29.5-4.2-42.4-12.5c-17.8-11.4-30-29-34.5-49.6c-4.5-20.6-0.7-41.7,10.6-59.5
		c11.4-17.8,29-30,49.6-34.6c42.5-9.3,84.7,17.7,94,60.2l0,0c4.5,20.6,0.7,41.7-10.6,59.5c-11.4,17.8-29,30-49.6,34.5
		C191,206.7,185.3,207.3,179.6,207.3z M179.8,53.4c-5.3,0-10.7,0.6-16.1,1.7c-19.5,4.3-36.2,15.9-47,32.8
		c-10.8,16.9-14.4,36.9-10.1,56.4c4.3,19.5,15.9,36.2,32.8,47c16.9,10.8,36.9,14.4,56.4,10.1c19.5-4.3,36.2-15.9,47-32.8
		c10.8-16.9,14.4-36.9,10.1-56.4l0,0C245.3,77.3,214.2,53.4,179.8,53.4z"/>
	<g>
		<g>
			<path class="st1" d="M149.4,180.6c3.2-0.7,2.1-5.7-1.1-5C145.1,176.3,146.2,181.3,149.4,180.6L149.4,180.6z"/>
		</g>
		<g>
			<path class="st1" d="M134.4,181.7c3.2-0.7,2.1-5.7-1.1-5C130.1,177.4,131.2,182.4,134.4,181.7L134.4,181.7z"/>
		</g>
		<g>
			<path class="st1" d="M121.4,192.6c3.2-0.7,2.1-5.7-1.1-5C117.1,188.3,118.2,193.3,121.4,192.6L121.4,192.6z"/>
		</g>
		<g>
			<path class="st1" d="M137.5,199.3c3.2-0.7,2.1-5.7-1.1-5C133.2,195,134.3,200,137.5,199.3L137.5,199.3z"/>
		</g>
		<g>
			<path class="st1" d="M152.2,196.7c3.2-0.7,2.1-5.7-1.1-5C148,192.5,149,197.4,152.2,196.7L152.2,196.7z"/>
		</g>
		<g>
			<path class="st1" d="M151.4,213c3.2-0.7,2.1-5.7-1.1-5C147.1,208.7,148.2,213.7,151.4,213L151.4,213z"/>
		</g>
		<g>
			<path class="st1" d="M131.3,214.5c3.2-0.7,2.1-5.7-1.1-5C127,210.2,128.1,215.2,131.3,214.5L131.3,214.5z"/>
		</g>
	</g>
	<path class="st0" d="M439.6,86.5c0.1-0.7,0.2-1.4,0.1-2.2l-0.8-8.5c-0.2-1.8-1.8-3.1-3.5-2.9l-9.1,0.9c-0.9,0.1-1.8,0.3-2.6,0.7
		c-16.5-7.9-36.9-3.9-49,10.9l-22.8,27.7c-12.4,15.1-12.1,36.5-0.3,51.2c0,0.1,0,0.3,0,0.4l0.8,8.5c0.2,1.8,1.8,3.1,3.5,2.9l7.9-0.8
		c17.2,12,41.1,9,54.7-7.5l22.8-27.7C454.4,124.1,453.3,101.2,439.6,86.5z"/>
	<path class="st1" d="M392.4,194.6c-8.9,0-17.9-2.5-25.7-7.8l-7.9,0.8c-1.5,0.2-2.9-0.3-4-1.2c-1.1-0.9-1.8-2.3-2-3.7l-0.9-9.2
		c-13.1-16.9-12.8-41,0.8-57.6l24.7-30.1c13.3-16.3,35.8-21.4,54.8-12.7c0.8-0.3,1.7-0.5,2.5-0.6l9.8-1c1.5-0.1,2.9,0.3,4,1.2
		c1.1,0.9,1.8,2.3,2,3.7l0.9,9.2c0.1,0.6,0.1,1.2,0,1.9c15.2,16.8,15.8,42.5,1.3,60.1l-24.7,30.1
		C419.2,188.8,405.8,194.6,392.4,194.6z M367.3,182.7c0.4,0,0.8,0.1,1.2,0.4c17.9,12.5,42.8,9.1,56.6-7.8l24.7-30.1
		c13.4-16.3,12.6-40.1-1.8-55.5c-0.4-0.5-0.6-1.1-0.5-1.7c0.1-0.6,0.1-1.2,0.1-1.8l-0.9-9.2c0-0.4-0.2-0.8-0.5-1
		c-0.3-0.3-0.7-0.4-1.1-0.3l-9.8,1c-0.7,0.1-1.4,0.3-2.1,0.6c-0.5,0.2-1.2,0.2-1.7,0c-17.5-8.4-38.4-3.8-50.7,11.3l-24.7,30.1
		c-12.6,15.3-12.7,37.6-0.3,53c0.3,0.3,0.4,0.7,0.4,1.2l0.9,9.6c0,0.4,0.2,0.8,0.5,1c0.3,0.3,0.7,0.4,1.1,0.3l8.6-0.8
		C367.2,182.7,367.2,182.7,367.3,182.7z"/>
	<path class="st0" d="M402.9,45l13.7,15.1c6.6,7.2,17,9.6,26,5.8l5.3-2.2l-2.2-5.3c-3.7-9-12.7-14.8-22.5-14.3L402.9,45z"/>
	<path class="st1" d="M448.8,66.2l-7.1-3c-9.8-4.1-16-13.9-15.5-24.5l1.1-24.7l18.2,16.7c7.8,7.1,10.3,18.5,6.3,28.3L448.8,66.2z
		 M430.9,22.9L430.1,39c-0.4,8.9,4.8,17.2,13.1,20.6l3.4,1.4l1.4-3.4c3.4-8.2,1.3-17.8-5.3-23.8L430.9,22.9z"/>
	<g>
		<g>
			<path class="st1" d="M425.7,156.9c1.6,1.3,3.6-1.2,2-2.5C426.2,153.1,424.1,155.6,425.7,156.9L425.7,156.9z"/>
		</g>
		<g>
			<path class="st1" d="M419.3,149.9c1.6,1.3,3.6-1.2,2-2.5C419.7,146.1,417.7,148.6,419.3,149.9L419.3,149.9z"/>
		</g>
		<g>
			<path class="st1" d="M408.8,147.7c1.6,1.3,3.6-1.2,2-2.5C409.3,143.9,407.2,146.4,408.8,147.7L408.8,147.7z"/>
		</g>
		<g>
			<path class="st1" d="M411.8,158.3c1.6,1.3,3.6-1.2,2-2.5C412.2,154.5,410.2,157,411.8,158.3L411.8,158.3z"/>
		</g>
		<g>
			<path class="st1" d="M418.8,164.7c1.6,1.3,3.6-1.2,2-2.5C419.2,160.9,417.2,163.3,418.8,164.7L418.8,164.7z"/>
		</g>
		<g>
			<path class="st1" d="M410.4,170.6c1.6,1.3,3.6-1.2,2-2.5C410.9,166.8,408.8,169.3,410.4,170.6L410.4,170.6z"/>
		</g>
		<g>
			<path class="st1" d="M401.8,161.2c1.6,1.3,3.6-1.2,2-2.5C402.3,157.4,400.2,159.9,401.8,161.2L401.8,161.2z"/>
		</g>
	</g>
	<path class="st1" d="M365.2,305.4h-175c-59.7,0-108.3-48.6-108.3-108.3V118h391.6v79.2C473.5,256.9,424.9,305.4,365.2,305.4z
		 M85.9,122v75.1c0,57.5,46.8,104.3,104.3,104.3h175c57.5,0,104.3-46.8,104.3-104.3V122H85.9z"/>
	<path class="st1" d="M85.9,205.5H32.5C14.6,205.5,0,190.9,0,173v-4c0-17.9,14.6-32.5,32.5-32.5h53.3V205.5z M32.5,140.5
		C16.8,140.5,4,153.3,4,169v4c0,15.7,12.8,28.5,28.5,28.5h49.3v-61H32.5z"/>
	<path class="st1" d="M522.8,205.5h-53.3v-69.1h53.3c17.9,0,32.5,14.6,32.5,32.5v4C555.3,190.9,540.7,205.5,522.8,205.5z
		 M473.5,201.5h49.3c15.7,0,28.5-12.8,28.5-28.5v-4c0-15.7-12.8-28.5-28.5-28.5h-49.3V201.5z"/>
</g>
</svg>
