<?xml version="1.0" encoding="utf-8"?>
<!-- Generator: Adobe Illustrator 25.4.1, SVG Export Plug-In . SVG Version: 6.00 Build 0)  -->
<svg version="1.1" id="Capa_1" xmlns="http://www.w3.org/2000/svg" xmlns:xlink="http://www.w3.org/1999/xlink" x="0px" y="0px"
	 viewBox="0 0 610.1 271.1" style="enable-background:new 0 0 610.1 271.1;" xml:space="preserve">
<style type="text/css">
	.st0{fill:#D5B183;}
	.st1{fill:#E1D7CB;}
</style>
<g>
	<path class="st0" d="M263.1,15.5v170.3h0c83.4,0,154.6-76.6,168.6-181.2H263.1L263.1,15.5z"/>
	<path class="st1" d="M443.7,116.3c-0.8,0-1.6-0.4-2-1.1c-0.7-1.1-0.3-2.6,0.8-3.2l38-22.8c0.4-0.2,0.8-0.3,1.2-0.3
		c34.6,0,66.2-19,82.4-49.5l5.2-9.8c0.2-0.3,0.4-0.5,0.6-0.7l30.9-24.1H4.7v35.1c0,2.1,0.9,4,2.5,5.4c1.6,1.4,3.7,2,5.7,1.6
		l194.5-18c1.1-0.1,2.2,0.6,2.5,1.7l5.7,21.1c6.5,24.1,23.3,43.6,46.1,53.5c1.2,0.5,1.7,1.9,1.2,3.1c-0.5,1.2-1.9,1.7-3.1,1.2
		c-24.1-10.5-41.9-31.2-48.7-56.6l-5.2-19.2L13.4,51.5C10.2,52,6.7,51,4.1,48.7c-2.6-2.2-4.1-5.5-4.1-9V2.3C0,1.1,1.1,0,2.3,0h605.4
		c1,0,1.9,0.6,2.2,1.6s0,2-0.8,2.6l-35.9,27.9l-5,9.4c-17,31.8-49.9,51.7-85.9,51.9l-37.4,22.4C444.5,116.2,444.1,116.3,443.7,116.3
		z"/>
	<path class="st1" d="M260.6,271.1h-2.3V0h207.9l-19.4,114C431.3,205,353,271.1,260.6,271.1z M263,4.7v261.7
		c89-1.1,164.2-65.2,179.2-153.2L460.7,4.7H263z"/>
	<path class="st1" d="M570.8,33.5c-1.3,0-2.3-1.1-2.3-2.3V6.9c0-1.3,1.1-2.3,2.3-2.3c1.3,0,2.3,1.1,2.3,2.3v24.2
		C573.1,32.4,572.1,33.5,570.8,33.5z"/>
	<circle class="st1" cx="527.7" cy="19" r="8.1"/>
	<path class="st1" d="M305,265.7c-1.2,0-2.2-0.9-2.3-2.1l-15-117.7c-0.2-1.3,0.7-2.5,2-2.6c1.3-0.2,2.5,0.7,2.6,2l15,117.7
		c0.2,1.3-0.7,2.5-2,2.6C305.2,265.7,305.1,265.7,305,265.7z"/>
	<path class="st1" d="M362.1,241.1c-1,0-2-0.7-2.3-1.7l-30.2-105.8c-0.4-1.2,0.4-2.5,1.6-2.9c1.2-0.3,2.5,0.4,2.9,1.6l30.2,105.8
		c0.4,1.2-0.4,2.5-1.6,2.9C362.5,241.1,362.3,241.1,362.1,241.1z"/>
	<path class="st1" d="M418.6,183.7c-0.7,0-1.4-0.3-1.9-0.9l-52.3-69c-0.8-1-0.6-2.5,0.5-3.3c1-0.8,2.5-0.6,3.3,0.5l52.3,69
		c0.8,1,0.6,2.5-0.5,3.3C419.6,183.6,419.1,183.7,418.6,183.7z"/>
	<path class="st1" d="M441.6,114.2c-0.4,0-0.9-0.1-1.3-0.4L395,85.1c-1.1-0.7-1.4-2.1-0.7-3.2c0.7-1.1,2.1-1.4,3.2-0.7l45.4,28.8
		c1.1,0.7,1.4,2.1,0.7,3.2C443.2,113.8,442.4,114.2,441.6,114.2z"/>
	<path class="st1" d="M455.9,49.1c-0.2,0-0.4,0-0.6-0.1l-33.4-8.8c-1.3-0.3-2-1.6-1.7-2.9c0.3-1.3,1.6-2,2.9-1.7l33.4,8.8
		c1.3,0.3,2,1.6,1.7,2.9C457.9,48.4,456.9,49.1,455.9,49.1z"/>
</g>
</svg>
