<?xml version="1.0" encoding="utf-8"?>
<!-- Generator: Adobe Illustrator 25.4.1, SVG Export Plug-In . SVG Version: 6.00 Build 0)  -->
<svg version="1.1" id="Capa_1" xmlns="http://www.w3.org/2000/svg" xmlns:xlink="http://www.w3.org/1999/xlink" x="0px" y="0px"
	 viewBox="0 0 351.5 310.5" style="enable-background:new 0 0 351.5 310.5;" xml:space="preserve">
<style type="text/css">
	.st0{fill:#D5B183;}
	.st1{fill:#E1D7CB;}
</style>
<g>
	<path class="st0" d="M7.6,71.2L7.6,71.2c98.2-73.7,234.9-74.4,333.9-1.7l2.4,1.7v42.1l-2.4-1.7c-99-72.6-235.7-71.9-333.9,1.7l0,0
		V71.2z"/>
	<path class="st0" d="M54.6,151.7L54.6,151.7c70.7-73.7,169.2-74.4,240.5-1.7l1.7,1.7v42.1l-1.7-1.7
		c-71.3-72.6-169.8-71.9-240.5,1.7l0,0V151.7z"/>
	<path class="st0" d="M104.4,220.9L104.4,220.9c41.6-42.3,99.6-42.7,141.6-1l1,1v24.2l-1-1c-42-41.7-99.9-41.3-141.6,1l0,0V220.9z"
		/>
	<g>
		<path class="st1" d="M0,73C5.1,68,9.9,62.6,15.3,58c35.3-29.6,75.9-48.4,122.1-55c73.5-10.6,139.1,7.3,196.5,53.2
			c5,4,9.7,8.5,14.4,12.8c3.9,3.7,4.1,8.2,0.8,11.5c-3.3,3.2-8,3.1-11.9-0.6c-19.9-19.1-42.5-34.4-68.1-45.3
			c-41.7-17.8-85.1-23.4-130.1-16.3C91.4,25.7,50.3,46,15.6,78.5c-1.5,1.4-3.2,3-5.2,3.7C6.3,83.9,2.9,82,0,77.1C0,75.7,0,74.4,0,73
			z"/>
		<path class="st1" d="M175.7,89.6c47.1,0.6,87.9,16.4,121.9,48.2c5.8,5.5,3.2,12.5-2.5,14c-3.5,0.9-6.2-0.6-8.6-2.9
			c-12.6-12-26.9-21.7-42.8-29.2c-58.4-27.6-131.2-16.2-177.8,28c-0.8,0.8-1.6,1.6-2.5,2.3c-3.6,2.9-8.1,2.7-11.1-0.4
			c-2.9-3-3.1-7.6,0.2-10.5c6.5-5.8,12.9-11.7,20-16.7c27-19.4,57.3-30.1,90.7-32.4c1.8-0.1,3.6-0.3,5.5-0.4
			C171.2,89.5,173.4,89.6,175.7,89.6z"/>
		<path class="st1" d="M183.9,179.2c19.6,0.3,43.4,9.6,63.3,28.1c1.5,1.4,2.8,3.3,3.3,5.3c0.9,3.3-1,6.5-4,8.1
			c-3.1,1.5-6.4,0.8-9.5-1.6c-6.3-4.8-12.3-10.1-19.2-13.9c-32.9-18.1-74.5-12.8-102,12.5c-1.6,1.5-3.6,2.9-5.7,3.5
			c-3.3,1-6.8-0.8-8.4-3.6c-1.8-3-1.2-6.7,1.6-9.5c7.4-7.2,15.8-13.2,25.1-17.8C143.4,182.8,159.2,179,183.9,179.2z"/>
		<path class="st1" d="M144.1,279.5c0.1-16.9,14.5-30.7,31.8-30.5c17.6,0.2,31.5,13.9,31.4,31c-0.1,16.9-14.5,30.8-31.8,30.6
			C158,310.3,144.1,296.5,144.1,279.5z M153.4,279.7c0,12.1,10.2,21.9,22.6,21.8c12.2-0.2,22.1-9.9,22.1-21.7
			c0-12.1-10.1-21.8-22.6-21.7C163.2,258.2,153.4,267.8,153.4,279.7z"/>
	</g>
</g>
</svg>
