<?xml version="1.0" encoding="utf-8"?>
<!-- Generator: Adobe Illustrator 25.4.1, SVG Export Plug-In . SVG Version: 6.00 Build 0)  -->
<svg version="1.1" id="Capa_1" xmlns="http://www.w3.org/2000/svg" xmlns:xlink="http://www.w3.org/1999/xlink" x="0px" y="0px"
	 viewBox="0 0 269.1 321.8" style="enable-background:new 0 0 269.1 321.8;" xml:space="preserve">
<style type="text/css">
	.st0{fill:#D5B183;}
	.st1{fill:#E1D7CB;}
</style>
<g>
	<path class="st0" d="M220.8,179.6c-8,0.1-16-2-23.5-5.7c-12.3-6.2-25-6.4-37.2-0.4c-11.2,5.5-22.7,7.6-34.8,5.4
		c-4.7-0.9-9.4-2.8-13.8-4.8c-13.4-6.3-26.6-6.4-39.8,0.3c-12.1,6.1-24.6,6.9-37.5,3.5c-3.4-0.9-6.7-2.6-9.9-4.1
		c-5.6-2.6-11.4-4.1-17.6-4.2c-3.8-0.1-6-24.4-5.9-27.4c0.1-2.9,2.3-4.7,6.1-4.7c6.5,0,12.7,1.1,18.5,4.1c8,4.1,16.4,6.7,25.6,6.2
		c5.8-0.3,11.2-1.7,16.4-4.3c16.2-8.2,32.3-8.2,48.6-0.2c12.7,6.3,25.6,6.2,38.3-0.1c15.6-7.7,31.3-7.9,46.9-0.3
		c13.6,6.6,27.1,6.6,40.5-0.2c6.8-3.4,14-5.2,21.6-5.2c3.5,0,5.7,1.9,5.8,4.7c0,2.9-2.2,27.3-5.6,27.3c-6.4,0-12.4,1.6-18.1,4.5
		C237.8,177.7,229.7,179.7,220.8,179.6z"/>
	<path class="st0" d="M220.8,249c-8,0.1-16-2-23.5-5.7c-12.3-6.2-25-6.4-37.2-0.4c-11.2,5.5-22.7,7.6-34.8,5.4
		c-4.7-0.9-9.4-2.8-13.8-4.8c-13.4-6.3-26.6-6.4-39.8,0.3c-12.1,6.1-24.6,6.9-37.5,3.5c-3.4-0.9-6.7-2.6-9.9-4.1
		c-5.6-2.6-11.4-4.1-17.6-4.2c-3.8-0.1-6-24.4-5.9-27.4c0.1-2.9,2.3-4.7,6.1-4.7c6.5,0,12.7,1.1,18.5,4.1c8,4.1,16.4,6.7,25.6,6.2
		c5.8-0.3,11.2-1.7,16.4-4.3c16.2-8.2,32.3-8.2,48.6-0.2c12.7,6.3,25.6,6.2,38.3-0.1c15.6-7.7,31.3-7.9,46.9-0.3
		c13.6,6.6,27.1,6.6,40.5-0.2c6.8-3.4,14-5.2,21.6-5.2c3.5,0,5.7,1.9,5.8,4.7c0,2.9-2.2,27.3-5.6,27.3c-6.4,0-12.4,1.6-18.1,4.5
		C237.8,247,229.7,249.1,220.8,249z"/>
	<path class="st0" d="M220.8,321.7c-8,0.1-16-2-23.5-5.7c-12.3-6.2-25-6.4-37.2-0.4c-11.2,5.5-22.7,7.6-34.8,5.4
		c-4.7-0.9-9.4-2.8-13.8-4.8c-13.4-6.3-26.6-6.4-39.8,0.3c-12.1,6.1-24.6,6.9-37.5,3.5c-3.4-0.9-6.7-2.6-9.9-4.1
		c-5.6-2.6-11.4-4.1-17.6-4.2C3,311.3,0.8,287,0.9,284c0.1-2.9,2.3-4.7,6.1-4.7c6.5,0,12.7,1.1,18.5,4.1c8,4.1,16.4,6.7,25.6,6.2
		c5.8-0.3,11.2-1.7,16.4-4.3c16.2-8.2,32.3-8.2,48.6-0.2c12.7,6.3,25.6,6.2,38.3-0.1c15.6-7.7,31.3-7.9,46.9-0.3
		c13.6,6.6,27.1,6.6,40.5-0.2c6.8-3.4,14-5.2,21.6-5.2c3.5,0,5.7,1.9,5.8,4.7c0,2.9-2.2,27.3-5.6,27.3c-6.4,0-12.4,1.6-18.1,4.5
		C237.8,319.7,229.7,321.7,220.8,321.7z"/>
	<g>
		<path class="st1" d="M100.6,57.4c22.5,0,44.6,0,67.1,0c0-1.2,0-2.2,0-3.3c0-10.2-0.1-20.4,0.1-30.5c0.2-10.2,6-18.4,15-21.8
			c9.5-3.5,20.2-1.1,26.7,6c3.7,4,5.5,8.8,6,14.1c0.3,3.9,0.2,7.8,0.1,11.7c-0.1,2.8-2.3,4.8-4.8,4.7c-2.6,0-4.6-2-4.7-4.9
			c-0.1-3.2,0-6.4-0.1-9.6c-0.2-7.9-6.8-14.2-14.5-14.1c-7.7,0.1-14.1,6.3-14.2,14.2c-0.1,36.4,0,72.9,0,109.3c0,0.5,0.1,1,0.2,1.8
			c10.1-0.6,18.7,3.9,27.7,7.4c11.4,4.5,23.1,4.2,34.2-1.6c7.2-3.7,14.8-5.8,22.9-5.9c3.8-0.1,6,1.7,6.1,4.7
			c0.1,2.9-1.9,4.8-5.6,4.8c-7.9,0.1-15,2.8-22,6.1c-11.6,5.4-23.5,5.5-35.6,2.1c-2.9-0.8-5.7-2.3-8.5-3.6
			c-13.2-6.1-26.2-6.2-39.4,0.4c-15.5,7.7-31.1,7.4-46.6-0.2c-13.5-6.7-26.7-6.1-40.2,0.5c-14.9,7.3-30.3,7-45.3-0.1
			c-6.2-3-12.6-5-19.5-5.1c-3.5-0.1-5.6-2-5.5-4.9c0.1-2.8,2.4-4.7,5.8-4.7c7.4,0,14.4,1.6,21,5.1c8.1,4.2,16.7,6.1,25.7,4.9
			c3.9-0.5,7.9-1.3,11.5-2.9c8.5-3.8,17-7.5,26.9-7c0-1.5,0-2.7,0-3.8c0-35.5,0-71.1,0-106.6C91,10.4,101.8-0.3,115.6,0
			c12.3,0.3,22.7,10.3,23.2,22.6c0.2,3.5,0.1,7,0,10.5c-0.1,3.2-2.1,5.3-4.9,5.2c-2.7-0.1-4.5-2.1-4.6-5.2c-0.1-3.1,0-6.2,0-9.3
			c-0.2-8-6.5-14.2-14.4-14.2c-7.9,0-14.2,6.3-14.3,14.3C100.5,34.9,100.6,46,100.6,57.4z M167.5,67.3c-22.4,0-44.6,0-66.7,0
			c0,12.8,0,25.4,0,38c22.4,0,44.5,0,66.7,0C167.5,92.6,167.5,80,167.5,67.3z M100.7,135.1c5.5,2.2,10.6,4.2,15.6,6.4
			c11.2,5,22.6,5.2,34,0.7c5.7-2.3,11.3-4.7,17.2-7.1c0-6.3,0-13.1,0-19.8c-22.4,0-44.6,0-66.8,0
			C100.7,122.2,100.7,128.8,100.7,135.1z"/>
		<path class="st1" d="M219.9,219.7c-8,0.1-16-2-23.5-5.7c-12.3-6.2-25-6.4-37.2-0.4c-11.2,5.5-22.7,7.6-34.8,5.4
			c-4.7-0.9-9.4-2.8-13.8-4.8c-13.4-6.3-26.6-6.4-39.8,0.3c-12.1,6.1-24.6,6.9-37.5,3.5c-3.4-0.9-6.7-2.6-9.9-4.1
			c-5.6-2.6-11.4-4.1-17.6-4.2c-3.8-0.1-6-2-5.9-4.9c0.1-2.9,2.3-4.7,6.1-4.7c6.5,0,12.7,1.1,18.5,4.1c8,4.1,16.4,6.7,25.6,6.2
			c5.8-0.3,11.2-1.7,16.4-4.3c16.2-8.2,32.3-8.2,48.6-0.2c12.7,6.3,25.6,6.2,38.3-0.1c15.6-7.7,31.3-7.9,46.9-0.3
			c13.6,6.6,27.1,6.6,40.5-0.2c6.8-3.4,14-5.2,21.6-5.2c3.5,0,5.7,1.9,5.8,4.7c0,2.9-2.2,4.8-5.6,4.8c-6.4,0-12.4,1.6-18.1,4.5
			C236.9,217.8,228.9,219.8,219.9,219.7z"/>
		<path class="st1" d="M220.6,292.9c-8.6-0.1-16.6-2-24.1-5.8c-12.4-6.2-25.1-6.4-37.5-0.4c-11.9,5.8-24.1,7.8-36.9,4.8
			c-4.2-1-8.3-2.9-12.2-4.7c-12.6-5.7-25.2-6.1-37.5,0c-11.7,5.8-23.7,7.6-36.3,4.7c-3.7-0.8-7.4-2.4-10.9-4.1
			c-6.2-2.9-12.6-4.9-19.5-5c-4.1-0.1-6.5-3.1-5.3-6.4c0.8-2.3,2.5-3.2,4.9-3.2c6.9-0.1,13.5,1,19.7,4.1c7.3,3.7,14.8,6.3,23.2,6.2
			c6.4-0.1,12.5-1.3,18.2-4.2c16.5-8.4,32.8-8.3,49.4-0.1c12.2,6,24.7,6.1,36.9,0c16.3-8.1,32.5-8.3,48.9-0.3
			c12.7,6.2,25.6,6.1,38.3-0.2c7.3-3.6,14.8-5.8,23-5.6c3.4,0.1,5.4,1.8,5.5,4.6c0.1,2.7-2.1,5-5.3,4.9c-7.2-0.1-13.7,2-20.1,5.2
			C235.9,291.3,228.3,292.8,220.6,292.9z"/>
	</g>
</g>
</svg>
