<?xml version="1.0" encoding="utf-8"?>
<!-- Generator: Adobe Illustrator 25.4.1, SVG Export Plug-In . SVG Version: 6.00 Build 0)  -->
<svg version="1.1" id="Capa_1" xmlns="http://www.w3.org/2000/svg" xmlns:xlink="http://www.w3.org/1999/xlink" x="0px" y="0px"
	 viewBox="0 0 524.6 302.3" style="enable-background:new 0 0 524.6 302.3;" xml:space="preserve">
<style type="text/css">
	.st0{fill:#D5B183;}
	.st1{fill:#E1D7CB;}
</style>
<g>
	<rect transform="matrix(-1 -1.224647e-16 1.224647e-16 -1 524.5673 127.063)" class="st0" width="524.6" height="127.1"/>
	<g>
		<path class="st1" d="M263,22.2c76.4,0,152.7,0,229.1,0c9.8,0,11.9,2.2,12,12c0,57.7,0,115.4,0,173.1c0,17.1-8.9,26-25.9,26
			c-143.4,0-286.9,0-430.3,0c-17.1,0-26.1-8.9-26.1-25.9c0-57.7,0-115.4,0-173.1c0-10,2.2-12.1,12.3-12.1
			C110.3,22.2,186.7,22.2,263,22.2z M494.7,33.8c-154.8,0-309.2,0-463.8,0c0,42.5,0,84.6,0,127c154.7,0,309.1,0,463.8,0
			C494.7,118.4,494.7,76.1,494.7,33.8z M144.8,223.7c78.9,0,157.4,0,236.3,0c0-17.8,0-35.3,0-53c-78.9,0-157.4,0-236.3,0
			C144.8,188.3,144.8,205.6,144.8,223.7z M31.6,170.6c0,13.7,0,26.8,0,40c0,11,2.2,13.6,11.6,13.6c28.4,0,56.8,0,85.3,0
			c2,0,4,0,5.9,0c0-18.4,0-35.8,0-53.5C100.1,170.6,66.3,170.6,31.6,170.6z M391.2,224.1c12.1,0,23.6,0,35.1,0c19.2,0,38.3,0,57.5,0
			c4.5,0,9-1.4,9.1-7.3c0.5-15.3,0.2-30.6,0.2-46.1c-34.2,0-68,0-101.9,0C391.2,188.5,391.2,205.8,391.2,224.1z"/>
		<path class="st1" d="M128.9,260c5.1,0,10,0,15.2,0c0,13.9,0,27.8,0,42.1c-4.9,0-9.9,0-15.2,0C128.9,288.2,128.9,274.3,128.9,260z"
			/>
		<path class="st1" d="M191.3,260c5.1,0,10,0,15.2,0c0,13.9,0,27.9,0,42.2c-4.9,0-9.9,0-15.2,0C191.3,288.2,191.3,274.2,191.3,260z"
			/>
		<path class="st1" d="M269.1,302.3c-5.2,0-10.1,0-15.3,0c0-14.1,0-28,0-42.3c5.1,0,10.1,0,15.3,0
			C269.1,274.2,269.1,288,269.1,302.3z"/>
		<path class="st1" d="M397,260c0,14.3,0,28,0,42.1c-5.1,0-10.1,0-15.4,0c0-14,0-27.9,0-42.1C386.8,260,391.6,260,397,260z"/>
		<path class="st1" d="M332.6,302.3c-5.1,0-10,0-15.1,0c0-14.1,0-27.9,0-42.1c5,0,9.8,0,15.1,0C332.6,273.9,332.6,287.8,332.6,302.3
			z"/>
		<path class="st1" d="M457.8,66.2c0,5.1,0,9.9,0,15.1c-18.2,0-36.4,0-54.9,0c0-5,0-9.9,0-15.1C421.1,66.2,439.2,66.2,457.8,66.2z"
			/>
	</g>
</g>
</svg>
