<?xml version="1.0" encoding="utf-8"?>
<!-- Generator: Adobe Illustrator 25.4.1, SVG Export Plug-In . SVG Version: 6.00 Build 0)  -->
<svg version="1.1" id="Capa_1" xmlns="http://www.w3.org/2000/svg" xmlns:xlink="http://www.w3.org/1999/xlink" x="0px" y="0px"
	 viewBox="0 0 317.2 317.2" style="enable-background:new 0 0 317.2 317.2;" xml:space="preserve">
<style type="text/css">
	.st0{fill:#D5B183;}
	.st1{fill:#E1D7CB;}
</style>
<g>
	<ellipse class="st0" cx="126.6" cy="87.8" rx="23.2" ry="23.7"/>
	<ellipse class="st0" cx="191.2" cy="88.6" rx="23.2" ry="23.7"/>
	<ellipse class="st0" cx="240.3" cy="137.5" rx="23.2" ry="23.7"/>
	<ellipse class="st0" cx="78.6" cy="136.8" rx="23.2" ry="23.7"/>
	<path class="st0" d="M118.7,250.7c-27,0-42.3-31.3-25.5-52.3c15-18.7,37.8-30.7,63.3-30.7c30.3,0,56.7,16.8,70.8,41.8
		c10.4,18.4-3.1,41.2-24.3,41.2H118.7z"/>
	<g>
		<path class="st1" d="M0,158.5C0.1,70.9,71.1-0.1,158.7,0c87.6,0.1,158.5,71.1,158.5,158.8c-0.1,87.6-71.2,158.6-158.7,158.5
			C70.9,317.1-0.1,246.1,0,158.5z M158.8,9C76.4,8.8,9.1,75.9,9,158.5c-0.1,82.3,66.8,149.5,149.2,149.8
			c82.4,0.3,149.8-66.7,150-149.3C308.5,76.6,241.4,9.2,158.8,9z"/>
		<path class="st1" d="M81,211.5c0.3-15.7,5.3-27.5,15.5-37c4.4-4.1,8.2-8.6,10.4-14.3c7.6-19.3,22.3-29.9,42.3-33.1
			c18.8-3,35.6,1.9,49.5,15.2c4.8,4.5,8.3,10,10.7,16.1c2.4,6.2,6.2,11.3,11,15.9c15.1,14.1,19.8,35.3,12,53.8
			c-7.9,18.7-26.2,30.4-46.6,29.5c-4.4-0.2-9-1.2-13.2-2.6c-9.6-3.1-18.9-3-28.5,0.2c-27.1,8.9-55.3-7-61.8-34.7
			C81.5,217,81.3,213.4,81,211.5z M230.4,209.4c0-8-3.4-17.4-11.1-24.7c-8.1-7.7-14.1-16.5-18.6-26.6c-2.3-5.1-6.1-10-10.4-13.5
			c-14.1-11.6-30.3-13.9-47.5-8.6C130.5,139.7,121,147,116,159c-4,9.6-9.7,17.8-17.3,24.9c-13.2,12.5-15.7,32-6.6,47.3
			c9.3,15.7,27.6,23.2,44.8,17.6c14.6-4.8,28.7-4.7,43.3,0C204.9,256.8,230.1,237.9,230.4,209.4z"/>
		<path class="st1" d="M166.9,87.8c0.2-9.5,3.7-18.1,12.2-24.1c8.4-6,19.2-5.5,27.3,0.9c13.8,11.1,14.5,34.3,1.4,46.3
			c-10,9.1-24.3,8.2-33.2-1.9C169.6,103.5,166.9,96.2,166.9,87.8z M208.3,88.5c0-6.2-2.2-12.5-6-16.5c-6-6.5-14.4-6.5-20.5-0.2
			c-8.1,8.5-8,24.8,0.2,33.2c5.9,6.1,14.3,6.1,20.2-0.2C206.5,100.3,208,94.6,208.3,88.5z"/>
		<path class="st1" d="M150.3,89.5c0,6.5-2.4,13.8-7.9,19.8c-9.4,10.3-24.2,10.5-34,0.5c-10.8-11.1-11.2-30.6-0.8-42.1
			c10.1-11.2,26.1-10.9,35.7,0.7C148,74.1,150.2,80.7,150.3,89.5z M142.1,88.4c-0.1-6.4-1.8-12.4-6.2-17.2
			c-6.1-6.6-14.8-6.7-21.1-0.4c-8.9,9-8.7,26.6,0.3,35.4c6,5.8,14.2,5.8,20.1,0C140.2,101.4,142,95.2,142.1,88.4z"/>
		<path class="st1" d="M55.5,134.1c0.2-5.9,2.7-12.7,8.6-17.8c7.8-6.7,18.6-6.5,26.1,0.5c10.5,9.6,10.8,27.7,0.6,37.6
			c-8.6,8.3-21.5,7.6-29.2-1.5C57.7,148.4,55.5,142.3,55.5,134.1z M65.7,145.9c0.4,0.6,0.8,1.1,1.2,1.7c5,6,13.4,6.4,19.6,1.2
			c8-6.8,7.8-19.2-0.1-25.8c-5.6-4.6-13.2-5-18,0c-0.7,0.7-1.3,1.5-1.9,2.2C61.7,131.5,61.4,139.4,65.7,145.9z"/>
		<path class="st1" d="M261.7,135.9c0,6.3-1.9,12-6,16.9c-7.9,9.6-21.6,10-30.1,0.8c-8.6-9.3-9.1-24.5-1.1-34.3
			c8.9-10.8,24-10.4,32.2,0.9C260.1,124.9,261.6,130.1,261.7,135.9z M252.9,135.9c0-9.3-5.6-17.1-12.5-17.2c-7-0.1-13,7.9-12.9,17.3
			c0.1,9.2,6,17.1,12.8,17.1C247.1,153.1,252.9,145.2,252.9,135.9z"/>
	</g>
</g>
</svg>
