<?xml version="1.0" encoding="utf-8"?>
<!-- Generator: Adobe Illustrator 25.4.1, SVG Export Plug-In . SVG Version: 6.00 Build 0)  -->
<svg version="1.1" id="Capa_1" xmlns="http://www.w3.org/2000/svg" xmlns:xlink="http://www.w3.org/1999/xlink" x="0px" y="0px"
	 viewBox="0 0 501 313.8" style="enable-background:new 0 0 501 313.8;" xml:space="preserve">
<style type="text/css">
	.st0{fill:#D5B183;}
	.st1{fill:#E1D7CB;}
</style>
<g>
	<rect y="59" transform="matrix(-1 -1.224647e-16 1.224647e-16 -1 500.9575 230.9595)" class="st0" width="501" height="113"/>
	<path class="st1" d="M303.4,250.6H196.9C95.5,250.6,13,168.1,13,66.7V0h474.4v66.7C487.3,168.1,404.8,250.6,303.4,250.6z M18.7,5.7
		v61c0,98.3,79.9,178.2,178.2,178.2h106.5c98.3,0,178.2-79.9,178.2-178.2v-61H18.7z"/>
	<path class="st1" d="M132,311.1c-0.7,0-1.5-0.3-2-0.8c-1.1-1.1-1.1-2.9,0-4.1l58.1-58.1c1.1-1.1,2.9-1.1,4.1,0
		c1.1,1.1,1.1,2.9,0,4.1L134,310.2C133.5,310.8,132.7,311.1,132,311.1z"/>
	<path class="st1" d="M374.2,313.8c-0.7,0-1.5-0.3-2-0.8l-62.4-62.4c-1.1-1.1-1.1-2.9,0-4.1c1.1-1.1,2.9-1.1,4.1,0l62.4,62.4
		c1.1,1.1,1.1,2.9,0,4.1C375.6,313.5,374.9,313.8,374.2,313.8z"/>
</g>
</svg>
