<?xml version="1.0" encoding="utf-8"?>
<!-- Generator: Adobe Illustrator 25.4.1, SVG Export Plug-In . SVG Version: 6.00 Build 0)  -->
<svg version="1.1" id="Capa_1" xmlns="http://www.w3.org/2000/svg" xmlns:xlink="http://www.w3.org/1999/xlink" x="0px" y="0px"
	 viewBox="0 0 307.7 302.6" style="enable-background:new 0 0 307.7 302.6;" xml:space="preserve">
<style type="text/css">
	.st0{fill:#D5B183;}
	.st1{fill:#E1D7CB;}
</style>
<g>
	<path class="st0" d="M307.7,184.7c-9.5,0.4-19,3.3-27.6,8.8c-25.9,16.7-33.4,51.3-16.7,77.2c9.9,15.4,26.1,24.3,43.1,25.5
		L307.7,184.7z"/>
	
		<rect x="9.4" y="116.8" transform="matrix(-0.9281 0.3724 -0.3724 -0.9281 332.7615 207.7155)" class="st0" width="273.9" height="38.5"/>
	<polyline class="st0" points="196.3,19.6 237.5,3.1 251.9,38.8 	"/>
	<g>
		<path class="st1" d="M302.5,294.8c-2.4,5.9-6.8,8.2-13.1,7.7c-3.9-0.3-7.9,0-11.8-0.1c-11.6-0.1-20.3-8.7-20.5-20.3
			c-0.1-6.5,0-13,0-19.9c-1.2,0-2.2,0-3.3,0c-13.6,0-27.2,0-40.8,0c-16-0.1-27.6-7.3-34.4-21.9c-3.4-7.3-6.9-14.6-10.2-21.9
			c-0.7-1.6-1.7-2.5-3.5-3c-9.8-2.4-16-7.1-23.6-17.4c-4.5,1.8-9.2,3.7-13.8,5.5c-7.6,3.1-15.1,6.1-22.7,9.2
			c-12.9,5.2-23.5,0.8-28.7-12c-0.4-0.9-0.8-1.8-1.3-2.8c-2.9,1.2-5.8,2.2-8.5,3.5c-0.7,0.3-1.3,1.4-1.4,2.1
			c-0.9,6.8-4.7,11.3-11,13.7c-2.2,0.8-4.4,1.7-6.6,2.6c-9.2,3.6-17.4,0.1-21.1-9.1c-5.2-12.7-10.3-25.5-15.5-38.3
			c-1-2.6-2.1-5.1-3-7.7c-2.5-7.3,0.7-15.1,7.7-18.3c3.6-1.7,7.2-3.2,10.9-4.4c5.2-1.7,10.2-0.8,14.4,2.8c1.3,1.1,2.4,1.4,3.9,0.6
			c2.5-1.2,5-2.1,7.8-3.3c-1.5-3.7-2.8-7.2-4.4-10.5c-0.4-0.8-1.6-1.3-2.6-1.6c-11.5-4.1-23-8.1-34.5-12.2
			c-6.7-2.4-10.7-7.5-10.9-13.9C-0.2,97.1,3.5,91.7,10.2,89c72-29.2,144.1-58.3,216.1-87.5c1.4-0.5,2.7-1,4.1-1.6c1.8,0,3.5,0,5.3,0
			c5,1.6,9.1,4.2,11.2,9.2c11.3,28,22.6,55.9,33.9,83.9c1.7,4.2,2,8.9-0.8,12.1c-3.7,4.2-2.1,7.7-0.3,11.6c0.3,0.6,0.6,1.3,0.8,1.9
			c4.6,11.7,0,22.8-11.7,27.5c-10.9,4.5-21.9,8.8-32.8,13.3c-8.4,3.4-16.7,6.8-25.1,10.2c2.3,10.9,0.5,20.9-5.4,30.1
			c-0.4,0.7-0.1,2.1,0.3,2.9c2.5,5.6,5.2,11,7.7,16.6c0.8,1.8,1.8,2.4,3.8,2.4c12.4-0.1,24.8,0,37.2-0.1c0.8,0,1.7-0.1,2.7-0.2
			c0-6.8-0.1-13.4,0-20c0.2-11.3,8.8-19.9,20.1-20.1c4-0.1,8.1,0.2,12.1-0.1c6.2-0.4,10.7,1.8,13.1,7.7
			C302.5,224.3,302.5,259.5,302.5,294.8z M275.9,98.6c-0.3-0.8-0.6-2-1.1-3.1c-11.1-27.4-22.2-54.9-33.2-82.3
			c-2.3-5.6-4.2-9.5-9.8-7.2c-73.7,29.8-147.3,59.6-221,89.4c-2.6,1.1-4.9,5.5-4.8,8.7c0.1,3.2,2.4,4.4,5,5.3
			c43.1,15.1,86.3,30.2,129.5,45.2c2.1,0.7,4.9,0.6,7-0.2c29.1-11.6,58.1-23.4,87.1-35.1c12.3-5,24.6-10,36.9-15
			C274,103.3,275.7,101.9,275.9,98.6z M55,133.4c0.5,1.5,0.8,2.4,1.1,3.2c7.9,19.6,15.8,39.2,23.8,58.7c3,7.4,8.9,17.1,23.2,10.5
			c42.3-17.1,84.7-34.3,127-51.4c12.5-5,25-10,37.4-15.1c9.5-4,9.8-10.8,8.3-16c-1-3.4-2.6-6.7-3.9-10.3c-1.3,0.5-6.6,2.3-7.6,2.7
			c-37.8,15.3-75.6,30.6-113.4,45.9c-4.6,1.9-9,2-13.7,0.4c-16.7-5.9-33.4-11.7-50.1-17.6C78.5,141.4,64.3,136.7,55,133.4z
			 M296.8,192.6c0-2.8-2.3-5.1-5-5.1c-4.5,0-8.8,0-13.1,0c-10.7,0-16.2,4.3-16.2,12.7c0,13.2,0,26.3,0,39.5c0,15,0,29.9,0,44.9
			c0,6.3,4.7,11.2,12,11.6c5.7,0.3,11.4,0.2,17.3,0.1c2.7,0,5-2.3,5-5.1V192.6z M175.6,218.2c2.8,6,5.8,12.3,8.8,18.8
			c5,11,16.9,19.2,28.8,19.2c13.5,0,27,0,40.4,0c1.1,0,2.1,0,3.3,0c0-6.9,0-21.5,0-28.3c-1.3,0-2.5,0-3.7,0
			c-13.2,0-26.4-0.1-39.6,0.1c-4,0-4.2-2.4-5.8-6.1c-2.6-6.1-3.6-8.3-6.1-13.7C195.4,210.8,181.9,215.6,175.6,218.2z M33.1,213.1
			c1.7,1.9,4.5,2.4,6.9,1.5c5-2,16-6.1,19.1-7.9c2-1.1,2-3.5,1.1-5.6c-7.7-19.1-14.7-36.9-19.3-48.2c-1.3-3.2-4.8-8.3-8.1-7.1
			c-2.9,1.1-15.3,5.6-18.1,6.8c-3.2,1.4-4.3,3.8-3.1,6.9c6.1,15.3,14.3,37.3,20.7,52.5C32.5,212.4,32.8,212.7,33.1,213.1z
			 M146.1,196.1c6.6,12.1,26.9,19.2,40.7,13.7c13.9-5.6,25.2-21,19-38C187,179.3,164.8,188.5,146.1,196.1z M46.9,155.2
			c5,12.4,10,24.7,15,37c3.3-1.3,6.1-2.5,9.2-3.8c-5-12.4-10-24.6-15-37C52.9,152.7,50.1,153.9,46.9,155.2z"/>
	</g>
</g>
</svg>
