<?xml version="1.0" encoding="utf-8"?>
<!-- Generator: Adobe Illustrator 25.4.1, SVG Export Plug-In . SVG Version: 6.00 Build 0)  -->
<svg version="1.1" id="Capa_1" xmlns="http://www.w3.org/2000/svg" xmlns:xlink="http://www.w3.org/1999/xlink" x="0px" y="0px"
	 viewBox="0 0 585.2 302.6" style="enable-background:new 0 0 585.2 302.6;" xml:space="preserve">
<style type="text/css">
	.st0{fill:#D5B183;}
	.st1{fill:#E1D7CB;}
</style>
<g>
	<path class="st0" d="M16.5,119.2C6,137.2,0,158.1,0,180.4c0,67.5,54.7,122.2,122.2,122.2c40.1,0,75.6-19.3,97.9-49.1L16.5,119.2z"
		/>
	<path class="st0" d="M568.7,264c10.5-18,16.5-38.9,16.5-61.3c0-67.5-54.7-122.2-122.2-122.2c-40.1,0-75.6,19.3-97.9,49.1L568.7,264
		z"/>
	<path class="st1" d="M120.2,290C63.8,290,17.8,244,17.8,187.6S63.8,85.1,120.2,85.1s102.4,46,102.4,102.4S176.7,290,120.2,290z
		 M120.2,88.6c-54.6,0-99,44.4-99,99c0,54.6,44.4,99,99,99c54.6,0,99-44.4,99-99C219.2,133,174.8,88.6,120.2,88.6z"/>
	<path class="st1" d="M463.6,290c-56.5,0-102.4-45.9-102.4-102.4S407.1,85.1,463.6,85.1S566,131.1,566,187.6S520,290,463.6,290z
		 M463.6,88.6c-54.6,0-99,44.4-99,99c0,54.6,44.4,99,99,99s99-44.4,99-99C562.5,133,518.1,88.6,463.6,88.6z"/>
	<path class="st1" d="M211.4,79.4c-0.7,0-1.4-0.5-1.6-1.2c-0.3-0.9,0.2-1.9,1.1-2.2l189-62.8c0.9-0.3,1.9,0.2,2.2,1.1
		c0.3,0.9-0.2,1.9-1.1,2.2l-189,62.8C211.7,79.4,211.5,79.4,211.4,79.4z"/>
	<path class="st1" d="M447.6,191.3c-0.7,0-1.3-0.4-1.6-1l-87.3-186c-0.4-0.9,0-1.9,0.8-2.3c0.9-0.4,1.9,0,2.3,0.8l87.3,186
		c0.4,0.9,0,1.9-0.8,2.3C448.1,191.2,447.9,191.3,447.6,191.3z"/>
	<path class="st1" d="M291.5,278c-0.7,0-1.3-0.4-1.6-1.1L180.4,2.4c-0.4-0.9,0.1-1.9,1-2.3c0.9-0.4,1.9,0.1,2.3,1l109.5,274.5
		c0.4,0.9-0.1,1.9-1,2.3C291.9,278,291.7,278,291.5,278z"/>
	<path class="st1" d="M256.8,191.3c-0.4,0-0.8-0.2-1.2-0.5c-0.7-0.6-0.8-1.7-0.1-2.5L381.7,50.8c0.6-0.7,1.7-0.8,2.5-0.1
		c0.7,0.6,0.8,1.7,0.1,2.5L258.1,190.7C257.7,191.1,257.3,191.3,256.8,191.3z"/>
	<path class="st1" d="M254.9,236.2c-17.3,0-31.3-14.1-31.3-31.3s14.1-31.3,31.3-31.3s31.3,14.1,31.3,31.3S272.2,236.2,254.9,236.2z
		 M254.9,176.9c-15.4,0-27.9,12.5-27.9,27.9s12.5,27.9,27.9,27.9c15.4,0,27.9-12.5,27.9-27.9S270.3,176.9,254.9,176.9z"/>
</g>
</svg>
