<?xml version="1.0" encoding="utf-8"?>
<!-- Generator: Adobe Illustrator 25.4.1, SVG Export Plug-In . SVG Version: 6.00 Build 0)  -->
<svg version="1.1" id="Capa_1" xmlns="http://www.w3.org/2000/svg" xmlns:xlink="http://www.w3.org/1999/xlink" x="0px" y="0px"
	 viewBox="0 0 310.1 311.6" style="enable-background:new 0 0 310.1 311.6;" xml:space="preserve">
<style type="text/css">
	.st0{fill:#D5B183;}
	.st1{fill:#E1D7CB;}
</style>
<g>
	
		<rect x="13.3" y="212" transform="matrix(-1 -1.224647e-16 1.224647e-16 -1 310.4807 462.9899)" class="st0" width="283.9" height="38.9"/>
	<path class="st0" d="M249.3,95.6c-0.8-15.9-5.6-31.8-14.9-46.1c-28-43.3-85.8-55.6-129.1-27.6C79.6,38.6,64.9,65.7,63,94.1
		L249.3,95.6z"/>
	<g>
		<path class="st1" d="M252.2,185.8c1.6,0,2.7,0,3.8,0c15.6,0,31.2,0,46.8,0c1,0,2.1,0,3.1,0.1c2.4,0.2,3.9,1.6,4.1,4
			c0.2,2.6-1.3,4.3-3.8,4.6c-2.4,0.3-4.8,0.1-7.4,0.1c0,26.7,0,53.1,0,79.9c2.2,0,4.2-0.1,6.3,0c3.3,0.1,4.9,1.6,5,4.8
			c0.1,9.2,0.1,18.4,0,27.6c0,3.2-1.7,4.7-4.9,4.8c-0.8,0-1.7,0-2.5,0c-98.4,0-196.8,0-295.3,0c-6.5,0-7.3-0.9-7.3-7.5
			c0-8,0-15.9,0-23.9c0-4.4,1.4-5.8,5.7-5.9c1.8,0,3.5,0,5.5,0c0-26.6,0-52.9,0-79.8c-1.8,0-3.8,0-5.7,0C2,194.5-0.1,192.8,0,190
			c0.1-2.7,2-4.2,5.5-4.2c16.1,0,32.2,0,48.3,0c1.2,0,2.5,0,4,0c0-1.6,0-2.8,0-4.1c0-27.9-0.1-55.9,0-83.8
			C58,56.5,82.4,21.2,121.1,6.3C175.2-14.7,237.6,19,249.7,76c1.6,7.5,2.3,15.3,2.4,23c0.3,27.5,0.1,55,0.1,82.5
			C252.2,182.8,252.2,184.1,252.2,185.8z M66.8,185.5c28.5,0,56.6,0,84.7,0c0-28.8,0-57.4,0-86.1c-28.3,0-56.4,0-84.7,0
			C66.8,128.2,66.8,156.8,66.8,185.5z M243.2,185.6c0-28.9,0-57.5,0-86.2c-28.8,0-57.3,0-86,0c0,28.8,0,57.5,0,86.2
			C186,185.6,214.5,185.6,243.2,185.6z M304,280.1c-99.5,0-198.7,0-297.8,0c0,8.8,0,17.3,0,25.8c99.4,0,198.6,0,297.8,0
			C304,297.1,304,288.7,304,280.1z M64.8,192.3c0,27.5,0,54.6,0,81.9c12.8,0,25.3,0,38.1,0c0-27.4,0-54.6,0-81.9
			C90.1,192.3,77.5,192.3,64.8,192.3z M108.6,192.2c0,27.5,0,54.7,0,81.8c14.6,0,29,0,43.3,0c0-27.4,0-54.6,0-81.8
			C137.4,192.2,123.1,192.2,108.6,192.2z M201.7,192.3c-14.8,0-29.5,0-44.1,0c0,27.4,0,54.5,0,81.8c14.8,0,29.5,0,44.1,0
			C201.7,246.7,201.7,219.6,201.7,192.3z M249.6,274.2c0-27.5,0-54.7,0-81.9c-14.2,0-28.2,0-42.4,0c0,27.4,0,54.6,0,81.9
			C221.4,274.2,235.4,274.2,249.6,274.2z M59.5,192.3c-14.3,0-28.2,0-42.2,0c0,27.4,0,54.5,0,81.8c14.2,0,28.1,0,42.2,0
			C59.5,246.8,59.5,219.7,59.5,192.3z M292.7,192.3c-12.8,0-25.4,0-37.9,0c0,27.4,0,54.6,0,81.9c12.8,0,25.3,0,37.9,0
			C292.7,246.9,292.7,219.7,292.7,192.3z M91.7,36.1C77,52.8,68.8,72.3,67.5,94.9c28.2,0,55.8,0,83,0C131,75.4,111.4,55.8,91.7,36.1
			z M243.2,94.6c-1.4-22.9-9.6-42.4-24.1-58.8c-19.8,19.8-39.3,39.3-58.8,58.8C187.4,94.6,215,94.6,243.2,94.6z M157.2,92.1
			c19.5-19.5,39.1-39.2,58.9-58.9C199.5,18.5,179.8,10.4,157.2,9C157.2,37.1,157.2,64.8,157.2,92.1z M153.1,9.3
			c-19-0.2-44.8,9.9-58.5,23.9c19.6,19.6,39.2,39.2,58.5,58.5C153.1,64.7,153.1,37,153.1,9.3z"/>
	</g>
</g>
</svg>
