<?xml version="1.0" encoding="utf-8"?>
<!-- Generator: Adobe Illustrator 25.4.1, SVG Export Plug-In . SVG Version: 6.00 Build 0)  -->
<svg version="1.1" id="Capa_1" xmlns="http://www.w3.org/2000/svg" xmlns:xlink="http://www.w3.org/1999/xlink" x="0px" y="0px"
	 viewBox="0 0 282 308.2" style="enable-background:new 0 0 282 308.2;" xml:space="preserve">
<style type="text/css">
	.st0{fill:#D5B183;}
	.st1{fill:#E1D7CB;}
</style>
<g>
	<circle class="st0" cx="211.9" cy="44.2" r="43.3"/>
	<circle class="st0" cx="71.1" cy="47.1" r="43.3"/>
	<polygon class="st0" points="4.1,105.4 134.4,105.4 121.2,162.2 19.1,162.2 	"/>
	<polygon class="st0" points="277.1,225 146.8,225 160,168.2 262.1,168.2 	"/>
	<g>
		<path class="st1" d="M70.8,99.7c20.7,0,41.5,0,62.2,0c7.9,0,9.8,2.4,8.1,9.9c-14.9,64-29.8,128-44.6,191.9
			c-1.3,5.4-2.9,6.6-8.5,6.6c-11.6,0-23.2,0-34.8,0c-4.9,0-6.6-1.4-7.7-6.2c-15-64.3-30-128.7-45-193c-1.5-6.5,0.7-9.3,7.4-9.3
			C28.9,99.7,49.8,99.7,70.8,99.7z M6.9,106.3c0.2,1.4,0.3,2.3,0.6,3.2c11.2,45.9,22.4,91.8,33.6,137.7c4.2,17.3,8.5,34.7,12.9,52
			c0.3,1.2,1.7,3,2.6,3c10.1,0.2,20.3,0.1,30.6,0.1c16-65.4,31.9-130.6,47.9-196C92.2,106.3,49.8,106.3,6.9,106.3z"/>
		<path class="st1" d="M256.1,226.7c-4.1,15.7-8.1,31.2-12.1,46.7c-2.5,9.5-4.9,19.1-7.4,28.6c-1.3,5-2.9,6.2-8.1,6.2
			c-11.5,0-22.9,0-34.4,0c-5.6,0-7.1-1.2-8.5-6.6c-6.2-24-12.4-48-18.5-71.9c-0.2-0.9-0.6-1.9-0.9-3c-6.3,0-12.5,0-18.6,0
			c-6,0-8.4-3.2-6.7-8.9c11-37.5,22-74.9,33.1-112.4c1.4-4.6,2.9-5.7,7.7-5.8c19.7,0,39.5,0,59.2,0c4.9,0,6.2,1.1,7.6,5.9
			c11,37.2,22,74.4,32.9,111.6c1.9,6.4-0.5,9.5-7.1,9.5C268.3,226.7,262.2,226.7,256.1,226.7z M274,219c-0.2-0.9-0.2-1.3-0.3-1.7
			c-10.7-35.5-21.5-74.3-32.2-109.7c-0.7-2.3-2.1-2.6-4.2-2.6c-17.4,0.1-34.9,0.1-52.3,0c-2.8,0-3.7,1.1-4.4,3.4
			c-10.6,35-21.2,73.3-31.8,108.2c-0.2,0.7-0.2,1.5-0.3,2.4c5.4,0,10.6,0,15.8,0c6.2,0,7.8,1.2,9.4,7.1c4.7,17.8,9.4,32.2,14.1,50
			c2.4,8.9,4.8,17.8,7.1,26.6c11.1,0,21.8,0,32.5,0c7.2-27,14.3-50.3,21.4-77c1.5-5.4,3.1-6.6,8.9-6.6C263.1,219,268.4,219,274,219z
			"/>
		<path class="st1" d="M24.7,46.1C24.7,20.5,45.6-0.1,71.3,0c25.3,0.1,46.1,21.2,46,46.5C117.1,72,96.1,92.7,70.5,92.6
			C45.2,92.5,24.6,71.6,24.7,46.1z M30.7,46.1c-0.1,22.2,17.8,40.3,39.9,40.5c22.2,0.1,40.6-18.1,40.6-40.3C111.2,24.2,93,6.1,71,6
			C48.9,6,30.8,24,30.7,46.1z"/>
		<path class="st1" d="M257.4,46.2c0,25.5-20.6,46.3-46,46.4c-25.5,0.1-46.6-20.8-46.6-46.2c0-25.5,20.9-46.4,46.4-46.4
			C236.7,0,257.4,20.8,257.4,46.2z M250.7,46.2c-0.1-21.8-17.8-39.4-39.5-39.4c-21.7,0-39.5,17.8-39.6,39.5
			c-0.1,21.8,18,39.8,39.8,39.6C233.1,85.7,250.7,68,250.7,46.2z"/>
	</g>
</g>
</svg>
