<?xml version="1.0" encoding="utf-8"?>
<!-- Generator: Adobe Illustrator 25.4.1, SVG Export Plug-In . SVG Version: 6.00 Build 0)  -->
<svg version="1.1" id="Capa_1" xmlns="http://www.w3.org/2000/svg" xmlns:xlink="http://www.w3.org/1999/xlink" x="0px" y="0px"
	 viewBox="0 0 440.8 312" style="enable-background:new 0 0 440.8 312;" xml:space="preserve">
<style type="text/css">
	.st0{fill:#D5B183;}
	.st1{fill:#E1D7CB;}
</style>
<g>
	<path class="st0" d="M23.6,266.8c-0.3,5.6,0.8,11.3,3.5,16.6c8.2,16,27.8,22.4,43.8,14.2c9.5-4.9,15.6-13.7,17.3-23.5L23.6,266.8z"
		/>
	<path class="st0" d="M351.9,275.8c1.1,5.5,3.6,10.7,7.5,15.2c11.9,13.5,32.5,14.8,46,2.9c8-7.1,11.7-17.2,10.9-27.1L351.9,275.8z"
		/>
	<g>
		<path class="st0" d="M144.7,6.7c0.9,12.5,4.9,24.9,12.4,36.1c22.7,33.6,68.4,42.4,102,19.7c20-13.5,31.2-35.1,32.2-57.4L144.7,6.7
			z"/>
		<path class="st0" d="M53,101.3l164,7.5l169.4-7.5l36.3,29.5c5.5,4.5,2.3,13.3-4.7,13.3l-201.4,13.1L24.4,144.2
			c-7.9,0-11.4-9.9-5.3-14.9L53,101.3z"/>
		<g>
			<path class="st1" d="M342.3,277.7c-81.5,7-162.5,7-243.9,0c0,4.6,0.1,8.5,0,12.4c-0.2,11.7-8.3,21-20,21.5
				c-14.9,0.6-29.8,0.6-44.7,0c-11.7-0.5-19.8-9.8-19.9-21.6c-0.1-49.3,0-98.7,0-148c0-8.4,3-15.7,8.8-21.7c1.5-1.5,3.3-2.6,5-3.9
				c-0.3-0.5-0.5-1.1-0.8-1.6c-3.5,0-7,0-10.5,0c-9.8-0.1-16.3-6.6-16.4-16.4c-0.1-5.4-0.1-10.8,0-16.2c0.2-8.8,6.8-15.5,15.7-15.6
				c8.8-0.2,17.7,0,26.5,0c8.1,0,12.8,4.9,16.5,12.2c1.3-2.1,2.2-3.6,3.1-5.1c10.6-19,21.2-38,31.6-57.1c6-11,14.9-16.5,27.4-16.5
				C187.3,0,253.6,0,320,0c12.3,0,21.2,5.3,27.1,16.2c10.4,19.1,21.1,38.1,31.6,57.1c0.9,1.5,1.8,3.1,3,5.1c1.2-1.8,2.2-3.3,3.1-4.7
				c3.2-4.6,7.6-7.2,13.2-7.2c9-0.1,18-0.2,27,0c8.6,0.2,15.2,6.7,15.5,15.3c0.2,5.9,0.2,11.8,0,17.7c-0.3,8.6-6.9,15-15.5,15.2
				c-3.7,0.1-7.4,0-11.2,0c0.1,0.8,0.1,1.3,0.2,1.4c11,9.2,13.1,21.3,12.9,34.9c-0.4,45.4-0.1,90.8-0.1,136.2
				c0,16-8.5,24.6-24.5,24.7c-12,0.1-23.9,0.1-35.9,0c-15.7-0.1-24.2-8.8-24.2-24.5C342.3,284.5,342.3,281.6,342.3,277.7z
				 M23.4,260.7c131.6,16.8,262.6,15.2,393.8,0.5c0.1-0.8,0.2-1.5,0.2-2.2c0-39.2,0.2-78.3-0.2-117.5c0-4.3-2.7-9.3-5.6-12.6
				c-6.7-7.7-14.6-14.4-21.5-21.9c-3.2-3.4-6.4-4.1-10.7-3.7c-33.2,3-66.3,7.5-99.6,8.3c-47.5,1.2-95.1,0.3-142.6-1.2
				c-25.3-0.8-50.5-4.6-75.7-7.2c-4.1-0.4-7.2,0.1-10.3,3.5c-6.6,7.2-13.6,14-20.7,20.6c-5,4.7-7.1,10-7.1,16.9
				c0.2,37.3,0.1,74.5,0.1,111.8C23.4,257.7,23.4,259.4,23.4,260.7z M375.4,94.2c-0.7-1.8-1-2.7-1.4-3.4
				c-12.5-25.2-25-50.3-37.4-75.6c-3-6.1-7.6-8.1-13.5-8.1c-68.5,0-137,0.1-205.4,0c-6.7,0-11.1,3-14.3,9.6
				C91.7,40.8,79.7,64.7,67.8,88.8c-0.8,1.6-1.4,3.2-2.4,5.4C169,107.1,271.8,107.1,375.4,94.2z M23.2,269.1c0,9.5-0.1,18.1,0,26.6
				c0.1,5.9,2.8,9.3,7.6,9.4c16.9,0.2,33.7,0.2,50.6,0c4.7-0.1,7.6-3.3,7.7-9.2c0.1-6.3,0-12.7,0-19.7
				C67.1,273.9,45.5,271.5,23.2,269.1z M418,269c-22.5,2.4-44.5,4.8-66.7,7.2c0,6.9,0,12.8,0,18.8c0,6.7,2.8,10.4,8.2,10.5
				c16.9,0.2,33.7,0.2,50.6,0c4.4,0,7.7-2.9,7.8-8.5C418.2,287.8,418,278.6,418,269z M54.9,95.8c-2.6-5.5-4.9-10.8-7.6-15.9
				c-0.9-1.8-2.6-4.1-4-4.1c-12-0.3-24.1-0.2-35.9-0.2c0,10.7,0,20.1,0,30c11.2,0,22-0.5,32.6,0.2C46.6,106.2,51.2,103.4,54.9,95.8z
				 M432.8,103.3c0-10.7,0-20.1,0-30c-11.5,0-22.6-0.1-33.6,0.1c-1.5,0-3.5,1.4-4.3,3c-3,5.7-5.6,11.8-8.9,18.9
				c3.9,3,7.2,7.4,10.6,7.6C408.5,103.9,420.5,103.3,432.8,103.3z"/>
			<path class="st1" d="M220,251c-19.3,0-38.7,0-58,0c-19.4,0-31.2-3.6-26.9-22.4c1.7-7.5,5-24.2,6.8-31.7
				c3-12.4,12.5-19.7,25.6-19.1c35.3,1.6,70.6,1.9,105.9,0c12.9-0.7,22.5,6.5,25.6,18.8c2.9,11.9,5.4,24,8.4,35.9
				c2.5,9.9-3.9,18.2-14.1,18.4C268.8,251.2,244.4,251,220,251z M220.4,244.3c22.3,0,44.6,0.1,67,0c8.7,0,12.2-5.6,10.4-16.2
				c-1.9-11.2-4.2-22.3-6.2-33.5c-1.3-7.1-4.8-10.1-10.3-10.1c-40.6,0-81.2,0-121.8,0c-6.2,0-8.8,2.8-10.4,10.8
				c-2,10.2-3.8,20.5-5.7,30.8c-2.4,13,0.8,18.3,11.1,18.3C176.5,244.4,198.4,244.3,220.4,244.3z"/>
			<path class="st1" d="M359,161.6c6.7,0,13.4-0.1,20.2,0c9.8,0.2,16.1,6.7,16.2,16.6c0.1,5.2,0.1,10.5,0,15.7
				c-0.2,9-6.4,15.7-15.4,15.9c-14.2,0.3-28.5,0.3-42.8,0c-8.5-0.2-14.7-6.6-15.2-15.1c-0.3-5.9-0.3-11.8,0-17.7
				c0.4-9.1,6.8-15.2,15.9-15.4C345,161.4,352,161.6,359,161.6z M329,174v23.5c0,2.3,1.9,4.2,4.2,4.2h51c2.3,0,4.2-1.9,4.2-4.2V174
				c0-2.3-1.9-4.2-4.2-4.2h-51C330.9,169.8,329,171.7,329,174z"/>
			<path class="st1" d="M83.1,161.6c6.7,0,13.4-0.1,20.2,0c9.8,0.2,16.1,6.7,16.2,16.6c0.1,5.2,0.1,10.5,0,15.7
				c-0.2,9-6.4,15.7-15.4,15.9c-14.2,0.3-28.5,0.3-42.8,0c-8.5-0.2-14.7-6.6-15.2-15.1c-0.3-5.9-0.3-11.8,0-17.7
				c0.4-9.1,6.8-15.2,15.9-15.4C69,161.4,76,161.6,83.1,161.6z M53,174v23.5c0,2.3,1.9,4.2,4.2,4.2h51c2.3,0,4.2-1.9,4.2-4.2V174
				c0-2.3-1.9-4.2-4.2-4.2h-51C54.9,169.8,53,171.7,53,174z"/>
			<path class="st1" d="M82.6,234.1c8.2,0,16.4,0,24.5,0c5.6,0,8.9,1.5,9,3.9c0.1,2.4-3.2,4.1-8.6,4.1c-17,0.1-34,0.1-51.1,0
				c-5.5,0-8.6-1.7-8.4-4.2c0.1-2.3,3.2-3.8,8.5-3.8C65.3,234.1,73.9,234.1,82.6,234.1z"/>
			<path class="st1" d="M358.6,234.1c8.3,0,16.7,0,25,0c5.8,0,8.9,1.4,9.1,3.8c0.2,2.5-3,4.2-8.8,4.2c-16.9,0.1-33.7,0.1-50.6,0
				c-5.5,0-8.7-1.7-8.7-4.1c0.1-2.4,3.4-3.9,8.9-3.9C341.9,234.1,350.2,234.1,358.6,234.1z"/>
		</g>
	</g>
</g>
</svg>
