<?xml version="1.0" encoding="utf-8"?>
<!-- Generator: Adobe Illustrator 25.4.1, SVG Export Plug-In . SVG Version: 6.00 Build 0)  -->
<svg version="1.1" id="Capa_1" xmlns="http://www.w3.org/2000/svg" xmlns:xlink="http://www.w3.org/1999/xlink" x="0px" y="0px"
	 viewBox="0 0 196.4 313.7" style="enable-background:new 0 0 196.4 313.7;" xml:space="preserve">
<style type="text/css">
	.st0{fill:#D5B183;}
	.st1{fill:#E1D7CB;}
</style>
<g>
	<path class="st0" d="M174.2,132.8c-0.6-12.9-4.5-25.7-12-37.3c-22.7-35-69.4-44.9-104.3-22.3c-20.8,13.5-32.7,35.4-34.2,58.3
		L174.2,132.8z"/>
	
		<rect x="19.1" y="220.5" transform="matrix(-1 -1.224647e-16 1.224647e-16 -1 191.2462 491.3072)" class="st0" width="153.1" height="50.3"/>
	<g>
		<path class="st1" d="M121.7,47c0,4.3-0.2,8,0.1,11.6c0.1,1,1.8,2.1,3,2.5c17.7,6.2,31.7,17.2,41.6,33.1
			c7.7,12.3,11.5,25.8,11.5,40.3c0.1,53.4,0.1,106.9,0,160.3c0,11.3-7.4,18.7-18.7,18.7c-41.4,0-82.9,0-124.3,0
			c-11.2,0-18.6-7.3-18.6-18.4c-0.1-53.7-0.2-107.4,0.1-161.1c0.2-33.6,21.3-62,53.1-72.9c0.9-0.3,1.9-0.7,2.8-1c0-2.8,0-5.4,0-8.7
			c-3.7,0.8-7.2,1.4-10.6,2.4c-22.2,6.8-38.5,20.8-50.4,40.4c-0.3,0.5-0.6,1.1-0.9,1.7c-1.4,2.4-3.2,4.3-6.1,2.6
			c-2.9-1.8-2-4.2-0.6-6.6C11.3,79.1,20.8,68,33,59.4c0.5-0.3,0.9-0.7,1.2-1.7c-4.3,0.7-8.6,1.4-12.9,2.1
			c-10.4,1.8-19-4.1-20.9-14.1c-1.8-9.4,4.3-18.1,14.4-20c18.3-3.4,36.6-6.5,54.9-9.6c2.3-0.4,3.4-1.3,4.1-3.6
			c2.4-7.5,8.8-12.1,16.6-12.5c3.2-0.1,6.4,0,9.6,0c13.5,0,19.3,4.6,22.2,18.1c8.3-2.1,16.7-4.3,25-6.4c13.9-3.6,27.8-7.2,41.8-10.8
			c5.9-1.5,7.5-0.3,7.5,5.7c0,17.5,0,34.9,0,52.4c0,5.5-1.7,6.8-7.1,5.4c-21.1-5.4-42.2-10.9-63.2-16.3
			C124.9,47.7,123.7,47.5,121.7,47z M24.5,242c48.7,0,97.1,0,145.6,0c0-34.4,0-68.5,0-102.8c-48.6,0-97,0-145.6,0
			C24.5,173.4,24.5,207.6,24.5,242z M24.3,250.2c0,14.7,0,29,0,43.2c0,8.9,3.3,12.3,12.2,12.3c40.5,0,81.1,0,121.6,0
			c8.6,0,12.2-3.5,12.2-12c0-13.3,0-26.5,0-39.8c0-1.2-0.1-2.4-0.2-3.7C121.4,250.2,73.1,250.2,24.3,250.2z M170.1,130.8
			c-2.5-25.6-14-45.4-36.4-57c-26.8-13.8-54-12.9-79.4,4c-18.5,12.3-28,30.6-29.9,53C73.1,130.8,121.2,130.8,170.1,130.8z
			 M188.4,9.3c-1.5,0.3-2.6,0.5-3.7,0.8c-18.1,4.7-36.2,9.4-54.3,14.1c-8.8,2.3-8.7,2.3-8.8,11.2c0,2.7,0.8,3.7,3.4,4.4
			c17.5,4.4,35,9,52.5,13.5c3.5,0.9,7.1,1.8,10.9,2.7C188.4,40.3,188.4,25,188.4,9.3z M113.6,57.7c0-0.1,0.2-0.6,0.2-1
			c0-12.9,0.1-25.7,0-38.6c-0.1-5.6-3.9-9.6-9.5-10C99.7,7.8,95.1,7.8,90.6,8c-5.9,0.3-9.8,4-9.9,10c-0.2,13.1,0,26.2,0,39.4
			c0,0.2,0.3,0.4,0.2,0.3C91.9,57.7,102.6,57.7,113.6,57.7z M72.6,23.6c-3.5,0.6-6.6,1.1-9.7,1.6c-15.8,2.8-31.6,5.5-47.4,8.4
			c-5.4,1-8.4,5.9-7.4,11.1c0.9,5,5.5,8.4,10.7,7.6c17.2-2.9,34.4-5.9,51.5-8.9c0.8-0.1,2.1-1.3,2.1-2
			C72.7,35.5,72.6,29.7,72.6,23.6z"/>
	</g>
</g>
</svg>
