<?xml version="1.0" encoding="utf-8"?>
<!-- Generator: Adobe Illustrator 25.4.1, SVG Export Plug-In . SVG Version: 6.00 Build 0)  -->
<svg version="1.1" id="Capa_1" xmlns="http://www.w3.org/2000/svg" xmlns:xlink="http://www.w3.org/1999/xlink" x="0px" y="0px"
	 viewBox="0 0 335.7 316.1" style="enable-background:new 0 0 335.7 316.1;" xml:space="preserve">
<style type="text/css">
	.st0{fill:#D5B183;}
	.st1{fill:#E1D7CB;}
	.st2{font-family:'MyriadPro-Regular';}
	.st3{font-size:88.6547px;}
</style>
<g>
	
		<rect x="4.2" y="52.9" transform="matrix(-1 -1.224647e-16 1.224647e-16 -1 198.1737 130.1528)" class="st0" width="189.7" height="24.4"/>
	<path class="st0" d="M198.7,140.9c1.4,0,4,0,5.3,0c41.8,0,83.5,0,125.3,0c5.5,0,6.4,0.8,6.4,6.4c0,41.7,0,83.3,0,125
		c0,12.3-6.8,19.2-19,19.2c-16.2,0-32.5,0-48.7,0.1c-2,0-4,0.5-5.7,1.5c-13.4,7.3-26.8,14.8-40.2,22.2c-4.3,2.4-7.8,0.3-7.8-4.6
		c0-6.2,0-12.5,0-19.1c-20.7,0-40.8,0-61,0c-6.6,0-7-0.4-7-7.1c0-24.6,0-49.3,0-73.9c0-1.3,0-4.8,0-6.3l30.3,2.2
		c11.7,0,21.4-9.3,21.8-21L198.7,140.9z"/>
	<g>
		<path class="st1" d="M146.2,206.3c-18.6,0-36.9,0-55.6,0c0,6.7,0,13.2,0,19.8c0,2.3,0.6,4.8-2,6.3c-2.7,1.5-4.4-0.5-6.3-1.8
			c-10.7-7.6-21.3-15.3-32-22.7c-1.5-1.1-3.3-1.6-5.2-1.7c-13.2-0.1-26.4-0.1-39.6-0.1c-4.2,0-5.4-1.2-5.4-5.3c0-45,0-90,0-135
			c0-10.9,7.6-18.3,18.5-18.3c58.7,0,117.3,0,176,0c4.4,0,5.5,1.1,5.5,5.6c0,27.8,0,55.5,0,83.3c0,1.1,0,2.3,0,3.7
			c0,0.3,0,0.5,0,0.8l-2,49c-0.4,9.1-7.8,16.3-16.9,16.3L146.2,206.3z M192.2,55c-1.4,0-2.2,0-3.1,0c-56.6,0-113.2,0-169.9,0
			c-7.6,0-11.4,3.9-11.4,11.7c0,42.8,0,85.5,0,128.3c0,1.1,0.1,2.2,0.2,3.5c1.5,0,2.7,0,3.9,0c11.8,0,23.5-0.1,35.2,0.1
			c2.1,0,4.4,0.8,6.1,2c9.1,6.3,18.1,12.8,27.1,19.2c0.7,0.5,1.4,0.8,2.6,1.5c0-5.7,0-11,0-16.2c0-6.1,0.5-6.6,6.5-6.6
			c30,0,60,0,90,0c9.3,0,12.8-3.5,12.8-12.7c0-42.2,0-84.4,0-126.6C192.2,57.9,192.2,56.7,192.2,55z"/>
		<path class="st1" d="M236.5,49.2c-2.3,0-4.7,0.1-7,0c-2.4-0.1-4.1-1.4-3.9-4c0.1-2.4,1.7-3.6,4-3.6c4.8-0.1,9.6-0.1,14.4,0
			c2.3,0,3.9,1.3,3.9,3.7c0.1,2.6-1.6,3.8-4,4C241.4,49.3,238.9,49.2,236.5,49.2z"/>
		<path class="st1" d="M211.6,32.3c0.9-1.4,1.3-2.6,2.1-3.4c3.1-3.2,6.3-6.3,9.5-9.5c1.8-1.9,3.9-2.4,5.9-0.5c2,1.9,1.4,4-0.4,5.9
			c-3.2,3.2-6.4,6.6-9.8,9.6c-1,0.9-3.1,1.3-4.5,1C213.3,35.1,212.6,33.4,211.6,32.3z"/>
		<path class="st1" d="M206.3,11.6c0,2.3,0.1,4.7,0,7c-0.1,2.4-1.4,3.9-3.8,3.9c-2.3,0-3.7-1.5-3.8-3.9c-0.1-4.9-0.1-9.8,0-14.8
			c0-2.4,1.5-3.8,3.8-3.9c2.3,0,3.7,1.5,3.8,3.9C206.4,6.4,206.3,9,206.3,11.6z"/>
	</g>
	<text transform="matrix(1 0 0 1 76.2243 153.0117)" class="st1 st2 st3">e</text>
	<text transform="matrix(1 0 0 1 230.5251 243.2187)" class="st1 st2 st3">I</text>
</g>
</svg>
