<?xml version="1.0" encoding="utf-8"?>
<!-- Generator: Adobe Illustrator 25.4.1, SVG Export Plug-In . SVG Version: 6.00 Build 0)  -->
<svg version="1.1" id="Capa_1" xmlns="http://www.w3.org/2000/svg" xmlns:xlink="http://www.w3.org/1999/xlink" x="0px" y="0px"
	 viewBox="0 0 477.6 297.2" style="enable-background:new 0 0 477.6 297.2;" xml:space="preserve">
<style type="text/css">
	.st0{fill:#D5B183;}
	.st1{fill:#E1D7CB;}
</style>
<g>
	<path class="st0" d="M3.5,75.2v-52C3.5,10.4,13.9,0,26.7,0h69.4v0c0,41.6-33.7,75.3-75.3,75.2L3.5,75.2z"/>
	<path class="st0" d="M474.3,219.4v52c0,12.8-10.4,23.2-23.2,23.2h-69.4v0c0-41.6,33.7-75.3,75.3-75.2L474.3,219.4z"/>
	
		<rect x="3.6" y="125.1" transform="matrix(-1 -1.224647e-16 1.224647e-16 -1 346.6087 321.6275)" class="st0" width="339.5" height="71.5"/>
	<g>
		<path class="st1" d="M0,17.2c0.5-0.9,1-1.8,1.4-2.8c4.3-8.8,11-14,21.2-14c40.9,0,81.7,0,122.6,0c102.4,0,204.8,0.2,307.2-0.2
			c14.4-0.1,25.3,10.9,25.2,25.2c-0.5,82.2-0.5,164.4,0,246.6c0.1,14.3-10.8,25.2-25.2,25.2c-141.4-0.4-282.8-0.3-424.2,0
			c-13.6,0-23-4.3-28.2-17C0,192.5,0,104.9,0,17.2z M339.1,285.8c0-91.7,0-182.8,0-274.2c-1.9,0-3.4,0-5,0c-104,0-208,0-312,0
			c-10.8,0-13.6,2.9-13.6,13.6c0,82.2,0,164.4,0,246.6c0,11.3,2.7,14,14.1,14c103.7,0,207.4,0,311.1,0
			C335.3,285.8,337,285.8,339.1,285.8z M346.3,285.8c2.1,0,3.8,0,5.4,0c34.9,0,69.9,0,104.8,0c10.8,0,14.1-3,14.1-13.1
			c0-82.6,0-165.3,0-247.9c0-10.1-3.2-13.2-14-13.2c-35.1,0-70.2,0-105.3,0c-1.6,0-3.2,0.1-5,0.2
			C346.3,103.2,346.3,194.2,346.3,285.8z"/>
		<path class="st1" d="M175.3,257.8c-43.8,0-87.6,0-131.5,0c-13.7,0-19.5-5.9-19.6-19.6c0-59.7,0-119.4,0-179
			c0-13.7,5.9-19.6,19.6-19.6c87.6,0,175.3,0,262.9,0c13.7,0,19.6,5.9,19.6,19.6c0,59.7,0,119.4,0,179c0,13.6-6,19.6-19.6,19.6
			C262.9,257.8,219.1,257.8,175.3,257.8z M174.8,47.8c-45,0-90,0-135,0c-7.3,0-8.6,1.4-8.7,8.7c0,61.5,0,123,0,184.5
			c0,7.3,1.4,8.6,8.7,8.6c90.2,0,180.3,0,270.5,0c7.4,0,9.1-1.6,9.1-8.9c0-61.3,0-122.7,0-184c0-7.2-1.7-8.9-9.1-8.9
			C265.1,47.8,220,47.8,174.8,47.8z"/>
		<path class="st1" d="M407.9,91.8c-9.6,0-19.2,0-28.9,0c-7.8,0-11.5-3.5-11.6-11.3c-0.2-12-0.1-23.9,0-35.9
			c0.1-7,3.8-10.6,10.8-10.6c19.9-0.1,39.7-0.1,59.6,0c6.8,0,11.4,4.6,11.5,11.4c0.1,11.5,0.2,23,0,34.5
			c-0.1,7.3-4.8,11.8-12.1,11.9C427.5,91.9,417.7,91.8,407.9,91.8z M442.8,42.7c-23.2,0-46.1,0-68.7,0c0,13.8,0,27.2,0,40.6
			c23.1,0,45.8,0,68.7,0C442.8,69.7,442.8,56.4,442.8,42.7z"/>
		<path class="st1" d="M408.1,262.5c-16.8-0.1-30.5-13.6-30.5-30c0.1-16.2,14.2-29.8,30.9-29.7c15.7,0.1,29.7,14.2,29.7,29.8
			C438.2,248.9,424.4,262.5,408.1,262.5z M407.9,255c12.7,0.2,22.6-9.2,22.9-21.5c0.2-12.3-10-23-22.3-23.1
			c-12.6-0.1-23.2,9.9-23.5,22.1C384.8,244.3,395.4,254.8,407.9,255z"/>
		<path class="st1" d="M438.2,147.4c-0.6,15.5-13.5,30.4-30.5,30.2c-15.8-0.2-30.4-15-30-30.9c0.4-14.8,13.2-29.9,31-29.7
			C423.8,117.2,438.4,132.2,438.2,147.4z M408,124.4c-11.9,0-23.2,11-22.9,22.7c0.4,11.9,10,22.9,23.2,23.1
			c12.2,0.1,22.4-10.5,22.5-23C430.9,134.9,420.3,124.5,408,124.4z"/>
		<path class="st1" d="M303,148.7c0,4.7,0,9.3,0,14c0,3.6-1.3,6.1-5.1,6.5c-3.2,0.3-6-2.4-6-6.2c-0.1-9.5-0.1-18.9,0-28.4
			c0-3.8,2.7-6.6,6-6.3c3.8,0.4,5.2,2.9,5.2,6.5C303,139.4,303,144,303,148.7z"/>
	</g>
</g>
</svg>
