<?xml version="1.0" encoding="utf-8"?>
<!-- Generator: Adobe Illustrator 25.4.1, SVG Export Plug-In . SVG Version: 6.00 Build 0)  -->
<svg version="1.1" id="Capa_1" xmlns="http://www.w3.org/2000/svg" xmlns:xlink="http://www.w3.org/1999/xlink" x="0px" y="0px"
	 viewBox="0 0 258.6 321.3" style="enable-background:new 0 0 258.6 321.3;" xml:space="preserve">
<style type="text/css">
	.st0{fill:#D5B183;}
	.st1{fill:#E1D7CB;}
</style>
<g>
	
		<rect x="-81" y="117" transform="matrix(-1.836970e-16 1 -1 -1.836970e-16 236.8435 86.8445)" class="st0" width="312.1" height="89.7"/>
	<g>
		<path class="st1" d="M1.9,321.3c-1-1.5-2.9-3.1-1.3-4.9c1.1-1.2,3.2-1.9,4.8-1.9c9.5-0.2,19-0.1,28.5-0.1c1.1,0,2.3,0,3.8,0
			c0-1.6,0-2.9,0-4.2c0-101.1,0-202.2,0-303.3c0-6.5,0.4-6.8,7-6.8c55.9,0,111.9,0,167.8,0c8.2,0,8.2,0,8.2,8.1
			c0,100.5,0,201,0,301.4c0,1.5,0,2.9,0,4.9c1.2,0,2.3,0,3.4,0c9.6,0,19.2-0.1,28.9,0.1c1.7,0,3.7,0.7,4.8,1.9
			c1.7,1.7-0.3,3.4-1.3,4.9C171.7,321.3,86.8,321.3,1.9,321.3z M70,32.1c0,94.2,0,188.1,0,282c39.7,0,79.2,0,118.6,0
			c0-94.1,0-188,0-282C149,32.1,109.7,32.1,70,32.1z M62.9,314.2c0-1.6,0-3,0-4.5c0-92.9,0-185.7,0-278.6c0-5.2,0.8-6,5.9-6
			c40.3,0,80.5,0,120.8,0c0.7,0,1.5,0,2.2,0c2.4,0.1,3.6,1.4,3.8,3.7c0.1,1.1,0,2.3,0,3.4c0,92.5,0,185.1,0,277.6c0,1.4,0,2.8,0,4.2
			c6.4,0,12.3,0,18.1,0c0-102.5,0-204.7,0-307c-56.4,0-112.7,0-169,0c0,102.5,0,204.7,0,307.1C50.8,314.2,56.7,314.2,62.9,314.2z"/>
		<path class="st1" d="M129.1,85.4c-9.8,0-19.7,0-29.5,0c-4.3,0-5.2-0.9-5.2-5.1c0-7.3,0-14.6,0-22c0-3.9,1.1-5,5.1-5
			c19.9,0,39.7,0,59.6,0c4,0,5.1,1,5.1,5c0,7.4,0,14.8,0,22.3c0,3.8-1,4.8-4.9,4.8C149.2,85.4,139.2,85.4,129.1,85.4z M101.4,78.3
			c18.8,0,37.3,0,55.8,0c0-6.1,0-12,0-17.9c-18.7,0-37.2,0-55.8,0C101.4,66.5,101.4,72.3,101.4,78.3z"/>
		<path class="st1" d="M157.4,160.6c0-5.3,4.2-9.6,9.5-9.6c5.4-0.1,9.9,4.3,9.9,9.7c0,5.3-4.5,9.7-9.9,9.6
			C161.6,170.2,157.4,165.9,157.4,160.6z M171,160.5c-1.9-1.2-3.1-2.7-4-2.5c-1.1,0.3-1.9,1.9-2.8,2.9c1,0.8,2,2.3,3,2.3
			C168.2,163.3,169.3,161.8,171,160.5z"/>
	</g>
</g>
</svg>
