<?xml version="1.0" encoding="utf-8"?>
<!-- Generator: Adobe Illustrator 25.4.1, SVG Export Plug-In . SVG Version: 6.00 Build 0)  -->
<svg version="1.1" id="Capa_1" xmlns="http://www.w3.org/2000/svg" xmlns:xlink="http://www.w3.org/1999/xlink" x="0px" y="0px"
	 viewBox="0 0 472.4 300.3" style="enable-background:new 0 0 472.4 300.3;" xml:space="preserve">
<style type="text/css">
	.st0{fill:#D5B183;}
	.st1{fill:#E1D7CB;}
</style>
<g>
	<g>
		<path class="st0" d="M125.6,103.3c0.7-0.3,1.3-0.4,2-0.7l-41-64.1c-0.9-1.4-2.2-1.1-2.6-1c-0.4,0.1-1.1,0.6-1.2,1.7l41.5,64.6
			C124.7,103.7,125.1,103.5,125.6,103.3z"/>
		<path class="st0" d="M102.8,113.8l9.2,2.3L53.9,30.9c-1.9-2.7-4.1-5.2-6.6-7.4l-0.9-0.8c-2.3-2-5.4-2.8-8.4-2.1
			c-2.6,0.6-4.7,2.1-6.1,4.3l57.4,79.6C92.5,109.1,97.3,112.4,102.8,113.8z"/>
		<path class="st0" d="M119.5,106.5L72.4,33.4c-1.5-2.2-4-3.5-6.3-3.3c-1.8,0.1-3.2,1.1-4.2,2.7l53,77.7
			C116,109.1,117.6,107.7,119.5,106.5z"/>
		<path class="st0" d="M212.7,148.4L161,63.8l-48.8-25.6V39c0,5.6,0.9,11.1,2.7,16.5c3.3,10,10.6,19.1,20.5,25.7l5.6,3.7
			c0.5,0.4,0.9,0.9,1.1,1.5l8.9,32.1c1.8,2.2,2.1,5.1,0.8,7.7c-1.4,2.8-4.3,4.3-7.5,3.8l-42.7-10.9c-6.7-1.7-12.6-5.7-16.7-11.4
			L20.1,18C15.6,11.3,7,9,0,12.2l59.1,127.4l123.1,75.9l96.3,82.7V183.9l-64.9-34.6C213.2,149.1,212.9,148.8,212.7,148.4z"/>
		<path class="st0" d="M117.4,116.4c-0.1,0.4-0.4,0.7-0.7,1l28.5,7.3c0.8,0.1,1.3-0.6,1.5-0.9c0.2-0.3,0.5-1.1-0.3-1.9
			c-0.3-0.3-0.6-0.8-0.7-1.2l-3.8-13.7c-0.5,0.1-1,0.1-1.5-0.2c-2.5-1.1-7.6-0.5-12.7,1.7C122.5,110.5,118.4,113.8,117.4,116.4z"/>
	</g>
	<g>
		<path class="st1" d="M185.6,300.3c-0.3,0-0.6-0.1-0.8-0.2c-0.7-0.3-1.2-1-1.2-1.8V183.9c0-0.7,0.3-1.3,0.9-1.7l65.8-42.6
			l51.9-84.9c0.2-0.3,0.5-0.6,0.8-0.7l53.5-28.1c0.6-0.3,1.4-0.3,2,0.1c0.6,0.4,1,1,1,1.7V33c0,6.1-1,12.2-2.9,18
			c-3.7,10.9-11.6,20.9-22.3,28.2l-4.9,3.3l-8.9,31.9c-0.1,0.3-0.3,0.6-0.5,0.9c-1.1,1.1-0.6,2.4-0.4,2.7c0.2,0.4,0.9,1.5,2.5,1.2
			l42.3-10.8c5.6-1.4,10.6-4.8,14-9.5l64.7-89.7c6.2-9.4,19.1-12.1,28.6-5.9c0.8,0.6,1.1,1.6,0.7,2.5l-60.5,130.5
			c-0.2,0.4-0.4,0.7-0.8,0.9l-123.8,76.3l-100.2,86.2C186.5,300.1,186,300.3,185.6,300.3z M187.6,185v108.9l97.2-83.5l123.5-76.2
			L467.7,5.9c-7.5-3.9-16.8-1.5-21.6,5.6l-64.7,89.8c-4,5.5-9.7,9.4-16.3,11.1l-42.5,10.8c-3,0.5-5.6-0.8-6.9-3.4
			c-1.2-2.3-0.9-5,0.8-7l8.9-32.2c0.1-0.5,0.4-0.9,0.8-1.1l5.6-3.7c10-6.7,17.4-16,20.8-26.1c1.8-5.4,2.7-11,2.7-16.7v-2l-50.1,26.3
			l-51.8,84.8c-0.2,0.3-0.4,0.5-0.6,0.6L187.6,185z"/>
		<path class="st1" d="M344.7,101.4c-0.4,0-0.8-0.1-1.1-0.3c-0.9-0.6-1.2-1.9-0.6-2.8l47.4-73.6c2.5-3.7,6.6-5.7,10.7-5.4
			c3.8,0.3,6.9,2.5,8.5,6.1c0.5,1,0,2.2-1,2.7c-1,0.5-2.2,0-2.7-1c-1-2.2-2.9-3.5-5.2-3.7c-2.7-0.2-5.4,1.2-7,3.6l-1.6,2.4
			l-45.8,71.1C346.1,101.1,345.4,101.4,344.7,101.4z"/>
		<path class="st1" d="M334.9,100.2c-0.4,0-0.8-0.1-1.1-0.3c-0.9-0.6-1.2-1.9-0.6-2.8l43-67.2c1.9-2.8,5.2-3.9,8.2-2.8
			c3,1.1,4.7,4.1,4.3,7.3c-0.1,1.1-1.2,1.9-2.3,1.7c-1.1-0.1-1.9-1.2-1.7-2.3c0.2-1.6-0.7-2.6-1.7-3c-1-0.4-2.4-0.3-3.4,1.2
			l-1.1,1.7l-41.8,65.4C336.3,99.9,335.6,100.2,334.9,100.2z"/>
		<path class="st1" d="M351.9,111.5c-0.1,0-0.2,0-0.2,0c-0.8-0.1-1.4-0.6-1.7-1.3c-1-2.8-5.2-6.1-10.7-8.4
			c-5.4-2.2-10.6-2.9-13.3-1.7c-1,0.5-2.2,0-2.7-1c-0.5-1,0-2.2,1-2.7c3.8-1.7,10-1.1,16.6,1.6c4.9,2,8.8,4.8,11.1,7.7l56.9-83.4
			c2.1-3.1,4.6-5.9,7.5-8.3l0.9-0.8c3.5-3,8.1-4.1,12.6-3.1c4.5,1,8.2,3.9,10.1,8.1c0.5,1,0,2.2-1,2.7c-1,0.5-2.2,0-2.7-1
			c-1.4-3-4-5.1-7.3-5.9c-3.2-0.7-6.5,0.1-9.1,2.3L419,17c-2.6,2.2-4.9,4.7-6.8,7.5l-58.7,86C353.2,111.1,352.6,111.5,351.9,111.5z"
			/>
	</g>
</g>
</svg>
