<?xml version="1.0" encoding="utf-8"?>
<!-- Generator: Adobe Illustrator 25.4.1, SVG Export Plug-In . SVG Version: 6.00 Build 0)  -->
<svg version="1.1" id="Capa_1" xmlns="http://www.w3.org/2000/svg" xmlns:xlink="http://www.w3.org/1999/xlink" x="0px" y="0px"
	 viewBox="0 0 294.6 321.8" style="enable-background:new 0 0 294.6 321.8;" xml:space="preserve">
<style type="text/css">
	.st0{fill:#D5B183;}
	.st1{fill:#E1D7CB;}
</style>
<g>
	<rect x="3.3" y="44.3" class="st0" width="22.5" height="22.5"/>
	<rect x="25.2" y="66.5" class="st0" width="22.5" height="22.5"/>
	<rect x="47.8" y="44.3" class="st0" width="22.5" height="22.5"/>
	<rect x="69.7" y="66.5" class="st0" width="22.5" height="22.5"/>
	<rect x="3.3" y="89" class="st0" width="22.5" height="22.5"/>
	<rect x="25.2" y="111.2" class="st0" width="22.5" height="22.5"/>
	<rect x="47.8" y="89" class="st0" width="22.5" height="22.5"/>
	<rect x="69.7" y="111.2" class="st0" width="22.5" height="22.5"/>
	<rect x="225.8" y="44.3" class="st0" width="22.5" height="22.5"/>
	<rect x="247.8" y="66.5" class="st0" width="22.5" height="22.5"/>
	<rect x="203.4" y="66.5" class="st0" width="22.5" height="22.5"/>
	<rect x="270.3" y="44.3" class="st0" width="22.5" height="22.5"/>
	<rect x="225.8" y="89" class="st0" width="22.5" height="22.5"/>
	<rect x="247.8" y="111.2" class="st0" width="22.5" height="22.5"/>
	<rect x="203.8" y="111.2" class="st0" width="22.5" height="22.5"/>
	<rect x="181.5" y="89" class="st0" width="22.5" height="22.5"/>
	<rect x="159.5" y="111.2" class="st0" width="22.5" height="22.5"/>
	<rect x="137.6" y="89" class="st0" width="22.5" height="22.5"/>
	<rect x="92.1" y="89" class="st0" width="22.5" height="22.5"/>
	<rect x="115.5" y="111.2" class="st0" width="22.5" height="22.5"/>
	<rect x="270.3" y="89" class="st0" width="22.5" height="22.5"/>
	<rect x="3.3" y="133.3" class="st0" width="22.5" height="22.5"/>
	<rect x="47.8" y="133.3" class="st0" width="22.5" height="22.5"/>
	<rect x="225.8" y="133.3" class="st0" width="22.5" height="22.5"/>
	<rect x="181.5" y="133.3" class="st0" width="22.5" height="22.5"/>
	<rect x="137.6" y="133.3" class="st0" width="22.5" height="22.5"/>
	<rect x="92.1" y="133.3" class="st0" width="22.5" height="22.5"/>
	<rect x="270.3" y="133.3" class="st0" width="22.5" height="22.5"/>
	<path class="st1" d="M292.7,321.8H1.9c-1,0-1.9-0.8-1.9-1.9V1.9C0,0.8,0.8,0,1.9,0h88.8c1,0,1.9,0.8,1.9,1.9v84.9h108.5V1.9
		c0-1,0.8-1.9,1.9-1.9h89.8c1,0,1.9,0.8,1.9,1.9v318C294.6,320.9,293.8,321.8,292.7,321.8z M3.8,318h287.1V3.8h-86.1v84.9
		c0,1-0.8,1.9-1.9,1.9H90.7c-1,0-1.9-0.8-1.9-1.9V3.8h-85V318z"/>
	<path class="st1" d="M11.9,319.5c-1,0-1.9-0.8-1.9-1.9V2.3c0-1,0.8-1.9,1.9-1.9s1.9,0.8,1.9,1.9v315.3
		C13.8,318.6,12.9,319.5,11.9,319.5z"/>
	<path class="st1" d="M282.9,319.5c-1,0-1.9-0.8-1.9-1.9V2.3c0-1,0.8-1.9,1.9-1.9s1.9,0.8,1.9,1.9v315.3
		C284.8,318.6,283.9,319.5,282.9,319.5z"/>
	<path class="st0" d="M47.2,115.2c-0.5,0-1-0.2-1.4-0.6L22.7,89.4c-0.7-0.8-0.7-1.9,0.1-2.7c0.8-0.7,2-0.6,2.7,0.1L48.6,112
		c0.7,0.8,0.7,1.9-0.1,2.7C48.1,115,47.6,115.2,47.2,115.2z"/>
	<path class="st0" d="M89.3,112.6c-0.5,0-1-0.2-1.3-0.6L66.9,90.4c-0.7-0.7-0.7-1.9,0-2.7c0.7-0.7,1.9-0.7,2.7,0l21.1,21.6
		c0.7,0.7,0.7,1.9,0,2.7C90.3,112.4,89.8,112.6,89.3,112.6z"/>
	<path class="st0" d="M89.3,159c-0.5,0-1-0.2-1.3-0.6l-21.1-21.6c-0.7-0.7-0.7-1.9,0-2.7c0.7-0.7,1.9-0.7,2.7,0l21.1,21.6
		c0.7,0.7,0.7,1.9,0,2.7C90.3,158.9,89.8,159,89.3,159z"/>
	<path class="st0" d="M89.3,65c-0.5,0-1-0.2-1.3-0.6L66.9,42.9c-0.7-0.7-0.7-1.9,0-2.7c0.7-0.7,1.9-0.7,2.7,0l21.1,21.6
		c0.7,0.7,0.7,1.9,0,2.7C90.3,64.9,89.8,65,89.3,65z"/>
	<path class="st0" d="M246.8,115.2c-0.5,0-0.9-0.2-1.3-0.5c-0.8-0.7-0.8-1.9-0.1-2.7l23.1-25.2c0.7-0.8,1.9-0.8,2.7-0.1
		c0.8,0.7,0.8,1.9,0.1,2.7l-23.1,25.2C247.8,115,247.3,115.2,246.8,115.2z"/>
	<path class="st0" d="M204.7,112.6c-0.5,0-0.9-0.2-1.3-0.5c-0.7-0.7-0.8-1.9,0-2.7l21.1-21.6c0.7-0.7,1.9-0.8,2.7,0
		c0.7,0.7,0.8,1.9,0,2.7L206,112C205.7,112.4,205.2,112.6,204.7,112.6z"/>
	<path class="st0" d="M204.7,159c-0.5,0-0.9-0.2-1.3-0.5c-0.7-0.7-0.8-1.9,0-2.7l21.1-21.6c0.7-0.7,1.9-0.8,2.7,0
		c0.7,0.7,0.8,1.9,0,2.7L206,158.5C205.7,158.9,205.2,159,204.7,159z"/>
	<path class="st0" d="M204.7,65c-0.5,0-0.9-0.2-1.3-0.5c-0.7-0.7-0.8-1.9,0-2.7l21.1-21.6c0.7-0.7,1.9-0.8,2.7,0
		c0.7,0.7,0.8,1.9,0,2.7L206,64.5C205.7,64.9,205.2,65,204.7,65z"/>
</g>
</svg>
