<?xml version="1.0" encoding="utf-8"?>
<!-- Generator: Adobe Illustrator 25.4.1, SVG Export Plug-In . SVG Version: 6.00 Build 0)  -->
<svg version="1.1" id="Capa_1" xmlns="http://www.w3.org/2000/svg" xmlns:xlink="http://www.w3.org/1999/xlink" x="0px" y="0px"
	 viewBox="0 0 493 311.3" style="enable-background:new 0 0 493 311.3;" xml:space="preserve">
<style type="text/css">
	.st0{fill:#D5B183;}
	.st1{fill:#E1D7CB;}
</style>
<g>
	<path class="st0" d="M76.7,308.6L76.7,308.6C76.7,308.6,76.7,308.6,76.7,308.6l-59.9,0c-9.1,0-16.5-7.4-16.5-16.5v-45.6
		c0,0,0,0,0,0l14.4,0C48.9,246.5,76.7,274.3,76.7,308.6z"/>
	<path class="st0" d="M487.8,246.5v43c0,10.6-8.6,19.1-19.1,19.1h-57.3v0c0-34.3,27.8-62.1,62.1-62.1L487.8,246.5z"/>
	<path class="st0" d="M411.3,3.3L411.3,3.3C411.3,3.3,411.3,3.3,411.3,3.3l59.9,0c9.1,0,16.5,7.4,16.5,16.5v45.6c0,0,0,0,0,0
		l-14.4,0C439.1,65.4,411.3,37.6,411.3,3.3z"/>
	<path class="st0" d="M0.2,65.4v-43c0-10.6,8.6-19.1,19.1-19.1h57.3v0c0,34.3-27.8,62.1-62.1,62.1L0.2,65.4z"/>
	<path class="st1" d="M473.7,311.3H19.3C8.6,311.3,0,302.7,0,292.1V19.3C0,8.6,8.6,0,19.3,0h454.5C484.3,0,493,8.6,493,19.3v272.8
		C493,302.7,484.3,311.3,473.7,311.3z M19.3,5.4c-7.6,0-13.9,6.2-13.9,13.9v272.8c0,7.6,6.2,13.9,13.9,13.9h454.5
		c7.6,0,13.9-6.2,13.9-13.9V19.3c0-7.6-6.2-13.9-13.9-13.9H19.3z"/>
	<path class="st1" d="M458.4,296.5H34.6c-9.9,0-18-7.8-18-17.4V32.2c0-9.6,8.1-17.4,18-17.4h423.7c9.9,0,18,7.8,18,17.4v246.9
		C476.3,288.7,468.3,296.5,458.4,296.5z M33.3,18.8c-7.2,0-13,5.7-13,12.6v248.5c0,7,5.8,12.6,13,12.6h426.5c7.2,0,13-5.7,13-12.6
		V31.4c0-7-5.8-12.6-13-12.6H33.3z"/>
</g>
</svg>
