<?xml version="1.0" encoding="utf-8"?>
<!-- Generator: Adobe Illustrator 25.4.1, SVG Export Plug-In . SVG Version: 6.00 Build 0)  -->
<svg version="1.1" id="Capa_1" xmlns="http://www.w3.org/2000/svg" xmlns:xlink="http://www.w3.org/1999/xlink" x="0px" y="0px"
	 viewBox="0 0 317.3 313" style="enable-background:new 0 0 317.3 313;" xml:space="preserve">
<style type="text/css">
	.st0{fill:#D5B183;}
	.st1{fill:#E1D7CB;}
</style>
<g>
	<path class="st0" d="M221.9,157l5,5c16.9,16.9,16.9,44.2,0,61.1l0,0h22.2c36.5,0,66.1-29.6,66.1-66.1v0H221.9"/>
	<path class="st1" d="M317.3,158.1H216.9l8.5-8.5c7.8-7.8,12-18.1,12-29.1s-4.3-21.3-12-29.1l-3.5-3.5h27.2
		c37.6,0,68.2,30.6,68.2,68.2V158.1z M226.9,154h86.2c-1.1-34.3-29.4-62-64-62h-17.6c6.5,8,10.1,18,10.1,28.5
		c0,12.1-4.7,23.5-13.3,32L226.9,154z"/>
	<path class="st0" d="M155.8,95.4l5-5c16.9-16.9,44.2-16.9,61.1,0l0,0V68.2c0-36.5-29.6-66.1-66.1-66.1h0V95.4"/>
	<path class="st1" d="M156.9,100.4l-8.5-8.5c-7.8-7.8-18.1-12-29.1-12s-21.3,4.3-29.1,12l-3.5,3.5l0-27.2C86.7,30.6,117.3,0,154.8,0
		h2.1V100.4z M119.3,75.7c12.1,0,23.5,4.7,32,13.3l1.5,1.5V4.2c-34.3,1.1-62,29.4-62,64v17.6C98.9,79.2,108.8,75.7,119.3,75.7z"/>
	<path class="st0" d="M95.4,156l-5-5c-16.9-16.9-16.9-44.2,0-61.1l0,0H68.2c-36.5,0-66.1,29.6-66.1,66.1v0H95.4"/>
	<path class="st1" d="M95.4,225.2H68.2C30.6,225.2,0,194.6,0,157v-2.1h100.4l-8.5,8.5c-7.8,7.8-12,18.1-12,29.1
		c0,11,4.3,21.3,12,29.1L95.4,225.2z M4.2,159.1c1.1,34.3,29.4,62,64,62h17.6c-6.5-8-10.1-18-10.1-28.5c0-12.1,4.7-23.5,13.3-32
		l1.5-1.5H4.2z"/>
	<path class="st0" d="M161.5,217.6l-5,5c-16.9,16.9-44.2,16.9-61.1,0l0,0v22.2c0,36.5,29.6,66.1,66.1,66.1h0V217.6"/>
	<path class="st1" d="M162.5,313h-2.1V212.6l8.5,8.5c16,16,42.1,16,58.2,0l3.5-3.5v27.2C230.6,282.4,200.1,313,162.5,313z
		 M164.5,222.6v86.2c34.3-1.1,62-29.4,62-64v-17.6c-17.8,14.4-44,13.3-60.5-3.2L164.5,222.6z"/>
</g>
</svg>
