<?xml version="1.0" standalone="no"?>
<!DOCTYPE svg PUBLIC "-//W3C//DTD SVG 20010904//EN"
 "http://www.w3.org/TR/2001/REC-SVG-20010904/DTD/svg10.dtd">
<svg version="1.0" xmlns="http://www.w3.org/2000/svg"
 width="700.000000pt" height="700.000000pt" viewBox="0 0 700.000000 700.000000"
 preserveAspectRatio="xMidYMid meet">
<metadata>
Created by potrace 1.14, written by Peter Selinger 2001-2017
</metadata>
<g transform="translate(0.000000,700.000000) scale(0.100000,-0.100000)"
fill="#000000" stroke="none">
<path d="M3315 6994 c-546 -42 -985 -162 -1424 -390 -1034 -537 -1732 -1549
-1865 -2704 -111 -954 178 -1914 795 -2650 126 -151 375 -392 519 -504 515
-400 1079 -634 1745 -723 180 -24 654 -24 839 1 657 86 1229 326 1753 736 138
108 444 413 557 555 389 490 645 1086 730 1704 23 160 39 494 31 636 -46 868
-388 1661 -980 2274 -572 591 -1308 953 -2130 1046 -130 15 -475 26 -570 19z
m555 -75 c568 -57 1172 -289 1645 -634 153 -111 405 -327 405 -347 0 -4 -303
-8 -673 -8 l-672 0 -505 506 -505 506 100 -7 c55 -3 147 -11 205 -16z m-402 2
c-1 -4 -228 -229 -502 -500 l-499 -491 -694 0 c-381 0 -693 4 -693 9 0 12 200
188 316 277 276 213 578 382 891 499 320 121 703 194 1078 208 44 2 86 4 93 5
8 1 12 -2 10 -7z m289 -263 l231 -233 -233 -238 -234 -239 -235 239 -235 238
232 233 c128 127 234 232 237 232 3 0 109 -105 237 -232z m-503 -520 l236
-243 -1 -210 0 -210 -344 350 -344 350 102 103 c56 56 105 102 108 102 4 0
113 -109 243 -242z m889 135 l108 -108 -348 -341 -348 -341 -3 205 -2 205 237
242 c131 134 240 244 243 244 2 1 53 -47 113 -106z m-653 -1103 l0 -225 -480
480 -480 480 112 112 113 113 367 -367 368 -368 0 -225z m913 842 l107 -107
-480 -480 -480 -480 0 222 0 222 368 365 c202 201 369 365 372 366 3 0 54 -48
113 -108z m-1756 -304 c90 -90 163 -166 163 -170 0 -4 -33 -28 -72 -55 -165
-109 -359 -335 -448 -522 l-34 -71 -949 0 -948 0 7 23 c9 31 88 187 142 282
110 194 270 417 425 592 l72 82 740 0 740 1 162 -162z m3403 95 c195 -208 435
-565 557 -830 18 -39 33 -74 33 -77 0 -3 -418 -6 -928 -6 l-928 0 -44 87 c-95
187 -262 380 -432 498 l-86 60 166 168 167 167 716 0 717 0 62 -67z m-2885
-613 l300 -300 -573 0 -573 0 43 82 c89 172 234 335 403 456 48 34 90 62 94
62 3 0 141 -135 306 -300z m1093 248 c92 -62 236 -199 302 -287 54 -72 134
-204 145 -238 l6 -23 -568 0 -568 0 300 300 c165 165 301 300 303 300 2 0 37
-23 80 -52z m-2058 -705 c-15 -54 -33 -140 -40 -190 l-13 -93 -973 0 c-820 0
-974 2 -974 14 0 17 81 254 109 319 l20 47 949 0 949 0 -27 -97z m2563 37 c24
-69 55 -211 59 -270 l3 -45 -1309 -3 -1308 -2 6 57 c9 72 41 213 63 276 l17
47 1225 -2 1225 -3 19 -55z m1928 13 c27 -62 94 -259 104 -301 l7 -32 -959 2
-958 3 -8 73 c-7 61 -33 179 -63 280 l-6 22 931 0 932 0 20 -47z m-4541 -2088
l0 -1695 -500 0 c-442 0 -504 2 -525 16 -33 22 -221 227 -314 344 -102 128
-262 369 -338 510 -350 650 -481 1402 -372 2130 19 126 46 264 70 353 l10 37
984 0 985 0 0 -1695z m480 1075 l0 -620 -35 0 -35 0 0 -245 0 -245 35 0 35 0
0 -835 0 -835 -210 0 -210 0 0 1700 0 1700 210 0 210 0 0 -620z m240 0 l0
-620 -90 0 -90 0 0 620 0 620 90 0 90 0 0 -620z m1250 1 l0 -620 -37 -3 -38
-3 -3 -242 -2 -243 40 0 40 0 0 -835 0 -835 -595 0 -595 0 0 835 0 835 30 0
30 0 0 245 0 245 -30 0 -30 0 0 620 0 620 595 0 595 0 0 -619z m240 -1 l0
-620 -90 0 -90 0 0 620 0 620 90 0 90 0 0 -620z m470 -1080 l0 -1700 -205 0
-205 0 0 835 0 835 30 0 30 0 0 245 0 245 -30 0 -30 0 0 620 0 620 205 0 205
0 0 -1700z m2003 1673 c85 -391 101 -531 101 -873 0 -205 -4 -308 -17 -404
-105 -777 -422 -1433 -963 -1994 l-99 -102 -482 0 -483 0 0 1700 0 1700 969 0
969 0 5 -27z m-3903 -1348 l0 -75 -155 0 -155 0 0 75 0 75 155 0 155 0 0 -75z
m1490 0 l0 -75 -160 0 -160 0 0 75 0 75 160 0 160 0 0 -75z m-1490 -215 l0
-80 -155 0 -155 0 0 80 0 80 155 0 155 0 0 -80z m1490 0 l0 -80 -160 0 -160 0
0 80 0 80 160 0 160 0 0 -80z m-1550 -975 l0 -835 -90 0 -90 0 0 835 0 835 90
0 90 0 0 -835z m1490 0 l0 -836 -92 3 -93 3 -3 833 -2 832 95 0 95 0 0 -835z
m-162 -895 l1575 0 -24 -26 c-40 -43 -237 -192 -361 -275 -451 -299 -948 -478
-1508 -545 -190 -23 -569 -23 -767 -1 -559 63 -1120 275 -1578 596 -93 65
-325 249 -325 258 0 4 318 3 707 0 388 -4 1415 -7 2281 -7z"/>
<path d="M3411 3104 c-98 -49 -147 -157 -121 -265 17 -71 92 -149 163 -168
114 -32 238 27 284 136 19 46 16 140 -6 188 -56 121 -198 169 -320 109z m176
-45 c64 -24 104 -85 105 -159 1 -128 -118 -211 -237 -166 -137 53 -151 229
-26 313 38 25 109 31 158 12z"/>
</g>
</svg>
