<svg width="134" height="68" viewBox="0 0 134 68" fill="none" xmlns="http://www.w3.org/2000/svg">
<path d="M67.1975 0.542015L67.1975 67.4658L132.95 67.4658L132.95 0.542018L67.1975 0.542015Z" stroke="#D5B183" stroke-miterlimit="10"/>
<path d="M100.205 34.2556L132.734 67.3588" stroke="#D5B183" stroke-miterlimit="10"/>
<path d="M99.8044 68.0001L99.8044 33.6909" stroke="#D5B183" stroke-miterlimit="10"/>
<path d="M133.058 33.8894L99.3273 33.8894" stroke="#D5B183" stroke-miterlimit="10"/>
<path d="M132.565 50.6279L100.166 34.0115" stroke="#D5B183" stroke-miterlimit="10"/>
<path d="M116.835 67.6794L99.7582 34.0496" stroke="#D5B183" stroke-miterlimit="10"/>
<path d="M66.9974 67.458L66.9974 0.53418L1.24498 0.534177L1.24498 67.458L66.9974 67.458Z" stroke="#D5B183" stroke-miterlimit="10"/>
<path d="M33.9827 33.7443L1.46046 0.641112" stroke="#D5B183" stroke-miterlimit="10"/>
<path d="M34.3906 0L34.3906 34.3091" stroke="#D5B183" stroke-miterlimit="10"/>
<path d="M1.13725 34.1106L34.86 34.1106" stroke="#D5B183" stroke-miterlimit="10"/>
<path d="M1.62208 17.3721L34.0212 33.9885" stroke="#D5B183" stroke-miterlimit="10"/>
<path d="M17.3599 0.320556L34.429 33.9427" stroke="#D5B183" stroke-miterlimit="10"/>
</svg>
