<?xml version="1.0" encoding="utf-8"?>
<!-- Generator: Adobe Illustrator 25.4.1, SVG Export Plug-In . SVG Version: 6.00 Build 0)  -->
<svg version="1.1" id="Capa_1" xmlns="http://www.w3.org/2000/svg" xmlns:xlink="http://www.w3.org/1999/xlink" x="0px" y="0px"
	 viewBox="0 0 220.8 37.5" style="enable-background:new 0 0 220.8 37.5;" xml:space="preserve">
<style type="text/css">
	.st0{fill:none;stroke:#E1D7CB;stroke-miterlimit:10;}
	.st1{fill:#D5B183;}
	.st2{fill:#E1D7CB;}
	.st3{fill:none;stroke:#D5B183;stroke-miterlimit:10;}
	.st4{fill:#A65D4F;}
</style>
<g>
	<g>
		<path class="st2" d="M12.9,12v1.6c-0.4,0.3-1.2,0.5-2.3,0.8c-1.1,0.3-2.1,0.4-2.9,0.4c-1.6,0-3-0.3-4.2-1
			c-1.2-0.7-2.1-1.5-2.7-2.6C0.3,10.1,0,8.9,0,7.5c0-1.4,0.3-2.6,0.9-3.7c0.6-1.1,1.5-2,2.7-2.7c1.2-0.7,2.6-1,4.2-1
			c0.9,0,1.8,0.1,2.9,0.4c1,0.3,1.8,0.6,2.2,0.8v1.3h0V3h-0.2c-0.1-0.2-0.4-0.5-0.9-0.8c-0.5-0.4-1.1-0.7-1.8-1
			C9.3,0.9,8.4,0.8,7.4,0.8C6.1,0.8,5,1.1,4.1,1.7C3.2,2.3,2.5,3.1,2,4.1c-0.5,1-0.7,2.2-0.7,3.4c0,1.2,0.2,2.4,0.7,3.4
			c0.5,1,1.2,1.8,2.1,2.4c0.9,0.6,2,0.9,3.3,0.9c0.9,0,1.8-0.1,2.5-0.4c0.7-0.2,1.3-0.5,1.8-0.9c0.5-0.3,0.8-0.7,1-1H12.9z"/>
		<path class="st2" d="M26.5,10.2l-3.6-8l-4,8H26.5z M29.8,14.5h-1.3l-1.8-3.8h-7.3c-0.5,0-1,0.3-1.3,0.8l-1.4,3H16L23,0h0.2l5,11
			l1,2.2c0,0,0,0,0,0L29.8,14.5z"/>
		<path class="st2" d="M44.7,11.1c0,0.7-0.2,1.4-0.7,2c-0.5,0.6-1.1,1.1-2,1.5c-0.9,0.4-1.8,0.5-2.9,0.5c-1.4,0-2.5-0.1-3.3-0.4
			c-0.8-0.3-1.6-0.6-2.3-1.1V12h0.2c0.4,0.5,0.7,0.9,1,1.2c0.2,0.2,0.6,0.5,1,0.7c0,0,0.1,0,0.1,0c0.7,0.3,1.4,0.5,2.1,0.5
			c0.4,0,0.8,0,1.2,0c0.2,0,0.4,0,0.5,0c0,0,0.1,0,0.1,0c0.1,0,0.1,0,0.2,0c0.1,0,0.1,0,0.2,0c0.2,0,0.3,0,0.4-0.1
			c0.5-0.1,0.9-0.2,1.3-0.4c0.6-0.3,1-0.6,1.3-1c0.4-0.5,0.6-1,0.6-1.5c0,0,0-0.1,0-0.1c0-0.1,0-0.1,0-0.2c0-0.4-0.2-0.7-0.4-1
			c-0.1-0.2-0.3-0.4-0.4-0.5c-0.5-0.4-1.1-0.8-1.9-1.1c-0.3-0.1-1-0.3-1.6-0.5c-0.3-0.1-0.5-0.2-0.8-0.2c-0.9-0.3-1.9-0.6-2.7-1.1
			c-0.2-0.1-0.3-0.2-0.4-0.2c-0.4-0.3-0.7-0.5-1-0.9c-0.4-0.4-0.6-1-0.7-1.6c0-0.1,0-0.2,0-0.2c0-0.1,0-0.1,0-0.2
			c0-0.7,0.2-1.3,0.6-1.9c0.4-0.5,1-1,1.8-1.3C36.9,0.2,37.8,0,38.8,0c0.6,0,1.4,0.1,2.2,0.3c0.4,0.1,0.7,0.2,1.1,0.3
			c0.4,0.1,0.8,0.3,1.1,0.4v1.6H43c-0.3-0.5-0.8-1-1.5-1.4c0,0,0,0-0.1,0c-0.8-0.4-1.7-0.5-2.6-0.5h0c-0.2,0-0.5,0-0.7,0
			c-0.9,0.1-1.8,0.4-2.5,1c-0.1,0.1-0.1,0.1-0.2,0.1c-0.1,0.1-0.1,0.2-0.2,0.2c0,0,0,0,0,0c-0.3,0.4-0.5,0.9-0.5,1.4
			c0,0,0,0.1,0,0.1c0,0.1,0,0.1,0,0.2c0,0.2,0.1,0.3,0.1,0.5c0.1,0.4,0.3,0.7,0.7,0.9c0,0,0.1,0,0.1,0.1c0.1,0.1,0.3,0.2,0.4,0.3
			c0,0,0.1,0.1,0.2,0.1c0.3,0.2,0.6,0.3,0.9,0.5c0.5,0.2,1.2,0.5,2.2,0.8C40.2,7,41,7.3,41.6,7.6c0.2,0.1,0.4,0.1,0.5,0.2
			c0.7,0.3,1.4,0.8,1.9,1.3c0.4,0.5,0.7,1,0.7,1.6c0,0.1,0,0.2,0,0.3C44.7,11,44.7,11.1,44.7,11.1"/>
		<path class="st2" d="M57.5,10.2l-3.6-8l-4,8H57.5z M60.8,14.5h-1.3l-1.8-3.8h-7.3c-0.5,0-1,0.3-1.3,0.8l-1.4,3H47L54,0h0.2l5,11
			l1,2.2c0,0,0,0,0,0L60.8,14.5z"/>
		<path class="st2" d="M100.5,0.6v14H100c0,0-0.9-3.8-6.4-6.9c-3.4-1.8-5.4-3.6-6.4-5.1v12h-0.6v-14h0.6c0.6,1.6,2.5,3.8,6.7,6.2
			c3.7,2.1,5.3,4,6,5.2V0.6H100.5z"/>
		<path class="st2" d="M117.6,12v1.6c-0.4,0.3-1.2,0.5-2.3,0.8c-1.1,0.3-2.1,0.4-2.9,0.4c-1.6,0-3-0.3-4.2-1
			c-1.2-0.7-2.1-1.5-2.7-2.6c-0.6-1.1-0.9-2.3-0.9-3.7c0-1.4,0.3-2.6,0.9-3.7c0.6-1.1,1.5-2,2.7-2.7c1.2-0.7,2.6-1,4.2-1
			c0.9,0,1.8,0.1,2.9,0.4c1,0.3,1.8,0.6,2.2,0.8v1.3h0v0.3h-0.2c-0.1-0.2-0.4-0.5-0.9-0.8c-0.5-0.4-1.1-0.7-1.8-1
			c-0.8-0.3-1.6-0.4-2.6-0.4c-1.3,0-2.4,0.3-3.3,0.9c-0.9,0.6-1.6,1.4-2.1,2.5c-0.5,1-0.7,2.2-0.7,3.4c0,1.2,0.2,2.4,0.7,3.4
			c0.5,1,1.2,1.8,2.1,2.4c0.9,0.6,2,0.9,3.3,0.9c0.9,0,1.8-0.1,2.5-0.4c0.7-0.2,1.3-0.5,1.8-0.9c0.5-0.3,0.8-0.7,1-1H117.6z"/>
		<path class="st2" d="M133,3.6L133,3.6l0,3.1v2.6c0,1.8-0.7,3.8-2.4,4.6c-1,0.5-2.2,0.7-3.3,0.7c-1.1,0-2.3-0.2-3.3-0.8
			c-0.9-0.5-1.6-1.2-2-2.2c-0.3-0.7-0.3-1.4-0.3-2.1v-9h1.2v3c0,0,0,3.5,0,4.1v1.8c0,0.5,0,1,0.1,1.5c0.3,1,1,1.8,1.9,2.3
			c1,0.5,2.2,0.7,3.4,0.6c1-0.1,2.1-0.3,2.9-1c0.7-0.7,1.1-1.6,1.3-2.6c0.1-0.6,0.1-1.1,0.1-1.7V8.4h0V0.6h0.6V3.6z"/>
		<path class="st2" d="M166.8,0.6v14h-0.5c0,0-0.9-3.8-6.4-6.9c-3.4-1.8-5.4-3.6-6.4-5.1v12h-0.6v-14h0.6c0.6,1.6,2.5,3.8,6.7,6.2
			c3.7,2.1,5.3,4,6,5.2V0.6H166.8z"/>
	</g>
	<polygon class="st2" points="186.2,1.2 179.2,1.2 179.2,14.6 178,14.6 178,1.2 171,1.2 171.2,0.6 186.1,0.6 	"/>
	<g>
		<path class="st2" d="M195.1,9c0.4,0,0.7,0,1-0.1c0.5-0.1,1-0.2,1.5-0.4c0.7-0.3,1.2-0.8,1.6-1.4c0.3-0.6,0.5-1.2,0.5-1.9
			c0,0,0-0.1,0-0.1c0,0,0,0,0,0s0,0,0,0c0,0,0-0.1,0-0.1c0-0.7-0.2-1.3-0.5-1.9c-0.3-0.6-0.9-1.1-1.6-1.4c-0.4-0.2-0.9-0.4-1.5-0.4
			c-0.1,0-0.3,0-0.4-0.1c0,0,0.1,0,0.1,0c-0.1,0-0.1,0-0.2,0c-0.1,0-0.2,0-0.3,0H191v5.5h0v0.2c0.8,0.7,1.6,1.4,2.4,2.1L195.1,9z
			 M202.7,13.5c0,0-0.8,1-2.4,1c-3.4,0-6.9-4.7-9.2-6.7v6.7h-1.2v-14h6.4c0.8,0,1.6,0.2,2.3,0.6c0.7,0.4,1.3,1,1.7,1.7
			c0.4,0.7,0.6,1.5,0.6,2.3c0,0.8-0.2,1.6-0.6,2.3c-0.4,0.7-1,1.3-1.7,1.7c-0.7,0.4-1.5,0.6-2.3,0.6l-1.7,0h-0.4
			c0.5,0.5,1,0.9,1.4,1.3c1.6,1.4,3.2,2.8,5.5,2.9C201.8,13.9,202.7,13.5,202.7,13.5"/>
		<path class="st2" d="M219.5,7.6c0-1.3-0.2-2.4-0.7-3.5c-0.5-1-1.2-1.9-2.1-2.5c-0.9-0.6-2.1-0.9-3.4-0.9c-1.3,0-2.5,0.3-3.4,0.9
			c-0.9,0.6-1.6,1.5-2.1,2.5c-0.5,1-0.7,2.2-0.7,3.5c0,1.3,0.2,2.4,0.7,3.5c0.5,1,1.2,1.9,2.1,2.5c0.9,0.6,2.1,0.9,3.4,0.9
			c1.3,0,2.5-0.3,3.4-0.9c0.9-0.6,1.6-1.4,2.1-2.5C219.2,10,219.5,8.8,219.5,7.6 M220.8,7.6c0,1.3-0.3,2.6-0.9,3.7
			c-0.6,1.1-1.4,2-2.6,2.7s-2.5,1-4.1,1c-1.6,0-3-0.3-4.1-1c-1.1-0.7-2-1.5-2.6-2.6c-0.6-1.1-0.9-2.3-0.9-3.7c0-1.4,0.3-2.6,0.9-3.7
			c0.6-1.1,1.4-2,2.6-2.7c1.1-0.7,2.5-1,4.1-1c1.6,0,3,0.3,4.1,1c1.1,0.7,2,1.5,2.6,2.7C220.5,5,220.8,6.2,220.8,7.6"/>
		<path class="st2" d="M72.3,8.3c0.1,0,0.1,0,0.2,0c0.8,0,1.8-0.1,2.9-0.4c1.1-0.3,1.9-0.6,2.3-0.8V5.5h-0.2c-0.2,0.3-0.5,0.7-1,1
			c-0.5,0.3-1.1,0.6-1.8,0.9c-0.7,0.2-1.5,0.3-2.3,0.4V6.5V5.8V1.2h9.7l-0.2-0.6H71.1v7.1v0.6v6.3h10.7l0.2-0.6h-9.7V8.3z"/>
		<path class="st2" d="M138.6,8.3C138.7,8.3,138.7,8.3,138.6,8.3c0.9,0,1.9-0.1,3-0.4c1.1-0.3,1.9-0.6,2.3-0.8V5.5h-0.2
			c-0.2,0.3-0.5,0.7-1,1c-0.5,0.3-1.1,0.6-1.8,0.9c-0.7,0.2-1.4,0.3-2.3,0.4V6.5V5.8V1.2h9.7l-0.2-0.6h-10.7v7.1
			c0.3,0,0.6,0.1,1,0.1c0,0,0.1,0,0.1,0L138.6,8.3c-0.4,0-0.8,0-1.2-0.1v6.3h10.7l0.2-0.6h-9.7V8.3z"/>
		<path class="st2" d="M138.6,7.7c-0.1,0-0.1,0-0.2,0c-0.3,0-0.7,0-1-0.1v0.6c0.4,0,0.8,0.1,1.2,0.1V7.7z"/>
		<path class="st2" d="M55.1,30.7l-0.3,0.8l0.2-0.2c0.1-0.1,0.6-0.2,2.3-0.2v3.4c0,1.1-0.6,1.7-1.6,1.7c-0.5,0-1.3-0.2-1.6-0.6
			l-0.1-0.1L54,36.1l0,0c0.5,0.3,1.1,0.5,1.8,0.5c1.3,0,2.1-0.8,2.1-2.2l0-3.8H55.1z"/>
		<path class="st2" d="M67.3,33.7c0,1.3-0.7,2.6-2.3,2.6c-1.6,0-2.3-1.3-2.3-2.6c0-1.6,0.9-2.6,2.3-2.6C66.4,31,67.3,32,67.3,33.7
			 M65,30.6c-1.7,0-2.8,1.2-2.8,3.1c0,1.8,1.1,3,2.8,3c1.6,0,2.8-1.2,2.8-3C67.8,31.8,66.7,30.6,65,30.6"/>
		<path class="st2" d="M74.4,31.5l1.2,2.7h-2.3L74.4,31.5z M76.4,36.6h1l-0.2-0.2c-0.2-0.1-0.5-0.7-0.8-1.6l-2-4.5l-2,4.6l0,0
			c-0.1,0.3-0.5,1.3-0.8,1.5l-0.2,0.2h0.9l0.1,0l0-0.1c0,0,0-0.1,0-0.1c0-0.3,0.3-1.1,0.6-1.6c0-0.1,0.1-0.2,0.1-0.2h2.7
			c0,0,0,0.1,0.1,0.2c0.2,0.4,0.6,1.3,0.6,1.6c0,0,0,0.1,0,0.1L76.4,36.6z"/>
		<path class="st2" d="M85.2,35.8l-0.6-0.7l-0.4,0.3l0.5,0.7c-0.3,0.1-0.6,0.2-0.9,0.2c-1.6,0-2.3-1.3-2.3-2.6
			c0-1.6,0.9-2.6,2.3-2.6c1.4,0,2.3,1,2.3,2.6C86.1,34.6,85.8,35.4,85.2,35.8 M85.5,36.2c0.7-0.5,1.1-1.4,1.1-2.5
			c0-1.9-1.1-3.1-2.8-3.1c-1.7,0-2.8,1.2-2.8,3.1c0,1.8,1.1,3,2.8,3c0.4,0,0.9-0.1,1.2-0.3c0.4,0.6,0.5,0.8,0.5,0.9v0.2l0.7-0.5
			l-0.2,0C86.1,36.9,85.9,36.7,85.5,36.2"/>
		<path class="st2" d="M96.1,30.7h-0.9l0.1,0.1c0.1,0.1,0.1,0.4,0.1,1.4l0,1.8c0,1.1-0.6,2.2-1.9,2.2c-1.3,0-1.9-1.1-1.9-2.2v-1.8
			c0-1.1,0.1-1.4,0.1-1.4l0.1-0.1l-0.9,0l0.1,0.1c0.1,0.1,0.1,0.6,0.1,3.1c0,0.1,0,0.2,0,0.2c0,1.6,1,2.6,2.4,2.6
			c1.4,0,2.4-1,2.4-2.6c0,0,0-0.1,0-0.2c0-2.6,0.1-3,0.1-3.1L96.1,30.7z"/>
		<path class="st2" d="M101.2,35L101.2,35v-2.8c0-1.1,0.1-1.4,0.1-1.4l0.1-0.1l-1,0l0.1,0.1c0,0,0.1,0.3,0.1,1.4l0,0.1l0,2.7
			c0,1.1-0.1,1.4-0.1,1.4l-0.1,0.1h0.8l0.2,0l-0.1-0.1C101.3,36.4,101.2,36.2,101.2,35"/>
	</g>
	<polygon class="st2" points="102,28.2 101.4,27.9 100.8,29.7 100.9,29.7 	"/>
	<g>
		<path class="st2" d="M156.1,35L156.1,35v-2.8c0-1.1,0.1-1.4,0.1-1.4l0.1-0.1l-1,0l0.1,0.1c0,0,0.1,0.3,0.1,1.4l0,0.1l0,2.7
			c0,1.1-0.1,1.4-0.1,1.4l-0.1,0.1h0.8l0.2,0l-0.1-0.1C156.2,36.4,156.1,36.2,156.1,35"/>
	</g>
	<polygon class="st2" points="156.8,28.2 156.3,27.9 155.6,29.7 155.8,29.7 	"/>
	<g>
		<path class="st2" d="M111.1,30.7h-1l0.1,0.2c0,0,0.1,0.3,0.1,1.4l0,3.3l-4.2-5.1v4.6V35c0,1.1-0.1,1.4-0.1,1.4l-0.1,0.1l0.9,0
			l-0.1-0.1c0,0-0.1-0.3-0.1-1.5v-3.2l4.2,5.1v-4.6v-0.1c0-1.1,0.1-1.4,0.1-1.4L111.1,30.7z"/>
		<path class="st2" d="M123.9,33.4L123.9,33.4l-2.6-0.1l-0.3,0.7l0.2-0.1c0.1,0,0.5-0.1,2.2-0.1h0c0,0.7-0.3,1.3-0.7,1.8
			c-0.4,0.4-1,0.6-1.6,0.6c-1.4,0-2.4-1.1-2.4-2.6c0-1.6,0.9-2.6,2.4-2.6c0.7,0,1.6,0.3,1.9,0.8l0.1,0.2l0.2-0.7l-0.1,0
			c-0.6-0.4-1.4-0.7-2.2-0.7c-1.7,0-2.9,1.2-2.9,3.1c0,1.7,1.2,3,2.9,3c0.8,0,1.5-0.3,2-0.8C123.8,35.3,124,34.4,123.9,33.4"/>
		<path class="st2" d="M131.8,34.2h-2.3l1.2-2.7L131.8,34.2z M132.6,36.6h1l-0.2-0.2c-0.2-0.1-0.5-0.7-0.9-1.6l-2-4.5l-2,4.6l0,0
			c-0.1,0.3-0.5,1.2-0.8,1.5l-0.2,0.2h0.9l0.1,0l0-0.1c0,0,0-0.1,0-0.1c0-0.3,0.3-1.1,0.6-1.6c0-0.1,0.1-0.2,0.1-0.2h2.7
			c0,0,0,0.1,0.1,0.2c0.2,0.4,0.6,1.3,0.6,1.6c0,0,0,0.1,0,0.1L132.6,36.6z"/>
		<path class="st2" d="M141,32.2c0,0.7-0.5,1.2-1.3,1.2h-1.6v-2.4h1.6C140.5,31.1,141,31.5,141,32.2 M142.2,36.5
			c-0.3-0.2-1-1.2-1.2-1.6l-0.7-1c0.8-0.2,1.3-0.8,1.3-1.6c0-1-0.7-1.6-1.8-1.6l-2.3,0l0.1,0.1c0,0,0.1,0.3,0.1,1.4l0,0.1l0,2.7
			c0,1.1-0.1,1.4-0.1,1.4l-0.1,0.2l1,0l-0.1-0.1c0,0-0.1-0.3-0.1-1.4v-1.1c0.2,0,0.3,0,0.5,0c0.4,0,0.8,0,1.1,0l1,1.5l0.1,0.1
			c0.2,0.3,0.5,0.7,0.6,1l0,0.1h1.1L142.2,36.5z"/>
		<path class="st2" d="M150.7,35.5c-0.4,0.5-1.3,0.8-1.9,0.8c-1.5,0-2.4-1-2.4-2.6c0-1.6,0.9-2.6,2.4-2.6c0.7,0,1.6,0.3,1.9,0.8
			l0.1,0.2l0.2-0.7l0,0c-0.6-0.4-1.4-0.7-2.2-0.7c-1.7,0-2.9,1.2-2.9,3c0,1.9,1.1,3,2.9,3c0.8,0,1.5-0.2,2.2-0.7l0,0l-0.2-0.7
			L150.7,35.5z"/>
		<path class="st2" d="M163.2,31.5l1.2,2.7H162L163.2,31.5z M165.2,36.6h1l-0.2-0.2c-0.2-0.1-0.5-0.7-0.9-1.6l-2-4.5l-2,4.6l0,0
			c-0.1,0.3-0.5,1.2-0.8,1.5l-0.2,0.2h0.9l0.1,0l0-0.1c0,0,0-0.1,0-0.1c0-0.3,0.3-1.1,0.6-1.6c0-0.1,0.1-0.2,0.1-0.2h2.7
			c0,0,0,0.1,0.1,0.2c0.2,0.4,0.6,1.3,0.6,1.6c0,0,0,0.1,0,0.1L165.2,36.6z"/>
	</g>
</g>
</svg>
