<svg width="90" height="90" viewBox="0 0 90 90" fill="none" xmlns="http://www.w3.org/2000/svg">
<g clip-path="url(#clip0_88_1054)">
<path d="M45.2382 49.71C44.6352 49.7091 44.0455 49.8872 43.5437 50.2217C43.042 50.5562 42.6508 51.032 42.4196 51.589C42.1884 52.1459 42.1277 52.759 42.2452 53.3504C42.3626 53.9419 42.6529 54.4852 43.0793 54.9116C43.5057 55.338 44.049 55.6283 44.6405 55.7458C45.232 55.8632 45.845 55.8025 46.4019 55.5713C46.9589 55.3402 47.4347 54.949 47.7692 54.4472C48.1037 53.9455 48.2818 53.3558 48.281 52.7527C48.2798 51.9461 47.9589 51.1728 47.3885 50.6024C46.8181 50.0321 46.0448 49.7111 45.2382 49.71ZM45.2382 55.0273C44.7883 55.0273 44.3486 54.8939 43.9745 54.644C43.6005 54.394 43.3089 54.0388 43.1368 53.6232C42.9646 53.2076 42.9196 52.7502 43.0073 52.309C43.0951 51.8678 43.3117 51.4625 43.6298 51.1444C43.9479 50.8263 44.3532 50.6096 44.7944 50.5219C45.2357 50.4341 45.693 50.4792 46.1086 50.6513C46.5243 50.8235 46.8795 51.115 47.1294 51.4891C47.3794 51.8631 47.5127 52.3029 47.5127 52.7527C47.5127 53.356 47.2731 53.9345 46.8466 54.3611C46.42 54.7877 45.8414 55.0273 45.2382 55.0273Z" fill="#D5B183"/>
<path d="M89.9485 43.0493C89.897 41.8133 89.7854 40.5258 89.6137 39.2126C88.6547 31.8361 85.8778 24.8134 81.5326 18.7758L81.4424 18.6514C81.1163 18.2007 80.7687 17.7372 80.3781 17.2394L80.3223 17.1664L80.1936 17.0034C79.8502 16.5742 79.494 16.145 79.1249 15.7159L78.8717 15.4198C78.5112 14.9906 78.1465 14.6129 77.7903 14.231L77.4813 13.9048C77.0864 13.4756 76.7259 13.128 76.3783 12.789L76.1594 12.5787L76.0307 12.4585C75.6015 12.0294 75.2324 11.7032 74.8934 11.4028L74.696 11.2311L74.5329 11.0895C74.1595 10.7633 73.7518 10.4157 73.3355 10.0767L73.1639 9.94362L73.0222 9.82774C72.5931 9.50158 72.1639 9.15396 71.7347 8.81921L71.6961 8.78916C70.2737 7.74317 68.7921 6.78024 67.2586 5.90518L67.0182 5.76785L66.6277 5.54468C66.3616 5.39448 66.0827 5.25285 65.8166 5.11552L65.366 4.88378C65.1642 4.78078 64.9625 4.67348 64.7565 4.57478C64.4819 4.43744 64.2029 4.3087 63.924 4.17995L63.6107 4.03832L62.8382 3.6864L61.9155 3.30445H61.864C61.5464 3.1757 61.2074 3.03837 60.864 2.90962C60.5207 2.78087 60.2246 2.67358 59.9027 2.562C59.5808 2.45041 59.186 2.31308 58.8512 2.2015L57.8942 1.90538C57.5423 1.80238 57.1818 1.69938 56.787 1.59209C56.4694 1.50625 56.1561 1.42042 55.8385 1.34317C55.5209 1.26592 55.1433 1.1758 54.6755 1.0728H54.624C54.3321 1.00842 54.036 0.939754 53.7442 0.883963C53.315 0.79813 52.8859 0.725175 52.5168 0.665092L52.3194 0.630758L51.6112 0.514882C51.1821 0.450507 50.7529 0.403299 50.2894 0.347508L50.0062 0.313174C49.8216 0.287424 49.6328 0.265968 49.444 0.248802C48.9418 0.197302 48.4269 0.162967 47.9376 0.132926L47.6715 0.111466L47.2424 0.0857175C46.4656 0.0470927 45.736 0.0256348 45.0107 0.0256348C34.8144 0.026924 24.9209 3.49108 16.9509 9.85057C8.9809 16.2101 3.40702 25.0878 1.14242 35.0294C-1.12218 44.971 0.0567702 55.387 4.48612 64.571C8.91547 73.7549 16.3326 81.1623 25.5224 85.5795C31.6026 88.5153 38.2718 90.027 45.0236 89.9999H45.1094C45.7918 89.9999 46.4913 89.9784 47.1951 89.9441L47.6629 89.9141H47.9376C48.3882 89.884 48.8689 89.8497 49.3495 89.8068L50.0233 89.7295H50.2036C50.7186 89.6694 51.1134 89.6179 51.4911 89.5621C51.7829 89.5235 52.0747 89.4763 52.3494 89.4291C52.7571 89.3604 53.1734 89.2875 53.5854 89.2059C53.8729 89.1501 54.1605 89.0944 54.4437 89.03C54.8171 88.9527 55.2076 88.8626 55.6797 88.7467L55.8728 88.6995L56.4994 88.5407C56.9286 88.4249 57.3878 88.2961 57.7869 88.1717L58.053 88.0944L58.4822 87.9613C59.0744 87.7768 59.6838 87.5708 60.2889 87.3519L60.3834 87.3176L60.4949 87.279C61.1001 87.0558 61.7309 86.8069 62.3618 86.5408C62.4991 86.485 62.6322 86.4207 62.7695 86.3606L63.0184 86.249C63.4133 86.0773 63.8295 85.8928 64.2415 85.6954L64.8381 85.4035L64.9883 85.3263C65.4174 85.1074 65.7694 84.9358 66.0827 84.7641L66.8423 84.3349L67.8809 83.7341L68.6233 83.3049C68.9967 83.0732 69.3486 82.8414 69.649 82.644L69.7949 82.5496L70.34 82.1848C70.6833 81.9488 71.0138 81.7127 71.4086 81.4252L71.6317 81.2664L72.0008 80.996C72.43 80.6613 72.9021 80.3008 73.3999 79.8974L73.5072 79.8115L73.6317 79.7128C74.1209 79.3051 74.6273 78.8545 75.1294 78.4253C75.2367 78.3309 75.3397 78.2279 75.447 78.1292L75.6487 77.9404C75.9577 77.6486 76.2882 77.3395 76.6058 77.0263C76.7603 76.8761 76.9062 76.7215 77.0564 76.5671L77.1851 76.434C77.4383 76.1765 77.7302 75.8718 78.022 75.5757C78.2194 75.3611 78.4125 75.1465 78.6014 74.9319C78.8632 74.6401 79.1249 74.3354 79.3782 74.035C79.567 73.8161 79.7515 73.6058 79.9361 73.3655C80.1936 73.0479 80.4425 72.726 80.6785 72.4213L80.7944 72.2711L81.1892 71.7518C81.451 71.3913 81.7042 71.0351 81.936 70.7004L82.0776 70.4987L82.3694 70.0695C82.657 69.6403 82.9617 69.164 83.2964 68.6189L83.3737 68.4988L83.4681 68.3486C83.8028 67.7949 84.1462 67.207 84.4766 66.5976C84.5496 66.4688 84.614 66.3358 84.6826 66.207C84.7513 66.0783 84.7727 66.0354 84.8157 65.9495C85.0088 65.5847 85.2448 65.1728 85.4208 64.7693C85.5195 64.5719 85.6139 64.3745 85.704 64.1728L85.7813 64.0054C85.983 63.5763 86.1418 63.22 86.2834 62.8939C86.425 62.5677 86.5152 62.3531 86.6267 62.0828C86.7812 61.7051 86.9314 61.3274 87.0559 60.9626C87.1589 60.688 87.2619 60.409 87.3606 60.1301C87.4937 59.7653 87.6138 59.4048 87.7554 58.9713L87.8026 58.8297C87.8742 58.6065 87.9471 58.3791 88.0215 58.1473C88.146 57.7182 88.2619 57.3105 88.382 56.8813L88.4507 56.6281C88.4979 56.465 88.5408 56.2976 88.5837 56.1345C88.7168 55.6153 88.8455 55.0573 88.9786 54.4179L89.0172 54.2591C89.0172 54.199 89.0472 54.1346 89.0558 54.0874L89.1073 53.9758H89.0773C89.3348 52.6884 89.5408 51.3665 89.691 49.9932C89.721 49.71 89.7468 49.4267 89.7725 49.1349C89.8326 48.5212 89.8712 48.0062 89.897 47.5212C89.897 47.4311 89.897 47.3367 89.897 47.2423V47.062C89.9313 46.3239 89.9485 45.6629 89.9485 45.0492C90 44.2982 89.9742 43.6201 89.9485 43.0493ZM87.4851 32.7494H62.821C62.7082 31.0952 62.3614 29.4653 61.791 27.9084H85.7942C86.4519 29.4935 87.0165 31.1157 87.4851 32.7666V32.7494ZM52.7485 55.0273V53.0017H56.8127V55.0273H52.7485ZM56.0188 55.7998V77.258H53.6712V55.7998H56.0188ZM33.6293 55.0273V53.0017H37.6935V55.0273H33.6293ZM36.8995 55.7998V77.258H34.5477V55.7998H36.8995ZM28.372 33.9553C28.372 33.8566 28.372 33.7536 28.372 33.6506C28.372 33.612 28.372 33.5734 28.372 33.5348H33.7795V49.5426H32.8611V55.7998H33.7795V77.258H28.3763V34.612L28.372 33.9553ZM44.8691 20.6942V26.3806L32.5177 14.0293L35.4232 11.1281L44.8691 20.6942ZM35.9639 10.5831L38.672 7.87934L44.8691 14.188V19.5998L35.9639 10.5831ZM44.5472 27.1402H29.8054C31.268 23.9004 33.7042 21.1972 36.775 19.4067L44.5472 27.1402ZM60.9713 27.9084C61.5728 29.4588 61.9388 31.0906 62.0571 32.7494H28.4149C28.533 31.091 28.8975 29.4594 29.4964 27.9084H60.9713ZM55.1819 11.2526L57.9886 14.0593L45.6373 26.4106V20.6942L55.1819 11.2526ZM45.6373 19.6427V14.2052L51.8602 7.91796L54.6368 10.6989L45.6373 19.6427ZM53.7184 19.4153C56.7843 21.2139 59.2119 23.9251 60.6623 27.1703H45.9677L53.7184 19.4153ZM56.0359 49.5555H53.6884V33.5476H56.0359V49.5555ZM56.8299 50.328V52.2463H52.7485V50.3065L56.8299 50.328ZM36.8995 49.5555H34.5477V33.5476H36.8995V49.5555ZM37.6935 50.328V52.2463H33.6293V50.3065L37.6935 50.328ZM37.6677 55.8127H38.4617V49.5426H37.6677V33.5348H52.9202V49.5426H51.9975V55.7998H52.9202V77.258H37.6677V55.8127ZM56.8041 55.8127H57.5981V49.5426H56.8041V33.5348H62.0786C62.0786 33.5734 62.0786 33.6077 62.0786 33.6463C62.0786 33.685 62.0786 33.8523 62.0786 33.9553V34.2257V34.5347V77.258H56.8041V55.8127ZM76.9748 14.497C80.5129 18.1986 83.3809 22.4868 85.4508 27.1703H61.4949C60.0274 23.7076 57.5022 20.7978 54.2806 18.8574L58.641 14.497H76.9748ZM47.8475 0.883963H47.9376C48.6672 0.931171 49.3839 0.995547 50.0834 1.0728H50.1135C59.9922 2.23553 69.1923 6.68893 76.2324 13.716H58.7568L45.8304 0.789546C46.5214 0.802421 47.1994 0.832464 47.8432 0.871089L47.8475 0.883963ZM45.2725 1.31313L51.3194 7.39009L45.2553 13.5143L39.2127 7.36434L45.2725 1.31313ZM15.1795 12.3813C15.6859 11.9221 16.2181 11.4543 16.7674 10.9994L16.7202 10.9393L16.7846 10.9822C17.3125 10.553 17.8661 10.1239 18.4283 9.6947L18.3854 9.63462L18.454 9.67325C18.9948 9.24408 19.5656 8.85784 20.1492 8.45871L20.1879 8.43296C20.7415 8.05529 21.3251 7.68193 21.9045 7.31285L21.9431 7.28709H21.9646C22.5268 6.94376 23.1233 6.59614 23.7456 6.2571L23.8186 6.21418C24.3851 5.90089 24.9945 5.5876 25.6254 5.27861L25.6726 5.25715L25.7241 5.22711C26.3034 4.94815 26.9043 4.67348 27.5652 4.39023L27.6253 4.36448L27.6811 4.33445C28.2647 4.08982 28.8741 3.84519 29.5522 3.59199L29.6209 3.56195L29.6895 3.5362C30.2947 3.31304 30.9212 3.10704 31.6122 2.87958L31.6809 2.85382H31.7452C32.3547 2.66499 32.9941 2.48045 33.7022 2.29162H33.7709H33.8439C34.4661 2.12854 35.1313 1.97404 35.8395 1.82383H35.9081H35.9811C36.6248 1.69079 37.29 1.57063 38.0196 1.45475H38.084H38.157C38.8093 1.35175 39.4916 1.26592 40.2341 1.18438H40.3028H40.3671C41.0452 1.11571 41.7448 1.05992 42.513 1.017H42.6245C43.294 0.98267 43.9936 0.961212 44.706 0.95692L31.7624 13.716H13.7676C14.2182 13.2654 14.6903 12.819 15.1623 12.3813H15.1795ZM13.0337 14.4842H31.8783L36.2214 18.8316C32.988 20.771 30.4531 23.686 28.9814 27.1574H4.54054C6.6151 22.4744 9.48579 18.1865 13.0251 14.4842H13.0337ZM3.16291 30.6937L3.22728 30.5049C3.25303 30.419 3.28308 30.3332 3.31312 30.2474C3.41183 29.9641 3.51912 29.6809 3.62212 29.389C3.7895 28.9599 3.98692 28.4363 4.20579 27.9127H28.6681C28.0991 29.4698 27.7537 31.0997 27.6424 32.7537H2.50629C2.69512 32.1099 2.90971 31.4233 3.15863 30.6937H3.16291ZM14.6516 77.1293C14.1653 76.6686 13.6889 76.198 13.2225 75.7173L13.171 75.6572C12.6904 75.1594 12.2097 74.6401 11.7462 74.1122L11.6475 73.9964C11.2183 73.49 10.7677 72.9664 10.36 72.4428L10.2227 72.2668C9.83213 71.7647 9.4373 71.2411 9.05534 70.7047L8.88368 70.4686C8.53605 69.9751 8.17984 69.4515 7.83222 68.9108L7.63481 68.6061C7.32581 68.1168 7.01252 67.5975 6.69923 67.0611L6.67348 67.0139L6.48465 66.6834C6.21428 66.207 5.9439 65.7092 5.66065 65.1556L5.59628 65.0311L5.4289 64.7049C5.20144 64.25 4.96969 63.7565 4.71649 63.1986L4.64783 63.0527L4.48045 62.675C4.28733 62.2458 4.09421 61.7695 3.86675 61.1901L3.79378 61.0099C3.73799 60.8725 3.6822 60.7395 3.6307 60.6021C3.43758 60.0914 3.26162 59.5722 3.11142 59.1344L3.03846 58.9241C2.98696 58.7782 2.93975 58.628 2.89254 58.4949C2.73375 58.01 2.59212 57.5122 2.46337 57.0444L2.39042 56.7955C2.34751 56.641 2.30029 56.4907 2.26167 56.3363C2.13721 55.8685 2.02992 55.405 1.91404 54.89C1.89259 54.8041 1.87113 54.7183 1.85397 54.6325C1.81105 54.4694 1.77243 54.302 1.7381 54.1347C1.63939 53.6754 1.55784 53.1991 1.4763 52.7399V52.6841C1.4763 52.5854 1.43767 52.4867 1.42051 52.3879C1.40334 52.2892 1.36043 52.0661 1.33468 51.903C1.26172 51.4481 1.20592 50.976 1.15013 50.5254V50.4095C1.15013 50.3065 1.12439 50.2035 1.10723 50.1005C1.09006 49.9975 1.0686 49.7915 1.05143 49.637C0.99135 49.0791 0.952726 48.504 0.918393 47.9976C0.918393 47.9032 0.918385 47.8131 0.896927 47.7186C0.875469 47.6242 0.896928 47.4654 0.871178 47.341C0.828262 46.5513 0.806806 45.7702 0.806806 45.0149H0.733843L0.806806 44.9892C0.806806 44.4055 0.806804 43.7789 0.858304 43.0279C0.858304 42.8391 0.858307 42.6502 0.888349 42.4571C0.922682 41.8434 0.965597 41.2726 1.02139 40.7147C1.02139 40.5387 1.05572 40.3671 1.07718 40.1911L1.09863 40.0151C1.14584 39.586 1.19734 39.1826 1.25742 38.7834C1.30034 38.4744 1.34326 38.1654 1.39476 37.8564C1.43338 37.6247 1.4763 37.3972 1.51922 37.1655L1.54926 36.9938C1.66514 36.3715 1.78959 35.775 1.91834 35.2128V35.187L2.03421 34.6849C2.1415 34.2558 2.23163 33.8781 2.32175 33.5476H27.6424C27.6424 33.5863 27.6424 33.6249 27.6424 33.6635C27.6424 33.7665 27.6424 33.8695 27.6424 33.9725V77.1293H14.6817H14.6516ZM68.4001 82.4938L68.2929 82.5668L68.1684 82.644C67.7392 82.9101 67.3101 83.1633 66.8809 83.4036C66.8122 83.438 66.7436 83.4809 66.6792 83.5195L66.3788 83.6912C65.9925 83.9058 65.5934 84.1203 65.19 84.3178L65.0183 84.4079C64.8595 84.4937 64.6965 84.5753 64.5334 84.6568C64.1772 84.8328 63.8253 84.9958 63.4004 85.1933L63.306 85.2362L62.6408 85.5366C62.2717 85.6997 61.894 85.8542 61.5421 85.9958L60.6838 86.3305L59.6066 86.7211C59.3205 86.8298 59.0158 86.9328 58.6925 87.0301C58.3019 87.1588 57.9543 87.2661 57.6367 87.3648L56.6582 87.6438L55.6239 87.9142C55.2677 88.0043 54.8986 88.0858 54.5768 88.1588H54.5253C54.2034 88.2274 53.8858 88.3004 53.5639 88.3605C53.2421 88.4206 52.8472 88.4935 52.4996 88.5536L52.2207 88.6008L51.4653 88.7253C51.1177 88.7768 50.7615 88.8197 50.4182 88.8626L49.989 88.9141C49.7744 88.9398 49.5598 88.9699 49.3453 88.9871C48.9161 89.03 48.5084 89.06 48.1007 89.0858H47.9805L47.6715 89.1072L47.1823 89.1416C46.5342 89.1716 45.8476 89.1888 45.148 89.1931H44.8347C44.1309 89.1931 43.4442 89.1716 42.7919 89.1416L42.3113 89.1072L42.0108 89.0858H41.8907C41.4615 89.06 41.0324 89.03 40.6032 88.9871C40.4058 88.9871 40.2084 88.9441 40.0109 88.9184L39.7105 88.8798H39.5603C39.1955 88.8369 38.8222 88.7939 38.4617 88.7381L37.7879 88.6266L37.4746 88.5751C37.1055 88.5107 36.7193 88.4463 36.3459 88.3691C36.0884 88.3219 35.8352 88.2618 35.5777 88.206L35.406 88.1674C35.0326 88.0858 34.6507 88 34.2687 87.9056L33.4104 87.6781L33.3289 87.6524C32.9769 87.5579 32.6036 87.4549 32.2302 87.3434C31.8568 87.2318 31.6036 87.1459 31.2946 87.0472C30.9127 86.9228 30.565 86.8026 30.2303 86.6867L29.3076 86.3434C28.9557 86.2104 28.6081 86.073 28.2733 85.9357C27.9386 85.7984 27.6639 85.6868 27.3635 85.5537C27.0631 85.4207 26.7455 85.2791 26.3592 85.0988L25.4752 84.6697C25.1318 84.498 24.7885 84.3178 24.4924 84.1633L24.428 84.1289L23.6297 83.6998C23.2993 83.5195 22.9688 83.3221 22.6727 83.1504L22.4796 83.0346C22.265 82.9101 22.0504 82.7856 21.8401 82.6569C21.6299 82.5281 21.3037 82.3136 21.0376 82.1419L20.6857 81.9144L20.1063 81.5325C19.8488 81.3551 19.5956 81.1748 19.3467 80.9917L19.175 80.8673L18.9261 80.6913C18.7587 80.5711 18.5914 80.4553 18.4283 80.3308C18.1622 80.1291 17.8918 79.9017 17.6343 79.7085L17.4584 79.5669L17.218 79.3781L16.8103 79.0562C16.3383 78.6657 15.8748 78.2622 15.4284 77.8631H27.5866V78.0048H74.3655C72.5071 79.6666 70.5116 81.1683 68.4001 82.4938ZM89.1803 46.8989V47.0706C89.1803 47.2165 89.1803 47.3581 89.1803 47.4998C89.1545 48.0019 89.1116 48.4911 89.0687 48.946C89.0344 49.3151 89 49.6842 88.9571 50.049C88.794 51.4824 88.5623 52.9072 88.2662 54.2891C88.0559 55.2505 87.8027 56.2504 87.5108 57.2632C87.5108 57.3233 87.4765 57.3791 87.4593 57.4435L87.3949 57.6667C87.2576 58.1302 87.1031 58.5937 86.9873 58.9542L86.9529 59.0529L86.8156 59.4606C86.6611 59.8897 86.5066 60.3189 86.3521 60.7481C86.3521 60.8081 86.3049 60.8682 86.2791 60.9326L86.2147 61.1C85.6364 62.5638 84.9817 63.9963 84.2534 65.3916L84.202 65.486C83.9745 65.9152 83.7256 66.3744 83.4466 66.8594C83.4166 66.9152 83.3866 66.9709 83.3522 67.0267C81.1542 70.8287 78.4065 74.285 75.1981 77.2837V77.2494H62.8768V33.9038V33.8266C62.8768 33.7579 62.8768 33.6893 62.8768 33.6206C62.8747 33.5863 62.8747 33.5519 62.8768 33.5176H87.734C88.7252 37.2653 89.2272 41.1255 89.2275 45.002C89.2275 45.5557 89.2275 46.1436 89.1803 46.9118V46.8989Z" fill="#D5B183"/>
</g>
<defs>
<clipPath id="clip0_88_1054">
<rect width="90" height="90" fill="white"/>
</clipPath>
</defs>
</svg>
