<svg version="1.0" xmlns="http://www.w3.org/2000/svg"
	width="3509.000000pt" height="2481.000000pt" viewBox="0 0 3509.000000 2481.000000"
	preserveAspectRatio="xMidYMid meet">

	<g transform="translate(0.000000,2481.000000) scale(0.100000,-0.100000)"
		fill="#000000" stroke="none">
		<path
			d="M17440 16609 c-1162 -70 -2208 -793 -2692 -1861 -115 -255 -203 -555 -251 -858 -29 -186 -32 -690 -4 -875 68 -455 220 -872 450 -1242 461 -743 1199 -1259 2052 -1437 232 -48 361 -60 640 -60 280 0 405 12 642 60 1011 205 1876 912 2281 1864 472 1112 272 2394 -519 3315 -556 649 -1349 1039 -2224 1095 -173 11 -188 11 -375 -1z m-280 -504 l-455 -455 -630 0 -630 1 80 77 c219 212 539 426 845 562 147 66 432 161 582 194 199 44 413 72 578 75 l85 1 -455 -455z m735 445 c671 -61 1285 -321 1785 -756 52 -45 108 -96 124 -113 l30 -31 -615 0 -614 0 -455 455 -455 455 45 0 c25 0 95 -5 155 -10z m-23 -665 c-114 -115 -208 -212 -210 -215 -4 -5 -286 275 -364 363 l-61 68 209 210 209 209 212 -212 213 -212 -208 -211z m-460 -52 l218 -218 0 -190 0 -189 -71 69 c-39 39 -179 182 -311 318 l-241 248 89 90 c49 49 91 89 94 89 3 0 103 -98 222 -217z m808 122 l95 -95 -260 -261 c-143 -143 -286 -283 -317 -311 l-58 -50 0 184 1 183 215 223 c119 122 219 222 223 222 3 0 49 -43 101 -95z m-590 -1000 l0 -200 -435 435 -435 435 102 102 101 101 333 -336 333 -337 1 -200z m488 238 l-433 -433 -3 192 -2 192 337 338 338 338 97 -97 98 -98 -432 -432z m-1253 246 l150 -151 -25 -16 c-202 -137 -353 -305 -451 -504 l-33 -68 -858 0 c-472 0 -858 3 -858 6 0 3 35 74 77 158 118 229 279 464 449 654 l65 72 667 0 667 0 150 -151z m3117 56 c193 -222 383 -512 482 -737 l26 -58 -843 0 -843 0 -33 68 c-85 173 -243 360 -396 466 -38 27 -72 51 -75 53 -2 2 63 71 145 153 l150 150 652 0 652 0 83 -95z m-2636 -793 c-140 -1 -372 -1 -516 0 l-262 3 37 70 c83 156 223 314 370 418 l80 56 273 -272 272 -272 -254 -3z m979 499 c137 -93 280 -248 363 -393 22 -40 44 -81 48 -90 6 -17 -22 -18 -505 -18 -281 0 -511 3 -511 7 0 13 524 533 536 533 6 0 37 -18 69 -39z m-1848 -573 c-3 -13 -14 -59 -26 -103 -12 -43 -24 -110 -28 -147 l-6 -68 -884 0 -885 0 7 33 c10 45 95 279 107 295 8 9 194 12 865 12 l855 0 -5 -22z m2299 -13 c18 -44 51 -182 60 -252 l7 -53 -1187 0 -1187 0 6 58 c8 65 50 235 66 263 9 18 43 19 1115 19 l1105 0 15 -35z m1755 -12 c24 -56 99 -271 99 -284 0 -5 -369 -9 -869 -9 l-868 0 -6 68 c-3 37 -16 103 -28 147 -11 44 -23 90 -26 103 l-5 22 841 0 842 0 20 -47z m-4121 -1888 l0 -1535 -459 0 -459 0 -100 108 c-241 258 -390 469 -533 750 -298 587 -402 1247 -298 1892 19 118 56 296 66 313 2 4 404 7 894 7 l889 0 0 -1535z m438 973 l-3 -563 -32 -3 -33 -3 0 -220 0 -219 35 0 35 0 0 -755 0 -755 -190 0 -190 0 0 1540 0 1540 190 0 190 0 -2 -562z m220 0 l-3 -563 -80 0 -80 0 -3 563 -2 562 85 0 85 0 -2 -562z m1130 0 l-3 -563 -32 -3 -33 -3 0 -220 0 -219 35 0 35 0 0 -755 0 -755 -540 0 -540 0 0 755 0 755 30 0 30 0 0 219 0 220 -27 3 -28 3 -3 563 -2 562 540 0 540 0 -2 -562z m220 0 l-3 -563 -80 0 -80 0 -3 563 -2 562 85 0 85 0 -2 -562z m425 -250 c4 -446 7 -1139 7 -1540 l0 -728 -190 0 -190 0 0 755 0 755 30 0 30 0 0 219 0 220 -27 3 -28 3 -3 563 -2 562 183 0 184 0 6 -812z m1816 775 c68 -254 109 -622 96 -873 -23 -478 -120 -859 -325 -1275 -144 -294 -318 -542 -539 -767 l-124 -128 -433 0 -434 0 0 1540 0 1540 875 0 874 0 10 -37z m-3539 -1213 l0 -70 -140 0 -140 0 0 70 0 70 140 0 140 0 0 -70z m1350 0 l0 -70 -140 0 -140 0 0 70 0 70 140 0 140 0 0 -70z m-1350 -190 l0 -70 -140 0 -140 0 0 70 0 70 140 0 140 0 0 -70z m1350 0 l0 -70 -140 0 -140 0 0 70 0 70 140 0 140 0 0 -70z m-1400 -885 l0 -755 -85 0 -85 0 0 755 0 755 85 0 85 0 0 -755z m1350 0 l0 -755 -85 0 -85 0 0 755 0 755 85 0 85 0 0 -755z m-145 -815 l1430 0 -30 -25 c-510 -431 -1091 -680 -1735 -745 -135 -13 -465 -13 -600 0 -572 57 -1123 272 -1573 614 -62 47 -132 104 -157 126 l-45 41 640 -5 c352 -3 1284 -6 2070 -6z" />
		<path
			d="M15358 13811 c-73 -24 -116 -51 -168 -107 -106 -115 -144 -322 -91 -501 39 -132 157 -241 293 -273 63 -14 174 -12 247 5 79 19 204 83 197 101 -3 7 -8 29 -12 49 l-6 35 -44 -40 c-104 -96 -292 -127 -421 -70 -89 39 -164 132 -193 238 -18 67 -14 208 8 278 51 164 184 253 361 242 99 -7 182 -39 241 -94 l47 -44 10 47 c13 54 11 56 -72 98 -114 56 -284 72 -397 36z" />
		<path
			d="M17562 13089 c-111 -55 -151 -178 -94 -290 94 -186 377 -135 399 73 7 68 -8 117 -50 165 -63 72 -171 93 -255 52z m154 -48 c155 -71 114 -301 -54 -301 -96 0 -162 64 -162 156 0 65 29 111 90 142 53 27 73 27 126 3z" />
		<path
			d="M19551 13793 c20 -23 21 -835 2 -854 -7 -7 -13 -17 -13 -21 0 -4 132 -8 293 -8 l294 0 12 43 c7 23 14 49 17 58 4 15 -1 14 -38 -4 -38 -19 -64 -22 -260 -25 l-218 -4 0 182 0 182 164 -4 c117 -2 168 -7 180 -17 14 -12 16 -7 16 48 0 61 0 62 -22 50 -14 -8 -85 -14 -180 -17 l-158 -5 0 177 0 176 108 -1 c162 0 316 -14 351 -32 35 -17 36 -15 20 49 l-11 44 -285 0 c-264 0 -284 -1 -272 -17z" />
		<path
			d="M16443 9256 c-53 -137 -36 -146 43 -23 32 50 60 94 62 97 3 7 -42 30 -57 30 -4 0 -26 -47 -48 -104z" />
		<path
			d="M23152 9258 c-54 -140 -36 -147 45 -20 62 96 62 97 40 109 -12 7 -27 12 -33 13 -7 0 -30 -46 -52 -102z" />
		<path
			d="M13030 8716 c-83 -189 -165 -360 -182 -380 l-29 -36 60 0 61 0 0 33 c0 17 18 73 39 122 l37 90 168 0 168 0 39 -90 c21 -49 39 -105 39 -122 l0 -33 60 0 61 0 -30 38 c-17 20 -98 190 -181 377 -83 186 -152 341 -154 342 -2 2 -72 -151 -156 -341z m232 35 c32 -74 58 -138 58 -143 0 -4 -61 -8 -135 -8 -80 0 -135 4 -135 10 0 5 25 67 56 137 31 70 60 139 66 153 9 24 10 24 20 6 6 -11 37 -81 70 -155z" />
		<path
			d="M17068 8696 c-2 -289 -6 -366 -17 -379 -12 -16 -8 -17 44 -17 52 0 56 2 44 16 -17 20 -28 569 -11 563 5 -2 112 -130 237 -284 125 -154 238 -291 251 -305 l24 -25 0 363 c0 231 4 370 10 383 10 18 7 19 -46 19 -51 0 -55 -1 -43 -17 11 -12 15 -76 17 -291 2 -174 0 -273 -6 -271 -5 2 -120 140 -255 306 l-245 303 -4 -364z" />
		<path
			d="M20032 9019 c-68 -157 -250 -564 -274 -614 -17 -33 -39 -70 -51 -82 l-20 -23 60 0 60 0 5 43 c3 24 20 79 39 122 l34 80 166 3 166 2 30 -67 c41 -93 56 -141 50 -164 -5 -17 1 -19 61 -19 l66 0 -26 28 c-33 35 -48 65 -208 427 -73 165 -134 302 -136 304 -2 2 -12 -16 -22 -40z m93 -257 c37 -85 65 -156 62 -158 -2 -3 -65 -3 -140 -2 l-135 3 50 115 c85 196 88 203 92 199 2 -2 34 -73 71 -157z" />
		<path
			d="M24032 9040 c-20 -51 -254 -575 -283 -634 -17 -34 -40 -71 -51 -83 l-21 -23 60 0 60 0 5 43 c3 23 21 78 40 122 l34 80 165 3 165 2 23 -47 c32 -65 61 -151 61 -180 0 -22 4 -23 61 -23 l61 0 -29 33 c-17 19 -92 175 -177 367 -180 406 -162 371 -174 340z m83 -275 c37 -86 66 -158 63 -161 -3 -2 -66 -3 -140 -2 l-136 3 55 125 c30 69 61 140 68 158 8 17 16 32 18 32 2 0 35 -70 72 -155z" />
		<path
			d="M11931 9025 c-136 -38 -208 -127 -233 -290 -34 -218 75 -396 266 -435 78 -16 152 -6 225 31 115 58 172 156 179 307 11 239 -104 386 -311 398 -46 2 -92 -2 -126 -11z m239 -76 c97 -53 145 -162 138 -308 -10 -191 -124 -301 -297 -289 -81 6 -136 33 -184 89 -106 123 -98 358 15 466 58 56 112 74 203 70 62 -2 91 -9 125 -28z" />
		<path
			d="M14253 9030 c-97 -21 -173 -81 -219 -177 -27 -54 -29 -66 -29 -183 0 -122 1 -127 33 -192 38 -79 102 -139 170 -163 71 -24 158 -29 222 -11 l55 15 23 -27 c12 -15 28 -42 34 -59 7 -18 14 -33 18 -33 3 1 20 13 38 29 l32 28 -46 47 -47 46 37 37 c152 153 132 476 -37 591 -23 16 -57 34 -76 41 -48 16 -157 22 -208 11z m213 -78 c97 -49 148 -148 148 -287 1 -99 -21 -168 -72 -226 l-37 -41 -36 45 c-35 45 -35 45 -59 27 l-23 -18 32 -41 33 -41 -29 -11 c-15 -6 -62 -9 -104 -7 -122 7 -196 62 -240 178 -27 72 -26 200 2 277 26 69 87 133 150 157 61 22 181 16 235 -12z" />
		<path
			d="M18822 9029 c-23 -4 -65 -20 -93 -35 -224 -122 -236 -505 -20 -643 107 -69 247 -76 361 -20 105 53 159 144 168 285 l5 84 -165 0 -165 0 -16 -41 c-15 -38 -15 -40 1 -33 9 5 77 10 150 12 l132 4 0 -31 c0 -44 -35 -130 -70 -173 -94 -113 -288 -121 -398 -15 -58 56 -85 120 -90 219 -8 155 52 267 170 318 102 44 269 14 338 -60 l29 -31 10 37 c6 20 8 41 5 46 -11 17 -105 58 -166 73 -69 16 -120 17 -186 4z" />
		<path
			d="M22194 9030 c-103 -22 -196 -96 -235 -188 -44 -102 -41 -271 6 -369 33 -66 110 -136 178 -160 108 -38 269 -18 374 46 30 19 31 21 21 60 l-10 40 -33 -34 c-47 -47 -133 -77 -221 -77 -157 0 -257 90 -283 254 -21 128 23 261 107 325 53 40 98 53 184 53 85 0 159 -27 208 -75 l37 -36 11 41 10 40 -44 26 c-85 50 -220 73 -310 54z" />
		<path
			d="M10809 8988 c-6 -24 -13 -47 -16 -52 -3 -4 7 0 23 10 23 15 52 20 156 23 l128 3 0 -236 c0 -252 -5 -283 -53 -334 -30 -32 -117 -56 -175 -47 -56 8 -129 38 -158 66 l-21 20 -7 -38 c-7 -45 1 -53 83 -84 114 -43 255 -23 323 45 60 62 63 75 66 384 l3 282 -170 0 -170 0 -12 -42z" />
		<path
			d="M15210 9010 c7 -13 12 -108 14 -248 3 -275 11 -308 91 -389 41 -40 65 -55 110 -69 146 -42 284 15 347 145 21 42 23 65 29 292 4 155 11 253 18 267 11 21 10 22 -45 22 -50 0 -55 -2 -44 -16 19 -22 27 -364 10 -456 -24 -134 -104 -208 -224 -208 -117 0 -201 72 -226 196 -17 80 -10 445 9 467 12 16 8 17 -43 17 -54 0 -56 -1 -46 -20z" />
		<path
			d="M16391 9013 c11 -13 14 -81 14 -348 0 -267 -3 -335 -14 -348 -12 -16 -8 -17 44 -17 52 0 56 1 44 17 -11 13 -14 81 -14 348 0 267 3 335 14 348 12 16 8 17 -44 17 -52 0 -56 -1 -44 -17z" />
		<path
			d="M20896 9003 c11 -23 14 -88 14 -338 0 -250 -3 -315 -14 -337 l-15 -28 60 0 60 0 -15 22 c-13 18 -16 52 -16 165 l0 143 98 0 98 0 89 -127 c49 -71 96 -145 104 -165 16 -38 16 -38 75 -38 l59 0 -49 53 c-27 28 -85 103 -128 166 -61 88 -75 115 -65 122 8 5 17 9 21 9 15 0 80 64 95 94 22 41 22 141 0 183 -22 41 -71 78 -122 92 -22 6 -113 11 -202 11 l-162 0 15 -27z m361 -53 c86 -52 83 -187 -5 -242 -31 -19 -54 -23 -159 -26 l-123 -4 0 146 0 146 128 0 c108 0 132 -3 159 -20z" />
		<path
			d="M23100 9011 c6 -13 10 -140 10 -346 0 -206 -4 -333 -10 -346 -10 -18 -7 -19 46 -19 51 0 55 1 43 17 -11 13 -14 81 -14 348 0 267 3 335 14 348 12 16 8 17 -43 17 -53 0 -56 -1 -46 -19z" />
	</g>
</svg>