<svg width="184" height="113" fill="none" xmlns="http://www.w3.org/2000/svg"><path d="M33.771 37.414c-2.479.585-4.011 2.77-4.019 5.729-.006 2.302.346 3.313 1.61 4.623 1.644 1.705 4.387 2.077 7.007.949 1.06-.455 1.477-.793 1.36-1.098-.093-.242-.169-.508-.169-.59 0-.082-.449.171-.997.562-.819.585-1.387.711-3.195.711-1.919 0-2.304-.097-3.029-.767-2.331-2.15-2.235-6.885.175-8.649 1.628-1.192 4.526-1.083 6.084.228.804.676.917.7 1.098.23.275-.718-.844-1.518-2.681-1.916-1.644-.357-1.782-.357-3.244-.012" fill="#E1D7CB" fill-rule="evenodd"/></svg>