<svg width="184" height="113" viewBox="0 0 184 113" fill="none" xmlns="http://www.w3.org/2000/svg">
<g id="Capa_1">
<path id="Vector" d="M35.3225 38.0475C36.0511 38.0287 36.7754 38.1635 37.4484 38.4432C38.1213 38.723 38.7278 39.1414 39.2283 39.6711L39.4327 39.955L39.7619 38.6719L39.6711 38.6038C38.3975 37.7079 36.8797 37.2244 35.3225 37.2186C31.8141 37.2186 29.5432 39.6257 29.5432 43.3385C29.5432 47.0513 31.8141 49.4583 35.3225 49.4583C36.8807 49.4592 38.4005 48.9751 39.6711 48.0731L39.7619 48.005L39.4327 46.722L39.2283 47.0058C38.7265 47.5339 38.1198 47.9511 37.4471 48.2307C36.7745 48.5104 36.0508 48.6462 35.3225 48.6295C32.3364 48.6295 30.4857 46.6085 30.4857 43.3385C30.4857 40.0685 32.3364 38.0475 35.3225 38.0475Z" fill="#E1D7CB"/>
<path id="Vector_2" d="M149.363 48.6522H147.149V43.8381H149.601C150.323 43.784 151.049 43.8531 151.747 44.0425L152.008 44.2695V42.5097L151.747 42.7367C151.055 42.9217 150.339 42.9945 149.624 42.9525H147.149V38.3541H149.079C151.611 38.3541 153.087 38.5017 153.45 38.7855L153.779 39.0467L153.7 38.6379C153.646 38.3956 153.578 38.1567 153.496 37.9226C153.496 37.775 153.405 37.6615 153.405 37.6615V37.5025H145.798L146.013 37.7637C146.218 38.4516 146.295 39.1712 146.24 39.8869V47.0967C146.296 47.8124 146.219 48.5322 146.013 49.2199L145.798 49.4811H153.666L154.154 47.8801L153.757 48.1981C153.393 48.4819 151.917 48.6295 149.363 48.6295" fill="#E1D7CB"/>
<path id="Vector_3" d="M93.3305 51.8994C92.906 51.8994 92.4911 51.7736 92.1382 51.5378C91.7853 51.302 91.5103 50.9668 91.3479 50.5747C91.1855 50.1826 91.143 49.7511 91.2258 49.3349C91.3086 48.9186 91.513 48.5362 91.8131 48.2361C92.1132 47.936 92.4955 47.7316 92.9117 47.6488C93.328 47.566 93.7595 47.6085 94.1517 47.771C94.5438 47.9334 94.879 48.2084 95.1148 48.5613C95.3506 48.9142 95.4764 49.3291 95.4764 49.7535C95.4764 50.3227 95.2503 50.8685 94.8478 51.2709C94.4454 51.6733 93.8996 51.8994 93.3305 51.8994ZM93.3305 46.8809C92.7623 46.8809 92.2069 47.0494 91.7345 47.365C91.2621 47.6807 90.894 48.1293 90.6765 48.6542C90.4591 49.1791 90.4022 49.7567 90.513 50.3139C90.6238 50.8711 90.8975 51.383 91.2993 51.7847C91.701 52.1865 92.2129 52.4601 92.7701 52.5709C93.3273 52.6817 93.9048 52.6248 94.4297 52.4074C94.9546 52.19 95.4033 51.8218 95.7189 51.3494C96.0346 50.877 96.2031 50.3217 96.2031 49.7535C96.2046 49.3759 96.1312 49.0016 95.9874 48.6525C95.8436 48.3033 95.632 47.986 95.365 47.719C95.0979 47.4519 94.7807 47.2404 94.4315 47.0965C94.0823 46.9527 93.7081 46.8794 93.3305 46.8809Z" fill="#E1D7CB"/>
<path id="Vector_4" d="M134.75 44.2355V44.4058C134.75 44.5421 134.75 44.6783 134.75 44.8032C134.75 45.2687 134.682 45.7342 134.648 46.1657C134.614 46.5971 134.58 46.8583 134.534 47.1989C134.387 48.55 134.16 49.9012 133.887 51.1955C133.683 52.1038 133.444 53.0462 133.172 54V54.1703L133.104 54.386C132.979 54.8288 132.831 55.2603 132.729 55.5895V55.6804L132.593 56.0664C132.457 56.4865 132.309 56.8839 132.161 57.27L132.093 57.4403L132.025 57.5992C131.484 58.9876 130.867 60.3446 130.174 61.664V61.7548C129.959 62.1749 129.732 62.595 129.459 63.0492C129.459 63.0492 129.459 63.1514 129.38 63.2081C127.303 66.79 124.713 70.049 121.693 72.8818H110.089V31.9163C110.084 31.8521 110.084 31.7875 110.089 31.7233V31.6211H133.535C134.034 33.426 134.413 35.2618 134.671 37.1165C134.903 38.882 135.021 40.6608 135.023 42.4415C135.023 42.9638 135.023 43.5202 135.023 44.2355M115.425 77.8095L115.323 77.8776L115.21 77.9571L113.995 78.6724L113.802 78.7746L113.518 78.9449C113.155 79.1492 112.78 79.3422 112.383 79.5353L112.224 79.6148L111.77 79.8532L110.702 80.3528H110.611L109.987 80.6366C109.635 80.7956 109.272 80.9318 108.942 81.0681L108.148 81.386L107.137 81.7607L106.274 82.0445L105.275 82.3624L104.355 82.6236L103.379 82.8847L102.391 83.1118L101.483 83.3048L100.472 83.4865H100.211L99.5071 83.6L98.508 83.7249L98.0992 83.7817L97.4975 83.8498L96.3621 83.9407H96.2485H95.9534H95.4992C94.8861 83.9407 94.2388 83.9407 93.5803 83.9974H93.2851C92.6152 83.9974 91.968 83.9974 91.3549 83.9407H90.9007H90.6169H90.5034L89.2998 83.8498L88.7434 83.7817H88.4596H88.3233L87.2789 83.6455L86.643 83.5433L86.3477 83.4865L85.2919 83.2935L84.5652 83.1459H84.3949L83.3275 82.8961C83.055 82.8393 82.7939 82.7598 82.5214 82.6917H82.442L81.4088 82.3965L80.5231 82.1127L79.5239 81.772L78.6497 81.4541L77.6732 81.0681L76.8217 80.7048L75.868 80.2733L75.0278 79.8759L74.108 79.399L73.3474 78.9903L72.4504 78.4793L72.2687 78.3658L71.667 78.0025C71.4059 77.8549 71.156 77.6846 70.9062 77.5256L70.5769 77.3099L70.0319 76.9465C69.7822 76.7876 69.5437 76.6059 69.3053 76.4356L69.1463 76.3221L68.9193 76.1518C68.7603 76.0382 68.6013 75.936 68.4424 75.8111L67.6931 75.2321L67.5341 75.0959L67.3069 74.9142C67.1707 74.812 67.0458 74.7211 66.9209 74.6076C66.4781 74.2443 66.0353 73.8696 65.6152 73.4722H77.0828V73.6085H121.193C119.426 75.1767 117.526 76.5898 115.516 77.8322M64.8091 72.7682C64.3549 72.3368 63.9007 71.8826 63.4693 71.4285L63.4126 71.3717C62.9584 70.9062 62.5155 70.418 62.0727 69.9184L61.982 69.8162C61.5619 69.328 61.1532 68.8397 60.7558 68.3402L60.6307 68.1812C60.2561 67.7043 59.8814 67.2048 59.4953 66.7052L59.3251 66.4781C58.9997 66.0163 58.6704 65.5282 58.3373 65.0134L58.1556 64.7182C57.8604 64.2641 57.5652 63.7758 57.27 63.2649L57.0883 62.9584C56.8385 62.5042 56.5774 62.0386 56.3163 61.5164L56.2481 61.4028L56.1005 61.0963C55.8848 60.6648 55.6577 60.1993 55.4193 59.6656V59.5294C55.3595 59.4153 55.3064 59.2977 55.2603 59.1774C55.0786 58.7687 54.8856 58.3259 54.6812 57.7809L54.6132 57.6106C54.6132 57.4743 54.511 57.3494 54.4542 57.2245C54.2725 56.7363 54.1022 56.2481 53.9659 55.8393L53.8979 55.635L53.7616 55.2262C53.614 54.7607 53.4778 54.2952 53.3529 53.8524L53.2847 53.6139C53.2847 53.4777 53.1939 53.3301 53.1598 53.1825C53.0463 52.7397 52.944 52.3082 52.8305 51.82C52.8305 51.7405 52.8305 51.661 52.8305 51.5816C52.8305 51.5021 52.7511 51.2637 52.7284 51.1047C52.6262 50.6732 52.5467 50.2304 52.4786 49.7876C52.4786 49.6968 52.4786 49.606 52.4786 49.5038C52.4786 49.4016 52.4785 49.1972 52.399 49.0496C52.3309 48.6182 52.2856 48.1753 52.2288 47.7439V47.6417C52.2343 47.5434 52.2343 47.4448 52.2288 47.3465C52.2288 47.1989 52.2288 47.0626 52.2288 46.915C52.2288 46.3928 52.1379 45.8477 52.1038 45.3709C52.1038 45.28 52.1038 45.1892 52.1038 45.0984C52.0978 44.9811 52.0978 44.8637 52.1038 44.7464C52.1038 43.997 52.1038 43.259 52.1038 42.5551H51.3205H51.3999C51.3999 41.9987 51.3999 41.4197 51.3999 40.7044C51.3999 40.5227 51.3999 40.341 51.3999 40.1594C51.3999 39.5803 51.4795 39.0239 51.5249 38.5244C51.5249 38.3541 51.5249 38.1951 51.5249 38.0248V37.8545C51.5249 37.4684 51.6157 37.0711 51.6725 36.7191C51.7293 36.3671 51.752 36.14 51.7974 35.8448C51.8428 35.5496 51.8769 35.4134 51.9223 35.1976V35.0273C52.0358 34.4483 52.1493 33.8919 52.2742 33.3583C52.2742 33.2107 52.3423 33.0517 52.3877 32.8928C52.4899 32.4727 52.5695 32.132 52.6603 31.8141H76.5039C76.5039 31.8141 76.5039 31.8936 76.5039 31.9277C76.5039 31.9617 76.5039 32.1207 76.5039 32.2115V72.9159H64.2755L64.8091 72.7682ZM53.5913 28.9415V28.7712C53.5913 28.6804 53.5912 28.6009 53.6707 28.5214C53.7729 28.2603 53.8637 27.9878 53.9659 27.7267C54.0681 27.4655 54.3065 26.8297 54.5223 26.3301H77.5938C77.0612 27.7914 76.7364 29.3202 76.6287 30.8717H52.9214C53.0917 30.2586 53.296 29.6114 53.5345 28.9188M62.8449 13.6363H80.614L84.7128 17.7351C81.6676 19.5619 79.282 22.3094 77.9004 25.5807H54.8516C56.7865 21.1676 59.476 17.1256 62.7994 13.6363M64.8091 11.6493C65.286 11.2179 65.7855 10.7751 66.3078 10.3436C66.8074 9.93485 67.3296 9.51473 67.8633 9.11734H67.9315C68.4424 8.7313 68.9761 8.34526 69.5324 7.98193C70.0547 7.63374 70.5997 7.28177 71.1674 6.92601C71.701 6.59674 72.3027 6.27881 72.8477 5.94954H72.9159C73.4496 5.65434 74.0513 5.35913 74.619 5.06393C75.164 4.80278 75.7545 4.54166 76.3562 4.26916H76.4129C76.9579 4.03073 77.5484 3.80365 78.1729 3.56521H78.2409H78.3091C78.8768 3.36084 79.4445 3.15646 80.1144 2.95208H80.1826C80.7616 2.77042 81.318 2.60011 82.0333 2.41844H82.1013H82.1695C82.7599 2.25949 83.3729 2.12322 84.0428 1.97562H84.111H84.1791C84.7922 1.85072 85.4168 1.7372 86.1094 1.63501H86.1774C86.7905 1.54418 87.4378 1.4647 88.1304 1.38522H88.2667C88.9025 1.31709 89.561 1.26034 90.2763 1.22628H90.3785C91.0143 1.22628 91.6728 1.16949 92.3427 1.16949L80.5913 12.9891H63.5602C63.9916 12.5576 64.4344 12.1375 64.8772 11.7288M93.2623 1.28304L98.9394 6.96007L93.2623 12.7393L87.5853 6.93737L93.2623 1.28304ZM95.7035 0.874271H95.783C96.4756 0.874271 97.1569 0.987815 97.7927 1.05594C107.111 2.15085 115.79 6.3502 122.431 12.9777H106.047L93.8528 0.783453C94.5113 0.783453 95.1585 0.783462 95.7603 0.86294M123.237 13.7044C126.55 17.202 129.238 21.2421 131.185 25.6489H108.59C107.201 22.3855 104.817 19.6439 101.778 17.8146L105.888 13.7044H123.237ZM104.208 52.6716H104.957V46.7674H104.208V31.6665H109.226V31.7687C109.226 31.8709 109.226 31.9731 109.226 32.0639V32.291V32.5748V72.8704H104.219L104.208 52.6716ZM86.166 52.6716H86.9154V46.7674H86.166V31.6665H100.552V46.7674H99.6774V52.6716H100.552V72.9045H86.166V52.6716ZM86.166 49.2653H82.3285V47.4487H86.166V49.2653ZM85.4168 46.722H83.146V31.6211H85.4168V46.722ZM104.23 49.3221H100.404V47.5054H104.23V49.3221ZM103.492 46.7788H101.222V31.6779H103.492V46.7788ZM101.301 18.3936C104.19 20.093 106.479 22.6482 107.852 25.7057H93.989L101.301 18.3936ZM93.6826 18.6094V13.5L99.5525 7.56183L102.164 10.1846L93.6826 18.6094ZM102.686 10.6615L105.332 13.307L93.6826 24.9563V19.5972L102.686 10.6615ZM108.136 26.3982C108.702 27.8526 109.046 29.3835 109.158 30.9399H77.4348C77.5507 29.384 77.8951 27.8538 78.4567 26.3982H108.136ZM92.6493 25.6716H78.7519C80.1233 22.6058 82.4227 20.0482 85.3258 18.3596L92.6493 25.6716ZM84.5538 10.0597L87.1085 7.50508L92.9559 13.4546V18.5639L84.5538 10.0597ZM92.9559 19.5972V24.9563L81.3066 13.307L84.0428 10.5707L92.9559 19.5972ZM77.3894 32.0866C77.3894 31.9958 77.3894 31.8936 77.3894 31.8028C77.3838 31.7651 77.3838 31.7269 77.3894 31.6892H82.476V46.7901H81.6018V52.6943H82.476V72.9272H77.4348V32.643L77.3894 32.0866ZM85.4395 72.9613H83.1687V52.6261H85.4395V72.9613ZM82.3511 50.0942H86.1888V52.0016H82.3511V50.0942ZM103.549 72.8591H101.278V52.6261H103.549V72.8591ZM100.461 49.992H104.299V51.8995H100.461V49.992ZM133.206 30.8944H109.942C109.834 29.3429 109.509 27.8141 108.976 26.3528H131.605C132.224 27.8352 132.759 29.3515 133.206 30.8944ZM135.477 40.6022C135.477 39.4668 135.318 38.2178 135.159 36.9802C134.253 30.0156 131.636 23.3839 127.54 17.6783L127.45 17.5648C127.143 17.1333 126.814 16.7018 126.45 16.2363L126.394 16.1682L126.269 16.0093L125.27 14.7944L125.02 14.5219C124.69 14.1245 124.339 13.7498 124.009 13.3865L123.714 13.0913C123.339 12.6939 122.999 12.3533 122.669 12.0353L122.465 11.831L122.352 11.7174L121.216 10.7296L121.034 10.5707L120.876 10.4344L119.74 9.48067L119.57 9.34443L119.434 9.24225C119.047 8.93569 118.639 8.60639 118.207 8.28848C116.866 7.29814 115.467 6.38822 114.018 5.56351L113.791 5.42726L113.427 5.2229L112.667 4.81413L112.235 4.5984L111.667 4.30322L110.873 3.93988L110.577 3.80364L109.851 3.47436L108.976 3.11102C108.681 2.99748 108.363 2.86126 108.034 2.74772L107.126 2.41844L106.138 2.07783L105.23 1.79398L104.185 1.49877L103.299 1.27167L102.164 1.01055L101.335 0.84021L100.2 0.635845H100.007L99.3369 0.522297L98.0992 0.363358H97.8267L97.3044 0.306567L95.8852 0.193054H95.6013H95.204C94.4773 0.193054 93.7847 0.193054 93.1035 0.193054C83.4864 0.194104 74.1548 3.46132 66.6375 9.45943C59.1202 15.4576 53.8628 23.8309 51.7267 33.2077C49.5906 42.5846 50.7025 52.4089 54.8801 61.0711C59.0578 69.7334 66.0535 76.72 74.7212 80.8864C80.451 83.6606 86.7374 85.0934 93.1035 85.0761H93.1829C93.8301 85.0761 94.4886 85.0761 95.1471 85.0193H95.59H95.8511L97.1796 84.9171L97.8153 84.849H97.9857L99.1893 84.7014L100.018 84.5651C100.404 84.5084 100.802 84.4402 101.153 84.3607C101.505 84.2813 101.698 84.2586 101.971 84.1904L103.106 83.9293H103.288L103.878 83.7817L105.116 83.4297L105.366 83.3616L105.775 83.2367L107.478 82.6576H107.569H107.682C108.25 82.4419 108.818 82.2148 109.431 81.965L109.817 81.7947L110.055 81.6812C110.43 81.5222 110.816 81.3519 111.19 81.1589L111.747 80.8864L111.894 80.8183L112.928 80.2846L113.643 79.8986L114.619 79.3309L115.323 78.9108L116.288 78.2863L116.425 78.1955L116.936 77.8549L117.946 77.1396L118.15 76.9806L118.503 76.7308L119.831 75.6976C119.856 75.6654 119.887 75.6383 119.922 75.6181L120.047 75.5159L121.455 74.3011L121.75 74.0172L121.943 73.8355L122.851 72.9726L123.271 72.5412L123.396 72.4163C123.635 72.1778 123.907 71.8826 124.18 71.5874C124.452 71.2922 124.554 71.19 124.736 70.9856L125.463 70.1341C125.644 69.9297 125.815 69.714 125.985 69.5096C126.155 69.3053 126.462 68.8965 126.689 68.6127L126.802 68.4764C126.927 68.3061 127.052 68.1471 127.166 67.9768C127.279 67.8065 127.654 67.3069 127.87 66.989L128.006 66.8074L128.278 66.41C128.551 66.0012 128.846 65.5471 129.164 65.0361L129.232 64.9226L129.323 64.7863C129.641 64.2641 129.959 63.6509 130.277 63.1287C130.345 63.0151 130.402 62.8902 130.47 62.7653C130.507 62.6836 130.548 62.604 130.595 62.5269C130.776 62.1749 130.981 61.7889 131.162 61.3915C131.253 61.1985 131.344 61.0168 131.423 60.8238L131.503 60.6648C131.696 60.2561 131.844 59.9268 131.98 59.6203C132.116 59.3137 132.195 59.1093 132.298 58.8482C132.4 58.587 132.581 58.1442 132.718 57.7922C132.854 57.4403 132.911 57.2699 133.002 57.0088C133.092 56.7477 133.24 56.3275 133.376 55.8734V55.7371L133.581 55.1013C133.706 54.7039 133.808 54.3065 133.921 53.8978L133.99 53.6594C133.99 53.5118 134.069 53.3528 134.114 53.1938C134.239 52.7056 134.364 52.1833 134.489 51.5816V51.4339V51.275V51.1728C134.727 49.9693 134.92 48.709 135.068 47.4146C135.068 47.1535 135.068 46.881 135.148 46.6085C135.148 46.0294 135.238 45.5525 135.261 45.087C135.261 44.9962 135.261 44.9167 135.261 44.8259V44.6556C135.261 43.963 135.261 43.3385 135.261 42.7594C135.261 42.1804 135.261 41.4537 135.261 40.9201" fill="#E1D7CB"/>
<path id="Vector_5" d="M30.0797 102.735L29.7896 103.653L30.0484 103.447C30.1895 103.339 30.7617 103.209 32.6744 103.232V106.957C32.7077 107.203 32.6845 107.452 32.6065 107.688C32.5285 107.924 32.3977 108.139 32.2235 108.32C32.0493 108.5 31.8362 108.64 31.5996 108.73C31.363 108.819 31.1089 108.857 30.8557 108.839C30.1822 108.844 29.531 108.604 29.0293 108.166L28.8881 108.005L28.7706 108.77H28.8255C29.4207 109.147 30.1147 109.349 30.8244 109.351C31.148 109.371 31.4721 109.321 31.7741 109.206C32.076 109.091 32.3484 108.912 32.5724 108.684C32.7964 108.455 32.9665 108.181 33.0708 107.882C33.175 107.582 33.211 107.264 33.1761 106.949V102.728L30.0797 102.735Z" fill="#E1D7CB"/>
<path id="Vector_6" d="M43.7587 106.218C43.7587 107.653 43.0683 109.104 41.4735 109.104C39.8788 109.104 39.1884 107.653 39.1884 106.218C39.1884 104.359 40.0445 103.245 41.4735 103.245C42.9026 103.245 43.7587 104.359 43.7587 106.218ZM41.4735 102.728C39.7614 102.728 38.712 104.069 38.712 106.218C38.712 107.05 39.003 107.848 39.5209 108.436C40.0388 109.025 40.7411 109.355 41.4735 109.355C42.2059 109.355 42.9084 109.025 43.4262 108.436C43.9441 107.848 44.235 107.05 44.235 106.218C44.235 104.069 43.1788 102.728 41.4735 102.728Z" fill="#E1D7CB"/>
<path id="Vector_7" d="M51.952 103.864L53.2576 106.743H50.6768L51.952 103.864ZM54.1281 109.355H55.281L55.0749 109.185C54.6753 108.673 54.3634 108.103 54.151 107.495L51.952 102.728L49.7148 107.613C49.504 108.165 49.2163 108.687 48.8596 109.163L48.6534 109.333H49.669H49.7758V109.23C49.7721 109.181 49.7721 109.131 49.7758 109.082C49.9016 108.507 50.1071 107.951 50.3867 107.429L50.4936 107.2H53.4944L53.5707 107.37C53.8674 107.909 54.0858 108.485 54.2197 109.082C54.2266 109.134 54.2266 109.186 54.2197 109.237L54.1281 109.355Z" fill="#E1D7CB"/>
<path id="Vector_8" d="M63.8006 108.581L63.2427 107.763L62.8708 108.082L63.3874 108.862C63.0924 108.999 62.7763 109.067 62.4575 109.065C60.8803 109.065 60.1709 107.623 60.1709 106.188C60.1709 104.341 61.0249 103.242 62.4575 103.242C63.8902 103.242 64.7374 104.341 64.7374 106.188C64.7596 106.645 64.6863 107.101 64.5236 107.519C64.3608 107.938 64.1131 108.307 63.8006 108.597M64.083 109.002C64.4557 108.668 64.7531 108.239 64.9506 107.75C65.1482 107.261 65.2403 106.726 65.2195 106.188C65.2195 104.053 64.1588 102.728 62.4644 102.728C60.7701 102.728 59.7094 104.053 59.7094 106.188C59.6769 106.62 59.724 107.054 59.8479 107.463C59.9717 107.872 60.1694 108.248 60.4286 108.566C60.6877 108.885 61.0026 109.138 61.3531 109.311C61.7036 109.484 62.0821 109.573 62.4644 109.571C62.8852 109.576 63.3018 109.475 63.6836 109.275C64.1175 109.938 64.207 110.171 64.207 110.257V110.46L64.8958 109.844L64.7305 109.789C64.6616 109.789 64.4894 109.61 64.0417 109.01" fill="#E1D7CB"/>
<path id="Vector_9" d="M76.2684 102.728H75.2803L75.4056 102.888C75.5457 103.4 75.5859 103.936 75.5236 104.464V106.46C75.5236 107.656 74.9042 108.868 73.5179 108.868C72.1316 108.868 71.4827 107.656 71.4827 106.46V104.457C71.4258 103.931 71.4633 103.399 71.5934 102.888L71.7187 102.728H70.7454L70.8634 102.88C70.9224 102.964 71.0182 103.512 70.9813 106.247C70.9813 106.346 70.9813 106.422 70.9813 106.453C70.9813 108.19 72.0063 109.355 73.5253 109.355C75.0443 109.355 76.025 108.22 76.025 106.453V106.262C75.9808 103.413 76.0913 102.949 76.143 102.88L76.2684 102.728Z" fill="#E1D7CB"/>
<path id="Vector_10" d="M81.5053 107.586V104.497C81.5053 103.222 81.5767 102.952 81.6244 102.898L81.7914 102.728H80.6868L80.8457 102.898C80.8933 102.944 80.9728 103.222 80.9649 104.497V107.586C80.9649 108.861 80.8933 109.131 80.8457 109.185L80.6868 109.355H81.7914L81.6244 109.185C81.5767 109.139 81.4974 108.861 81.5053 107.586Z" fill="#E1D7CB"/>
<path id="Vector_11" d="M82.896 99.7402L82.4207 99.4138L81.7914 101.531L81.9584 101.623L82.896 99.7402Z" fill="#E1D7CB"/>
<path id="Vector_12" d="M143.365 107.586V104.497C143.365 103.222 143.436 102.952 143.483 102.898L143.649 102.728H142.552L142.71 102.898C142.757 102.944 142.836 103.222 142.828 104.497V107.586C142.828 108.861 142.757 109.131 142.71 109.185L142.544 109.355H143.641L143.483 109.185C143.436 109.139 143.357 108.861 143.365 107.586Z" fill="#E1D7CB"/>
<path id="Vector_13" d="M143.649 99.7402L143.176 99.4138L142.544 101.531L142.717 101.623L143.649 99.7402Z" fill="#E1D7CB"/>
<path id="Vector_14" d="M92.8373 103.016H91.7971L91.9468 103.171C91.9917 103.213 92.0666 103.466 92.0591 104.627V107.941L87.5688 102.728V107.456C87.5688 108.616 87.509 108.863 87.4641 108.912L87.3143 109.067H88.3321L88.19 108.912C88.0602 108.43 88.0222 107.929 88.0777 107.434V104.142L92.5679 109.355V104.627C92.5679 103.466 92.6353 103.22 92.6802 103.171L92.8373 103.016Z" fill="#E1D7CB"/>
<path id="Vector_15" d="M107.172 105.825V105.734H104.077L103.702 106.489L103.987 106.338C104.859 106.207 105.744 106.169 106.625 106.225C106.633 106.95 106.341 107.65 105.808 108.181C105.57 108.409 105.285 108.588 104.969 108.709C104.653 108.83 104.313 108.889 103.971 108.884C103.584 108.881 103.202 108.804 102.849 108.659C102.495 108.514 102.178 108.303 101.916 108.039C101.654 107.776 101.454 107.466 101.327 107.127C101.2 106.789 101.15 106.431 101.179 106.074C101.179 104.306 102.256 103.203 103.979 103.203C104.404 103.191 104.828 103.261 105.221 103.41C105.615 103.558 105.971 103.781 106.266 104.065L106.388 104.238L106.609 103.521L106.543 103.483C105.793 102.993 104.898 102.729 103.979 102.728C101.946 102.728 100.574 104.072 100.574 106.082C100.55 106.506 100.619 106.93 100.779 107.328C100.939 107.726 101.185 108.09 101.503 108.396C101.82 108.703 102.203 108.946 102.626 109.11C103.049 109.275 103.504 109.357 103.963 109.352C104.406 109.371 104.847 109.301 105.258 109.149C105.67 108.996 106.041 108.764 106.347 108.469C106.673 108.105 106.914 107.683 107.054 107.23C107.195 106.776 107.232 106.3 107.164 105.832" fill="#E1D7CB"/>
<path id="Vector_16" d="M116.204 106.728H113.624L114.914 103.864L116.204 106.728ZM117.09 109.355H118.243L118.037 109.185C117.635 108.665 117.318 108.087 117.098 107.473L114.914 102.728L112.677 107.613C112.463 108.162 112.175 108.68 111.822 109.156L111.615 109.326H112.631H112.738V109.222C112.738 109.171 112.738 109.126 112.738 109.075C112.863 108.502 113.068 107.948 113.349 107.429L113.456 107.193H116.456L116.533 107.362C116.829 107.902 117.048 108.478 117.182 109.075C117.189 109.126 117.189 109.178 117.182 109.23L117.09 109.355Z" fill="#E1D7CB"/>
<path id="Vector_17" d="M126.591 104.5C126.599 104.687 126.568 104.873 126.5 105.046C126.433 105.22 126.329 105.377 126.198 105.507C126.066 105.638 125.908 105.738 125.736 105.802C125.563 105.866 125.379 105.893 125.195 105.879H123.428V103.251H125.195C126.068 103.251 126.591 103.722 126.591 104.5ZM127.919 109.193C127.415 108.662 126.968 108.078 126.584 107.452L125.787 106.303C126.186 106.21 126.541 105.979 126.793 105.651C127.044 105.322 127.177 104.916 127.168 104.5C127.168 104.248 127.115 103.998 127.012 103.768C126.91 103.539 126.76 103.334 126.573 103.167C126.387 103.001 126.167 102.877 125.93 102.804C125.692 102.731 125.442 102.71 125.195 102.743H122.669L122.821 102.912C122.866 102.959 122.942 103.236 122.935 104.508V107.59C122.935 108.862 122.866 109.132 122.821 109.186L122.661 109.355H123.716L123.564 109.186C123.519 109.139 123.443 108.862 123.451 107.59V106.365H125.226L126.341 107.983L126.432 108.107C126.716 108.441 126.921 108.836 127.031 109.263V109.355H128.184L127.919 109.193Z" fill="#E1D7CB"/>
<path id="Vector_18" d="M137.755 108.064C137.431 108.346 137.04 108.569 136.608 108.719C136.175 108.868 135.71 108.941 135.242 108.932C133.325 108.932 132.131 107.845 132.131 106.087C132.131 104.328 133.325 103.241 135.242 103.241C135.71 103.23 136.176 103.302 136.609 103.451C137.042 103.601 137.433 103.825 137.755 104.109L137.9 104.283L138.126 103.528L138.054 103.482C137.232 102.995 136.25 102.732 135.242 102.728C132.963 102.728 131.498 104.026 131.498 106.041C131.498 108.057 132.963 109.355 135.242 109.355C136.253 109.355 137.239 109.091 138.063 108.6L138.126 108.563L137.9 107.845L137.755 108.064Z" fill="#E1D7CB"/>
<path id="Vector_19" d="M151.377 103.864L152.666 106.728H150.088L151.377 103.864ZM153.543 109.355H154.695L154.489 109.185C154.086 108.667 153.772 108.089 153.558 107.473L151.377 102.728L149.135 107.613C148.919 108.162 148.629 108.68 148.273 109.156L148.067 109.326H149.089H149.196V109.222C149.192 109.173 149.192 109.124 149.196 109.075C149.322 108.5 149.527 107.944 149.806 107.422C149.852 107.333 149.882 107.259 149.913 107.193H152.91L152.994 107.362C153.285 107.903 153.501 108.479 153.635 109.075C153.642 109.126 153.642 109.178 153.635 109.23L153.543 109.355Z" fill="#E1D7CB"/>
</g>
</svg>
